#N canvas 493 23 549 537 10;
#X obj 81 176 netreceive -u -b;
#X msg 93 149 listen 0;
#X msg 81 121 listen 1312;
#X msg 347 206 disconnect;
#X floatatom 337 355 0 0 0 0 - - -;
#X text 386 149 UDP \, binary;
#X obj 337 334 netsend -u -b;
#X msg 337 176 connect localhost 1312;
#X msg 354 279 send 1;
#X msg 354 309 send 0;
#X floatatom 81 197 5 0 0 0 - - -;
#X msg 81 374 start;
#X msg 100 394 stop;
#X obj 81 254 t b b;
#X obj 81 231 sel 1 0;
#X obj 80 431 writesf~ 2;
#X obj 81 64 loadbang;
#X obj 81 85 delay 5;
#X obj 337 124 loadbang;
#X obj 108 284 f;
#X obj 138 284 + 1;
#X obj 108 305 mod 10;
#X obj 108 326 + 1;
#X text 401 278 start recording;
#X text 401 308 stop recording;
#X text 90 23 RECEIVE;
#X text 360 23 SEND;
#X obj 275 14 bng 15 250 50 0 empty empty empty 17 7 0 10 -262144 -1
-1;
#X obj 275 445 bng 15 250 50 0 empty empty empty 17 7 0 10 -262144
-1 -1;
#X text 176 282 create 10 diff wav files before looping back to beginning
and overwriting, f 14;
#X msg 61 354 open \$1.wav;
#X text 178 377 "1.wav" \, "2.wav" \, "3.wav" \, etc, f 11;
#X obj 12 389 adc~;
#X text 34 504 use OSC to start/stop recording remotely. never actually
tested on physical devices but it works in theory;
#X connect 0 0 10 0;
#X connect 1 0 0 0;
#X connect 2 0 0 0;
#X connect 3 0 6 0;
#X connect 6 0 4 0;
#X connect 7 0 6 0;
#X connect 8 0 6 0;
#X connect 9 0 6 0;
#X connect 10 0 14 0;
#X connect 11 0 15 0;
#X connect 12 0 15 0;
#X connect 13 0 11 0;
#X connect 13 1 19 0;
#X connect 14 0 13 0;
#X connect 14 1 12 0;
#X connect 16 0 17 0;
#X connect 17 0 2 0;
#X connect 18 0 7 0;
#X connect 19 0 20 0;
#X connect 19 0 21 0;
#X connect 20 0 19 1;
#X connect 21 0 22 0;
#X connect 22 0 30 0;
#X connect 27 0 28 0;
#X connect 30 0 15 0;
#X connect 32 0 15 0;
#X connect 32 1 15 1;
