#N canvas 0 23 450 300 10;
#X obj 68 106 bng 15 250 50 0 empty empty empty 17 7 0 10 -262144 -1
-1;
#X obj 68 126 delay 2000;
#X obj 68 155 bng 15 250 50 0 empty empty empty 17 7 0 10 -262144 -1
-1;
#X obj 269 126 line;
#X obj 269 187 sel 3;
#X obj 307 187 sel 6;
#X obj 345 187 sel 9;
#X obj 269 215 bng 15 250 50 0 empty empty empty 17 7 0 10 -262144
-1 -1;
#X obj 307 215 bng 15 250 50 0 empty empty empty 17 7 0 10 -262144
-1 -1;
#X obj 345 215 bng 15 250 50 0 empty empty empty 17 7 0 10 -262144
-1 -1;
#X msg 269 105 0 \, 10 6000;
#X text 119 17 MANAGING COMPOSITIONAL TIME examples;
#X text 81 79 1;
#X text 291 79 2;
#X floatatom 345 158 5 0 0 0 - - -;
#X connect 0 0 1 0;
#X connect 1 0 2 0;
#X connect 3 0 4 0;
#X connect 3 0 5 0;
#X connect 3 0 6 0;
#X connect 3 0 14 0;
#X connect 4 0 7 0;
#X connect 5 0 8 0;
#X connect 6 0 9 0;
#X connect 10 0 3 0;
