#N canvas 406 152 687 465 10;
#X floatatom 261 149 5 0 0 2 - - -;
#X floatatom 110 267 10 0 0 0 - - -;
#X obj 264 133 hsl 100 13 0 360 0 0 empty empty azimuth_0-360 10 7
0 10 -262144 -1 -1 0 1;
#X floatatom 303 167 5 0 0 2 - - -;
#X obj 306 150 hsl 100 13 0 100 0 0 empty empty spread_0-100 10 7 0
10 -262144 -1 -1 0 1;
#X obj 230 43 tgl 15 0 empty empty empty 17 7 0 10 -262144 -1 -1 1
1;
#X msg 240 106 define_loudspeakers 2 0 72 144 216 288 360;
#X obj 240 214 route 0 1 2 3 4 5;
#X obj 95 327 *~;
#X floatatom 180 267 10 0 0 0 - - -;
#X obj 165 327 *~;
#X floatatom 250 267 10 0 0 0 - - -;
#X obj 235 327 *~;
#X floatatom 320 267 10 0 0 0 - - -;
#X obj 305 327 *~;
#X floatatom 390 267 10 0 0 0 - - -;
#X obj 375 327 *~;
#X floatatom 460 267 10 0 0 0 - - -;
#X obj 445 327 *~;
#X obj 230 61 metro 20;
#X obj 240 87 loadbang;
#X obj 240 188 vbap 0 0 15;
#X text 429 7 360-degree panner for 6 loudspeakers;
#X obj 33 114 inlet~;
#X text 78 114 audio input;
#X obj 469 179 f;
#X obj 495 179 + 1;
#X floatatom 469 200 5 0 0 0 - - -;
#X obj 469 140 tgl 15 0 empty empty empty 17 7 0 10 -262144 -1 -1 0
1;
#X obj 515 119 inlet;
#X floatatom 469 241 5 0 0 0 - - -;
#X obj 469 220 mod 361;
#X text 550 119 speed of orbit (ms);
#X obj 95 348 outlet~;
#X obj 165 348 outlet~;
#X obj 235 348 outlet~;
#X obj 305 348 outlet~;
#X obj 375 348 outlet~;
#X obj 445 348 outlet~;
#X obj 230 24 loadbang;
#X obj 469 159 metro;
#X obj 110 307 line~;
#X msg 110 286 \$1 20;
#X obj 180 307 line~;
#X msg 180 286 \$1 20;
#X obj 250 307 line~;
#X msg 250 286 \$1 20;
#X obj 320 307 line~;
#X msg 320 286 \$1 20;
#X obj 390 307 line~;
#X msg 390 286 \$1 20;
#X obj 460 307 line~;
#X msg 460 286 \$1 20;
#X connect 0 0 21 1;
#X connect 1 0 42 0;
#X connect 2 0 0 0;
#X connect 3 0 21 3;
#X connect 4 0 3 0;
#X connect 5 0 19 0;
#X connect 6 0 21 0;
#X connect 7 0 1 0;
#X connect 7 1 9 0;
#X connect 7 2 11 0;
#X connect 7 3 13 0;
#X connect 7 4 15 0;
#X connect 7 5 17 0;
#X connect 8 0 33 0;
#X connect 9 0 44 0;
#X connect 10 0 34 0;
#X connect 11 0 46 0;
#X connect 12 0 35 0;
#X connect 13 0 48 0;
#X connect 14 0 36 0;
#X connect 15 0 50 0;
#X connect 16 0 37 0;
#X connect 17 0 52 0;
#X connect 18 0 38 0;
#X connect 19 0 21 0;
#X connect 20 0 6 0;
#X connect 21 0 7 0;
#X connect 23 0 8 0;
#X connect 23 0 18 0;
#X connect 23 0 16 0;
#X connect 23 0 14 0;
#X connect 23 0 12 0;
#X connect 23 0 10 0;
#X connect 25 0 26 0;
#X connect 25 0 27 0;
#X connect 26 0 25 1;
#X connect 27 0 31 0;
#X connect 28 0 40 0;
#X connect 29 0 28 0;
#X connect 29 0 40 1;
#X connect 30 0 2 0;
#X connect 31 0 30 0;
#X connect 39 0 5 0;
#X connect 40 0 25 0;
#X connect 41 0 8 1;
#X connect 42 0 41 0;
#X connect 43 0 10 1;
#X connect 44 0 43 0;
#X connect 45 0 12 1;
#X connect 46 0 45 0;
#X connect 47 0 14 1;
#X connect 48 0 47 0;
#X connect 49 0 16 1;
#X connect 50 0 49 0;
#X connect 51 0 18 1;
#X connect 52 0 51 0;
