#N canvas 404 248 1048 627 12;
#X obj 145 230 value idx\$0;
#X msg 145 198 0;
#X obj 29 303 until;
#X obj 29 443 select 1;
#X obj 61 263 receive \$0-done;
#X obj 29 488 send \$0-done;
#X obj 376 511 receive \$0-name;
#X obj 355 307 receive \$0-name;
#X text 566 10 Copyright 2019 Dan Bornstein <danfuzz@milk.com>. Licensed
AS IS and WITHOUT WARRANTY under the Apache License \, Version 2.0.
Details: <http://www.apache.org/licenses/LICENSE-2.0>, f 65;
#X obj 29 99 inlet;
#X obj 701 106 loadbang;
#X obj 701 130 symbol \$1;
#X text 701 84 Name of the array to store to.;
#X obj 701 154 send \$0-name;
#X text 701 177 Name of receiver of function input.;
#X text 701 246 Name of sender of function output.;
#X obj 701 337 loadbang;
#X text 701 315 Lower bounds of function range (inclusive).;
#X obj 701 430 loadbang;
#X text 701 408 Upper bounds of function range (exclusive).;
#X obj 701 361 float \$4;
#X obj 701 385 value min\$0;
#X obj 701 485 value max\$0;
#X obj 29 353 expr idx\$0 == size("$s2") \; idx\$0 = idx\$0 + 1 \;
idx\$0 \; min\$0 + (idx\$0 / size("$s2")) * (max\$0 - min\$0);
#X obj 701 223 send \$2;
#X obj 701 268 receive \$3;
#X obj 701 199 receive \$0-to-function;
#X obj 701 292 send \$0-from-function;
#X obj 355 440 send \$0-to-function;
#X obj 311 483 receive \$0-from-function;
#X obj 701 458 float \$5;
#X obj 246 545 expr $s3[$i1] = $f2;
#X text 378 357 **Note:** This executes bottom-to-top \, because `expr`
(like most objects) produces outputs from right to left., f 35;
#X text 77 101 Bang \, to render the function.;
#X text 40 31 Function grapher: Renders a function into an array.;
#X obj 29 162 trigger bang bang;
#X connect 1 0 0 0;
#X connect 2 0 23 0;
#X connect 3 0 5 0;
#X connect 4 0 2 1;
#X connect 6 0 31 2;
#X connect 7 0 23 1;
#X connect 9 0 35 0;
#X connect 10 0 11 0;
#X connect 11 0 13 0;
#X connect 16 0 20 0;
#X connect 18 0 30 0;
#X connect 20 0 21 0;
#X connect 23 0 3 0;
#X connect 23 2 31 0;
#X connect 23 3 28 0;
#X connect 25 0 27 0;
#X connect 26 0 24 0;
#X connect 29 0 31 1;
#X connect 30 0 22 0;
#X connect 35 0 2 0;
#X connect 35 1 1 0;
