#N canvas 314 354 843 451 12;
#X text 139 3 Copyright 2019 Dan Bornstein <danfuzz@milk.com>. Licensed
AS IS and WITHOUT WARRANTY under the Apache License \, Version 2.0.
Details: <http://www.apache.org/licenses/LICENSE-2.0>, f 65;
#X text 13 73 Audio post-processing stage.;
#X obj 12 189 inlet~;
#X obj 306 192 inlet~;
#X text 362 192 Stereo input.;
#X text 368 361 Stereo output.;
#X obj 12 359 outlet~;
#X obj 306 361 outlet~;
#X obj 684 194 osc~ 1;
#X obj 306 281 expr~ $v1 * (1 - $v2) / 2;
#X obj 12 281 expr~ $v1 * ($v2 + 1) / 2;
#X obj 684 244 send~ \$0-pan;
#X obj 478 239 receive~ \$0-pan;
#X obj 184 237 receive~ \$0-pan;
#X text 13 100 This is a very simple post-processor which gently "pans"
the signal back and forth using a sinewave LFO.;
#X text 210 159 Processing Section;
#X text 673 165 LFO Section;
#X connect 2 0 10 0;
#X connect 3 0 9 0;
#X connect 8 0 11 0;
#X connect 9 0 7 0;
#X connect 10 0 6 0;
#X connect 12 0 9 1;
#X connect 13 0 10 1;
