#N canvas 666 185 634 337 12;
#X obj 8 226 voice~, f 13;
#X text 139 3 Copyright 2019 Dan Bornstein <danfuzz@milk.com>. Licensed
AS IS and WITHOUT WARRANTY under the Apache License \, Version 2.0.
Details: <http://www.apache.org/licenses/LICENSE-2.0>, f 65;
#X obj 8 189 simple-mono, f 12;
#X obj 8 150 inlet;
#X text 154 154 Pairs of MIDI `[note \, velocity]`;
#X text 154 305 Stereo output.;
#X text 7 61 Top-level synthesizer definition;
#X obj 8 304 outlet~;
#X obj 96 304 outlet~;
#X obj 43 262 post-process~;
#X text 154 260 Post-processing stage. (The distinction between this
and the `voice~` would be more meaningful in a polyphonic synth.);
#X text 154 227 Monophonic synth voice.;
#X text 154 192 Note parser \, for a monophonic synth.;
#X text 8 89 **Note:** See `doc/interface.md` for information about
the interface used between `simple-mono` (the note parser) and `voice~`
(the controllable oscillator)., f 65;
#X connect 0 0 9 0;
#X connect 0 0 7 0;
#X connect 0 1 9 1;
#X connect 0 1 8 0;
#X connect 2 0 0 0;
#X connect 3 0 2 0;
