#N canvas 778 264 1002 1021 12;
#X obj 19 57 inlet;
#X obj 13 636 phasor~;
#X obj 531 170 send \$0-velocity;
#X obj 403 170 send \$0-frequency;
#X obj 45 494 receive \$0-frequency;
#X obj 669 465 receive \$0-velocity;
#X obj 637 398 receive \$0-on;
#X obj 514 398 receive \$0-off;
#X obj 19 265 send \$0-off;
#X obj 274 211 send \$0-on;
#X obj 550 635 send~ \$0-amp;
#X text 667 428 Velocity is received and "latched" (buffered) to be
banged out upon note-on., f 45;
#X text 43 457 Frequency is received and "latched" (buffered) to be
banged out upon note-on.;
#X obj 13 393 receive \$0-on;
#X text 580 361 Envelope Section;
#X text 114 359 Oscillator Section;
#X obj 162 839 receive~ \$0-osc-sample-left;
#X obj 162 968 outlet~;
#X obj 180 876 receive~ \$0-amp;
#X obj 162 911 *~;
#X text 519 875 <-- Amps are driven by the envelope.;
#X obj 382 969 outlet~;
#X obj 400 873 receive~ \$0-amp;
#X obj 382 909 *~;
#X obj 382 837 receive~ \$0-osc-sample-right;
#X text 325 804 Output Section;
#X obj 13 745 send~ \$0-osc-sample-left;
#X obj 73 713 send~ \$0-osc-sample-right;
#X text 219 33 Input Section;
#X obj 19 230 bang;
#X obj 274 178 bang;
#X obj 59 606 float 0;
#X text 517 4 Copyright 2019 Dan Bornstein <danfuzz@milk.com>. Licensed
AS IS and WITHOUT WARRANTY under the Apache License \, Version 2.0.
Details: <http://www.apache.org/licenses/LICENSE-2.0>, f 65;
#X obj 19 125 route off on on-top frequency velocity, f 92;
#X obj 147 311 send \$0-reset-phase;
#X obj 147 246 trigger bang bang;
#X obj 263 285 send \$0-on;
#X obj 637 498 float;
#X obj 13 525 float;
#X obj 13 672 waveform~;
#X obj 59 577 receive \$0-reset-phase;
#X text 114 392 Update frequency upon `on` and `on-top`.;
#X text 58 555 Reset phase upon `on` (but not `on-top`).;
#X text 89 672 Example waveform function.;
#X msg 514 443 off 0;
#X msg 637 524 on \$1;
#X text 62 90 **Note:** See `doc/interface.md` for info on the meaning
/ structure of each of these messages., f 50;
#X obj 550 578 envelope-asr~;
#X text 659 577 Example envelope generator. See `envelope-gate~` for
an even simpler example envelope., f 45;
#X connect 0 0 33 0;
#X connect 1 0 39 0;
#X connect 4 0 38 1;
#X connect 5 0 37 1;
#X connect 6 0 37 0;
#X connect 7 0 44 0;
#X connect 13 0 38 0;
#X connect 16 0 19 0;
#X connect 18 0 19 1;
#X connect 19 0 17 0;
#X connect 22 0 23 1;
#X connect 23 0 21 0;
#X connect 24 0 23 0;
#X connect 29 0 8 0;
#X connect 30 0 9 0;
#X connect 31 0 1 1;
#X connect 33 0 29 0;
#X connect 33 1 35 0;
#X connect 33 2 30 0;
#X connect 33 3 3 0;
#X connect 33 4 2 0;
#X connect 35 0 34 0;
#X connect 35 1 36 0;
#X connect 37 0 45 0;
#X connect 38 0 1 0;
#X connect 39 0 26 0;
#X connect 39 1 27 0;
#X connect 40 0 31 0;
#X connect 44 0 47 0;
#X connect 45 0 47 0;
#X connect 47 0 10 0;
