#N canvas 1102 219 771 277 12;
#X text 285 3 Copyright 2019 Dan Bornstein <danfuzz@milk.com>. Licensed
AS IS and WITHOUT WARRANTY under the Apache License \, Version 2.0.
Details: <http://www.apache.org/licenses/LICENSE-2.0>, f 65;
#X text 27 28 Phase \, float in range [0..1].;
#X obj 29 49 inlet~;
#X obj 29 109 expr~ $v1 * 2 -1;
#X text 169 105 This is one of the simplest possible waveform functions:
a sawtooth scaled to have output in the range [-1..1]., f 36;
#X obj 28 200 outlet~;
#X obj 109 200 outlet~;
#X text 27 222 Stereo waveform function \, floats in range [-1..1].
;
#X connect 2 0 3 0;
#X connect 3 0 5 0;
#X connect 3 0 6 0;
