#N canvas -7 0 958 988 12;
#X obj 69 43 key;
#X obj 126 42 keyup;
#X floatatom 90 72 5 0 0 0 - - -;
#X floatatom 146 72 5 0 0 0 - - -;
#X obj 25 77 mtof;
#X floatatom 194 201 5 0 0 0 - - -;
#X obj 182 247 nbx 5 14 -1e+037 1e+037 0 0 empty empty empty 0 -8 0
10 -262144 -1 -1 0 256;
#X obj 92 157 bng 15 250 50 0 empty empty empty 17 7 0 10 -262144 -1
-1;
#X obj 135 156 bng 15 250 50 0 empty empty empty 17 7 0 10 -262144
-1 -1;
#X msg 94 197 1;
#X msg 134 198 0;
#X obj 124 277 pack 0 50;
#X text 220 44 KEYBOARD INPUT;
#X connect 0 0 7 0;
#X connect 0 0 2 0;
#X connect 0 0 4 0;
#X connect 1 0 8 0;
#X connect 1 0 3 0;
#X connect 6 0 11 1;
#X connect 7 0 9 0;
#X connect 8 0 10 0;
#X connect 9 0 11 0;
#X connect 10 0 11 0;
