#N canvas -7 0 958 988 12;
#X obj 66 131 phasor~;
#X obj 128 132 phasor~;
#X obj 283 137 tabread4~;
#X obj 196 132 phasor~;
#X obj 379 138 tabosc4~;
#N canvas -8 -8 1920 997 envelope01 0;
#X obj 397 -738 vsl 18 66 0 1 0 0 \$0-FromAFader \$0-ToAFader Attack
-7 -11 0 10 -262144 -1 -1 650 1;
#X obj 444 -738 vsl 18 66 0 1 0 0 \$0-FromDFader \$0-ToDFader Decay
-5 -11 0 10 -262144 -1 -1 1950 1;
#X obj 491 -738 vsl 18 66 0 1 0 0 \$0-FromSFader \$0-ToSFader Sustain
-12 -11 0 10 -262144 -1 -1 4225 1;
#X obj 538 -738 vsl 18 66 0 1 0 0 \$0-FromRFader \$0-ToRFader Release
-12 -11 0 10 -262144 -1 -1 2600 1;
#X obj 1704 735 samplerate~;
#X obj 1561 506 loadbang;
#X obj 1561 533 bng 15 250 50 0 empty empty empty 17 7 0 10 -262144
-1 -1;
#X obj 1698 789 *;
#X obj 1658 789 *;
#X obj 1618 789 *;
#X obj 1658 876 +;
#X obj 1684 843 +;
#X obj 1668 968 f \$0;
#X obj 1666 1012 pack f f;
#X obj 1699 930 t b f;
#X obj 1561 570 t b b b b b b b b b b;
#X obj 905 -34 table \$0-Aparam;
#X obj 908 -2 table \$0-Dparam;
#X obj 910 36 table \$0-Rparam;
#X obj 1248 941 - 1;
#X obj 1230 969 /;
#X obj 1302 860 f;
#X obj 1336 862 + 1;
#X msg 1327 828 0;
#X obj 1261 1146 tabwrite \$0-Aparam;
#X obj 1301 804 until;
#X obj 1299 734 f;
#X msg 1200 1109 1;
#X msg 1141 1111 0;
#X obj 1261 1186 tabwrite \$0-Dparam;
#X obj 1261 1226 tabwrite \$0-Rparam;
#X obj 1299 626 bng 15 250 50 0 empty empty empty 17 7 0 10 -262144
-1 -1;
#X obj 1299 663 t b b;
#X obj 1266 894 t f f f f f;
#X obj 1182 879 moses;
#X obj 1077 884 moses;
#X obj 1185 919 t b f;
#X msg 1030 1109 1;
#X msg 971 1111 0;
#X obj 1066 936 t b f;
#X msg 880 1109 1;
#X msg 821 1111 0;
#X obj 916 929 t b f;
#X obj 1272 1080 tabwrite \$0-ADRcurve;
#X text 1726 805 max sample length of A \, D and R;
#X obj 1118 971 - 1;
#X obj 1100 999 /;
#X obj 1081 965 -;
#X obj 1002 976 - 1;
#X obj 970 999 /;
#X obj 960 967 -;
#X obj 1100 1024 * -1;
#X obj 1100 1049 + 1;
#X obj 971 1049 * -1;
#X obj 971 1074 + 1;
#X msg 1666 1084 \; \$1-ADRcurve resize \$2;
#X msg 1666 1144 \; \$1-Aparam resize \$2;
#X msg 1666 1204 \; \$1-Dparam resize \$2;
#X msg 1666 1254 \; \$1-Rparam resize \$2;
#X obj 906 -73 table \$0-ADRcurve;
#X obj 1386 933 sel;
#X obj 1506 890 - 1;
#X floatatom 1295 984 13 0 0 0 - - -;
#X floatatom 1295 1024 13 0 0 0 - - -;
#X floatatom 1295 1054 13 0 0 0 - - -;
#X obj 409 553 vline~;
#X obj 323 360 tgl 15 0 empty empty empty 17 7 0 10 -262144 -1 -1 0
1;
#X text 346 333 Gate In;
#X obj 513 765 tabread~ \$0-ADRcurve;
#X obj 513 795 tabread~ \$0-Aparam;
#X obj 513 825 tabread~ \$0-Dparam;
#X obj 514 858 tabread~ \$0-Rparam;
#X obj 673 553 timer;
#X obj 1568 650 / 1000;
#X obj 1611 689 / 1000;
#X obj 1652 722 / 1000;
#X obj 341 372 sel 0 1;
#X obj 836 567 + 0;
#X obj 698 604 >;
#X obj 696 669 list;
#X obj 669 640 f;
#X obj 624 585 t b l;
#X obj 677 701 route 0 1;
#X obj 1740 838 s \$0-maxsampleA;
#X obj 1850 838 s \$0-maxsampleD;
#X obj 1960 838 s \$0-maxsampleR;
#X obj 437 378 r \$0-maxsampleA;
#X obj 558 369 r \$0-maxsampleD;
#X obj 836 415 r \$0-maxsampleR;
#X obj 401 416 f;
#X obj 454 440 +;
#X obj 489 416 t b f;
#X obj 402 373 - 1;
#X obj 1465 678 s \$0-rangeA;
#X obj 1511 714 s \$0-rangeD;
#X obj 1568 745 s \$0-rangeR;
#X obj 739 390 *;
#X obj 756 363 r \$0-rangeR;
#X obj 593 301 r \$0-rangeD;
#X obj 431 298 r \$0-rangeA;
#X obj 572 322 *;
#X obj 410 319 *;
#X obj 246 962 *~;
#X obj 315 927 -;
#X obj 278 946 *~;
#X obj 249 999 +~;
#X obj 329 892 t b f f;
#X obj 1744 908 s \$0-maxsampleADR;
#X obj 329 1016 *~;
#X obj 292 753 *~;
#X obj 368 702 -;
#X obj 333 744 *~;
#X obj 295 790 +~;
#X obj 371 788 *~;
#X floatatom 425 719 5 0 0 0 - - -;
#X msg 415 509 0 0 \, \$1 \$2 \, \$3 \$4 \$2;
#X obj 287 1155 *~;
#X obj 326 1136 *~;
#X obj 604 489 pack f f f;
#X obj 601 450 f;
#X obj 760 458 +;
#X obj 786 430 t b f;
#X text 1685 890 Max sample legnth of A+D+R;
#X obj 271 860 spigot;
#X msg 305 831 0;
#X msg 342 835 1;
#X obj 394 1103 spigot;
#X msg 443 1060 0;
#X msg 497 1041 1;
#X obj 514 898 snapshot~;
#X obj 743 662 sel 0;
#X obj 729 629 t f f;
#X obj 323 426 t b b b b;
#X obj 399 1072 f;
#X obj 327 864 spigot;
#X msg 395 831 0;
#X msg 432 835 1;
#X obj 285 846 f;
#X obj 282 810 t b b;
#X obj 352 812 f;
#X obj 806 525 f;
#X obj 873 512 f;
#X obj 415 484 pack f f f f;
#X floatatom 334 960 5 0 0 0 - - -;
#X obj 110 874 snapshot~;
#X obj 178 1079 +~ 0;
#X obj 670 896 t b b b;
#X msg 592 940 0;
#X obj 850 653 moses;
#X obj 848 629 f, f 2;
#X msg 837 711 0;
#X msg 912 715 1;
#X obj 837 688 t b f;
#X obj 913 687 t b b;
#X obj 957 717 f;
#X obj 865 591 t b f f;
#X obj 839 538 t b f;
#X obj 859 746 f;
#X obj 845 796 route 0 1;
#X obj 878 773 pack;
#X obj 948 769 r \$0-maxsampleA;
#X obj 1059 768 r \$0-maxsampleD;
#X obj 981 823 +;
#X obj 995 800 t b f;
#X obj 843 837 pack f f f;
#X msg 612 525 \$1 0 \, \$2 \$3;
#X msg 789 875 \$2 0 0 \, \$3 \$1;
#X obj 914 874 pack f f f;
#X obj 1176 775 r \$0-maxsampleR;
#X obj 1121 823 +;
#X obj 1126 790 t b f;
#X msg 898 895 \$2 0 0 \, \$3 \$1;
#X msg 308 315 0;
#X msg 348 314 1;
#X obj 535 -605 tgl 15 0 \$0-FromTrigger \$0-ToTrigger Trigger-Mode
-25 -8 0 10 -262144 -1 -1 0 1;
#X obj 222 356 pack;
#X msg 221 387 \$2 \$1;
#X obj 221 409 route 0 1;
#X obj 228 454 t b b b b;
#X obj 42 430 f;
#X obj 94 440 +;
#X obj 98 408 t b f;
#X obj 159 354 t b f;
#X obj 60 606 spigot;
#X msg 91 564 0;
#X msg 124 564 1;
#X obj 605 416 t b b b;
#X obj 47 345 sel 0 1;
#X msg 47 367 0;
#X msg 81 367 1;
#X obj 221 433 route 0 1;
#X obj 156 383 +;
#X obj 52 473 pack f f f f f f f;
#X msg 52 496 0 0 \, \$1 \$2 \, \$3 \$4 \$2 \, \$7 \$5 \$6;
#X obj 416 -17 bng 15 250 50 0 empty empty empty 17 7 0 10 -262144
-1 -1;
#N canvas 831 200 450 364 curve 0;
#X obj 157 168 sig~;
#X obj 345 -5 inlet k;
#X obj 249 -5 inlet~ ramp;
#X obj 169 275 outlet~ curve;
#X obj 157 125 /;
#X obj 153 -7 loadbang;
#X msg 153 49 1;
#X obj 175 72 -;
#X obj 157 147 - 1;
#X obj 157 192 pow~;
#X obj 157 214 -~ 1;
#X obj 218 177 - 1;
#X obj 168 253 /~;
#X obj 212 216 sig~;
#X obj 193 45 t b f;
#X obj 153 28 bng 15 250 50 0 empty empty empty 17 7 0 10 -262144 -1
-1;
#X obj 173 95 t b f;
#X obj 289 31 * -1;
#X obj 289 58 + 1;
#X obj 289 110 sel 0.5;
#X obj 289 87 clip 0.01 0.99;
#X obj 289 225 sqrt;
#X obj 289 181 moses 0;
#X obj 289 135 - 0.5;
#X obj 289 157 * 2;
#X obj 289 203 * -1;
#X obj 289 247 * -1;
#X obj 289 269 + 1;
#X obj 289 291 / 2;
#X obj 329 225 sqrt;
#X connect 0 0 9 0;
#X connect 1 0 17 0;
#X connect 2 0 9 1;
#X connect 4 0 8 0;
#X connect 5 0 15 0;
#X connect 6 0 4 0;
#X connect 6 0 7 0;
#X connect 7 0 16 0;
#X connect 8 0 0 0;
#X connect 8 0 11 0;
#X connect 9 0 10 0;
#X connect 10 0 12 0;
#X connect 11 0 13 0;
#X connect 12 0 3 0;
#X connect 13 0 12 1;
#X connect 14 0 7 0;
#X connect 14 1 7 1;
#X connect 15 0 6 0;
#X connect 16 0 4 0;
#X connect 16 1 4 1;
#X connect 17 0 18 0;
#X connect 18 0 20 0;
#X connect 19 1 23 0;
#X connect 20 0 19 0;
#X connect 21 0 26 0;
#X connect 22 0 25 0;
#X connect 22 1 29 0;
#X connect 23 0 24 0;
#X connect 24 0 22 0;
#X connect 25 0 21 0;
#X connect 26 0 27 0;
#X connect 27 0 28 0;
#X connect 28 0 14 0;
#X connect 29 0 27 0;
#X restore 465 1379 pd curve;
#X obj 552 -19 bng 15 250 50 0 empty empty empty 17 7 0 10 -262144
-1 -1;
#N canvas 738 205 450 364 curve 0;
#X obj 157 168 sig~;
#X obj 345 -5 inlet k;
#X obj 249 -5 inlet~ ramp;
#X obj 169 275 outlet~ curve;
#X obj 157 125 /;
#X obj 153 -7 loadbang;
#X msg 153 49 1;
#X obj 175 72 -;
#X obj 157 147 - 1;
#X obj 157 192 pow~;
#X obj 157 214 -~ 1;
#X obj 218 177 - 1;
#X obj 168 253 /~;
#X obj 212 216 sig~;
#X obj 193 45 t b f;
#X obj 153 28 bng 15 250 50 0 empty empty empty 17 7 0 10 -262144 -1
-1;
#X obj 173 95 t b f;
#X obj 289 31 * -1;
#X obj 289 58 + 1;
#X obj 289 116 sel 0.5;
#X obj 289 231 sqrt;
#X obj 289 187 moses 0;
#X obj 289 141 - 0.5;
#X obj 289 163 * 2;
#X obj 289 209 * -1;
#X obj 289 253 * -1;
#X obj 289 275 + 1;
#X obj 289 297 / 2;
#X obj 329 231 sqrt;
#X obj 289 87 clip 0.01 0.99;
#X connect 0 0 9 0;
#X connect 1 0 17 0;
#X connect 2 0 9 1;
#X connect 4 0 8 0;
#X connect 5 0 15 0;
#X connect 6 0 4 0;
#X connect 6 0 7 0;
#X connect 7 0 16 0;
#X connect 8 0 0 0;
#X connect 8 0 11 0;
#X connect 9 0 10 0;
#X connect 10 0 12 0;
#X connect 11 0 13 0;
#X connect 12 0 3 0;
#X connect 13 0 12 1;
#X connect 14 0 7 0;
#X connect 14 1 7 1;
#X connect 15 0 6 0;
#X connect 16 0 4 0;
#X connect 16 1 4 1;
#X connect 17 0 18 0;
#X connect 18 0 29 0;
#X connect 19 1 22 0;
#X connect 20 0 25 0;
#X connect 21 0 24 0;
#X connect 21 1 28 0;
#X connect 22 0 23 0;
#X connect 23 0 21 0;
#X connect 24 0 20 0;
#X connect 25 0 26 0;
#X connect 26 0 27 0;
#X connect 27 0 14 0;
#X connect 28 0 26 0;
#X connect 29 0 19 0;
#X restore 625 1379 pd curve;
#X obj 703 -20 bng 15 250 50 0 empty empty empty 17 7 0 10 -262144
-1 -1;
#X text 728 3 RLS curve;
#X text 586 3 DCY curve;
#X text 444 7 ATK curve;
#X obj 527 -201 loadbang;
#X msg 500 -177 1;
#X obj 829 -125 f;
#X obj 951 -122 f;
#X obj 918 -154 t f f;
#X obj 878 -98 sel 1;
#X obj 827 -161 t b f f;
#X obj 785 -234 + 0.01;
#X obj 965 -227 - 0.01;
#X obj 878 -120 >;
#X obj 268 175 inlet gate;
#X obj 298 1781 outlet~ env;
#X obj 326 1469 inlet velocity;
#X obj 535 -640 tgl 15 0 \$0-FromLegato \$0-ToLegato Legato -10 -8
0 10 -262144 -1 -1 0 1;
#X obj 77 79 sel 0 1;
#X msg 77 101 0;
#X msg 111 121 1;
#X obj 84 149 pack;
#X msg 84 174 \$2 \$1;
#X obj 84 196 route 0 1;
#X obj 150 227 change;
#X obj 161 189 f;
#X obj 160 115 t b f;
#X floatatom 75 260 5 0 0 0 - - -;
#X obj 563 -45 loadbang;
#X obj 326 1495 / 127;
#X obj 326 1636 vline~;
#X msg 326 1606 \$1 1;
#X obj 324 1552 spigot;
#X obj 397 -578 tgl 15 0 \$0-FromVelocity \$0-ToVelocity Velocity-sensitive
17 7 0 10 -262144 -1 -1 0 1;
#X obj 539 1380 loadbang;
#X msg 539 1405 0;
#X obj 397 1547 sel 0;
#X msg 392 1570 1;
#X msg 436 1570 0;
#X obj 687 1635 /;
#X obj 683 1503 loadbang;
#X msg 683 1559 1;
#X obj 705 1582 -;
#X obj 687 1657 - 1;
#X obj 748 1687 - 1;
#X obj 723 1555 t b f;
#X obj 683 1538 bng 15 250 50 0 empty empty empty 17 7 0 10 -262144
-1 -1;
#X obj 703 1605 t b f;
#X obj 687 1702 pow;
#X obj 683 1679 t b f;
#X obj 698 1763 /;
#X obj 687 1724 - 1;
#X obj 930 140 bng 15 250 50 0 empty empty empty 17 7 0 10 -262144
-1 -1;
#X obj 723 1721 t b f;
#X obj 828 1510 * -1;
#X obj 828 1537 + 1;
#N canvas 738 205 450 364 curve 0;
#X obj 157 168 sig~;
#X obj 345 -5 inlet k;
#X obj 249 -5 inlet~ ramp;
#X obj 169 275 outlet~ curve;
#X obj 157 125 /;
#X obj 153 -7 loadbang;
#X msg 153 49 1;
#X obj 175 72 -;
#X obj 157 147 - 1;
#X obj 157 192 pow~;
#X obj 157 214 -~ 1;
#X obj 218 177 - 1;
#X obj 168 253 /~;
#X obj 212 216 sig~;
#X obj 193 45 t b f;
#X obj 153 28 bng 15 250 50 0 empty empty empty 17 7 0 10 -262144 -1
-1;
#X obj 173 95 t b f;
#X obj 289 31 * -1;
#X obj 289 58 + 1;
#X obj 289 110 sel 0.5;
#X obj 289 225 sqrt;
#X obj 289 181 moses 0;
#X obj 289 135 - 0.5;
#X obj 289 157 * 2;
#X obj 289 203 * -1;
#X obj 289 247 * -1;
#X obj 289 269 + 1;
#X obj 289 291 / 2;
#X obj 329 225 sqrt;
#X obj 289 87 clip 0.01 0.99;
#X connect 0 0 9 0;
#X connect 1 0 17 0;
#X connect 2 0 9 1;
#X connect 4 0 8 0;
#X connect 5 0 15 0;
#X connect 6 0 4 0;
#X connect 6 0 7 0;
#X connect 7 0 16 0;
#X connect 8 0 0 0;
#X connect 8 0 11 0;
#X connect 9 0 10 0;
#X connect 10 0 12 0;
#X connect 11 0 13 0;
#X connect 12 0 3 0;
#X connect 13 0 12 1;
#X connect 14 0 7 0;
#X connect 14 1 7 1;
#X connect 15 0 6 0;
#X connect 16 0 4 0;
#X connect 16 1 4 1;
#X connect 17 0 18 0;
#X connect 18 0 29 0;
#X connect 19 1 22 0;
#X connect 20 0 25 0;
#X connect 21 0 24 0;
#X connect 21 1 28 0;
#X connect 22 0 23 0;
#X connect 23 0 21 0;
#X connect 24 0 20 0;
#X connect 25 0 26 0;
#X connect 26 0 27 0;
#X connect 27 0 14 0;
#X connect 28 0 26 0;
#X connect 29 0 19 0;
#X restore 324 1379 pd curve;
#N canvas 738 205 450 364 curve 0;
#X obj 157 168 sig~;
#X obj 345 -5 inlet k;
#X obj 249 -5 inlet~ ramp;
#X obj 169 275 outlet~ curve;
#X obj 157 125 /;
#X obj 153 -7 loadbang;
#X msg 153 49 1;
#X obj 175 72 -;
#X obj 157 147 - 1;
#X obj 157 192 pow~;
#X obj 157 214 -~ 1;
#X obj 218 177 - 1;
#X obj 168 253 /~;
#X obj 212 216 sig~;
#X obj 193 45 t b f;
#X obj 153 28 bng 15 250 50 0 empty empty empty 17 7 0 10 -262144 -1
-1;
#X obj 173 95 t b f;
#X obj 289 31 * -1;
#X obj 289 58 + 1;
#X obj 289 87 clip 0.02 0.98;
#X connect 0 0 9 0;
#X connect 1 0 17 0;
#X connect 2 0 9 1;
#X connect 4 0 8 0;
#X connect 5 0 15 0;
#X connect 6 0 4 0;
#X connect 6 0 7 0;
#X connect 7 0 16 0;
#X connect 8 0 0 0;
#X connect 8 0 11 0;
#X connect 9 0 10 0;
#X connect 10 0 12 0;
#X connect 11 0 13 0;
#X connect 12 0 3 0;
#X connect 13 0 12 1;
#X connect 14 0 7 0;
#X connect 14 1 7 1;
#X connect 15 0 6 0;
#X connect 16 0 4 0;
#X connect 16 1 4 1;
#X connect 17 0 18 0;
#X connect 18 0 19 0;
#X connect 19 0 14 0;
#X restore 465 1379 pd curve;
#X obj 594 -738 vsl 20 187 0 1 0 0 \$0-FromAmountFader \$0-ToAmountFader
AMOUNT -10 -11 0 11 -262144 -1 -1 18600 1;
#X obj 377 1733 line~;
#X msg 378 1706 \$1 5;
#X obj 780 76 loadbang;
#X msg 780 98 1;
#X obj 930 108 loadbang;
#X msg 1653 625 4000;
#X msg 1667 663 3000;
#X msg 1691 703 5000;
#X obj 204 -68 loadbang;
#X msg 703 3 0.1;
#X msg 552 4 0.1, f 4;
#X msg 416 6 0.9;
#X msg 930 163 0.6;
#X floatatom 408 1146 5 0 0 0 - - -;
#X obj 828 1590 sel 0.5;
#X obj 828 1705 sqrt;
#X obj 828 1661 moses 0;
#X obj 828 1615 - 0.5;
#X obj 828 1637 * 2;
#X obj 828 1683 * -1;
#X obj 828 1727 * -1;
#X obj 828 1749 + 1;
#X obj 828 1771 / 2;
#X obj 868 1705 sqrt;
#X obj 828 1565 clip 0.01 0.99;
#N canvas 0 50 450 300 curvepot 0;
#X obj 273 126 /;
#X obj 273 19 loadbang;
#X msg 273 62 1;
#X obj 295 85 -;
#X obj 273 147 - 1;
#X obj 334 175 - 1;
#X obj 305 62 t b f;
#X obj 273 41 bng 15 250 50 0 empty empty empty 17 7 0 10 -262144 -1
-1;
#X obj 295 106 t b f;
#X obj 273 190 pow;
#X obj 269 167 t b f;
#X obj 284 237 /;
#X obj 273 212 - 1;
#X obj 309 209 t b f;
#X obj 201 129 inlet pot;
#X obj 345 27 inlet k;
#X obj 284 264 outlet;
#X connect 0 0 4 0;
#X connect 1 0 7 0;
#X connect 2 0 0 0;
#X connect 2 0 3 0;
#X connect 3 0 8 0;
#X connect 4 0 5 0;
#X connect 4 0 9 0;
#X connect 5 0 13 0;
#X connect 6 0 3 0;
#X connect 6 1 3 1;
#X connect 7 0 2 0;
#X connect 8 0 0 0;
#X connect 8 1 0 1;
#X connect 9 0 12 0;
#X connect 10 0 9 0;
#X connect 10 1 9 1;
#X connect 11 0 16 0;
#X connect 12 0 11 0;
#X connect 13 0 11 0;
#X connect 13 1 11 1;
#X connect 14 0 10 0;
#X connect 15 0 6 0;
#X restore 1137 210 pd curvepot;
#N canvas 0 50 450 300 curvepot 0;
#X obj 273 126 /;
#X obj 273 19 loadbang;
#X msg 273 62 1;
#X obj 295 85 -;
#X obj 273 147 - 1;
#X obj 334 175 - 1;
#X obj 305 62 t b f;
#X obj 273 41 bng 15 250 50 0 empty empty empty 17 7 0 10 -262144 -1
-1;
#X obj 295 106 t b f;
#X obj 273 190 pow;
#X obj 269 167 t b f;
#X obj 284 237 /;
#X obj 273 212 - 1;
#X obj 309 209 t b f;
#X obj 201 129 inlet pot;
#X obj 345 27 inlet k;
#X obj 284 264 outlet;
#X connect 0 0 4 0;
#X connect 1 0 7 0;
#X connect 2 0 0 0;
#X connect 2 0 3 0;
#X connect 3 0 8 0;
#X connect 4 0 5 0;
#X connect 4 0 9 0;
#X connect 5 0 13 0;
#X connect 6 0 3 0;
#X connect 6 1 3 1;
#X connect 7 0 2 0;
#X connect 8 0 0 0;
#X connect 8 1 0 1;
#X connect 9 0 12 0;
#X connect 10 0 9 0;
#X connect 10 1 9 1;
#X connect 11 0 16 0;
#X connect 12 0 11 0;
#X connect 13 0 11 0;
#X connect 13 1 11 1;
#X connect 14 0 10 0;
#X connect 15 0 6 0;
#X restore 1061 436 pd curvepot;
#N canvas 0 50 450 300 curvepot 0;
#X obj 273 126 /;
#X obj 273 19 loadbang;
#X msg 273 62 1;
#X obj 295 85 -;
#X obj 273 147 - 1;
#X obj 334 175 - 1;
#X obj 305 62 t b f;
#X obj 273 41 bng 15 250 50 0 empty empty empty 17 7 0 10 -262144 -1
-1;
#X obj 295 106 t b f;
#X obj 273 190 pow;
#X obj 269 167 t b f;
#X obj 284 237 /;
#X obj 273 212 - 1;
#X obj 309 209 t b f;
#X obj 201 129 inlet pot;
#X obj 345 27 inlet k;
#X obj 284 264 outlet;
#X connect 0 0 4 0;
#X connect 1 0 7 0;
#X connect 2 0 0 0;
#X connect 2 0 3 0;
#X connect 3 0 8 0;
#X connect 4 0 5 0;
#X connect 4 0 9 0;
#X connect 5 0 13 0;
#X connect 6 0 3 0;
#X connect 6 1 3 1;
#X connect 7 0 2 0;
#X connect 8 0 0 0;
#X connect 8 1 0 1;
#X connect 9 0 12 0;
#X connect 10 0 9 0;
#X connect 10 1 9 1;
#X connect 11 0 16 0;
#X connect 12 0 11 0;
#X connect 13 0 11 0;
#X connect 13 1 11 1;
#X connect 14 0 10 0;
#X connect 15 0 6 0;
#X restore 1069 483 pd curvepot;
#N canvas 0 50 450 300 curvepot 0;
#X obj 273 126 /;
#X obj 273 19 loadbang;
#X msg 273 62 1;
#X obj 295 85 -;
#X obj 273 147 - 1;
#X obj 334 175 - 1;
#X obj 305 62 t b f;
#X obj 273 41 bng 15 250 50 0 empty empty empty 17 7 0 10 -262144 -1
-1;
#X obj 295 106 t b f;
#X obj 273 190 pow;
#X obj 269 167 t b f;
#X obj 284 237 /;
#X obj 273 212 - 1;
#X obj 309 209 t b f;
#X obj 201 129 inlet pot;
#X obj 345 27 inlet k;
#X obj 284 264 outlet;
#X connect 0 0 4 0;
#X connect 1 0 7 0;
#X connect 2 0 0 0;
#X connect 2 0 3 0;
#X connect 3 0 8 0;
#X connect 4 0 5 0;
#X connect 4 0 9 0;
#X connect 5 0 13 0;
#X connect 6 0 3 0;
#X connect 6 1 3 1;
#X connect 7 0 2 0;
#X connect 8 0 0 0;
#X connect 8 1 0 1;
#X connect 9 0 12 0;
#X connect 10 0 9 0;
#X connect 10 1 9 1;
#X connect 11 0 16 0;
#X connect 12 0 11 0;
#X connect 13 0 11 0;
#X connect 13 1 11 1;
#X connect 14 0 10 0;
#X connect 15 0 6 0;
#X restore 1070 537 pd curvepot;
#N canvas 0 50 450 300 curvepot 0;
#X obj 273 126 /;
#X obj 273 19 loadbang;
#X msg 273 62 1;
#X obj 295 85 -;
#X obj 273 147 - 1;
#X obj 334 175 - 1;
#X obj 305 62 t b f;
#X obj 273 41 bng 15 250 50 0 empty empty empty 17 7 0 10 -262144 -1
-1;
#X obj 295 106 t b f;
#X obj 273 190 pow;
#X obj 269 167 t b f;
#X obj 284 237 /;
#X obj 273 212 - 1;
#X obj 309 209 t b f;
#X obj 201 129 inlet pot;
#X obj 345 27 inlet k;
#X obj 284 264 outlet;
#X connect 0 0 4 0;
#X connect 1 0 7 0;
#X connect 2 0 0 0;
#X connect 2 0 3 0;
#X connect 3 0 8 0;
#X connect 4 0 5 0;
#X connect 4 0 9 0;
#X connect 5 0 13 0;
#X connect 6 0 3 0;
#X connect 6 1 3 1;
#X connect 7 0 2 0;
#X connect 8 0 0 0;
#X connect 8 1 0 1;
#X connect 9 0 12 0;
#X connect 10 0 9 0;
#X connect 10 1 9 1;
#X connect 11 0 16 0;
#X connect 12 0 11 0;
#X connect 13 0 11 0;
#X connect 13 1 11 1;
#X connect 14 0 10 0;
#X connect 15 0 6 0;
#X restore 1135 275 pd curvepot;
#N canvas 0 50 450 300 curvepot 0;
#X obj 273 126 /;
#X obj 273 19 loadbang;
#X msg 273 62 1;
#X obj 295 85 -;
#X obj 273 147 - 1;
#X obj 334 175 - 1;
#X obj 305 62 t b f;
#X obj 273 41 bng 15 250 50 0 empty empty empty 17 7 0 10 -262144 -1
-1;
#X obj 295 106 t b f;
#X obj 273 190 pow;
#X obj 269 167 t b f;
#X obj 284 237 /;
#X obj 273 212 - 1;
#X obj 309 209 t b f;
#X obj 201 129 inlet pot;
#X obj 345 27 inlet k;
#X obj 284 264 outlet;
#X connect 0 0 4 0;
#X connect 1 0 7 0;
#X connect 2 0 0 0;
#X connect 2 0 3 0;
#X connect 3 0 8 0;
#X connect 4 0 5 0;
#X connect 4 0 9 0;
#X connect 5 0 13 0;
#X connect 6 0 3 0;
#X connect 6 1 3 1;
#X connect 7 0 2 0;
#X connect 8 0 0 0;
#X connect 8 1 0 1;
#X connect 9 0 12 0;
#X connect 10 0 9 0;
#X connect 10 1 9 1;
#X connect 11 0 16 0;
#X connect 12 0 11 0;
#X connect 13 0 11 0;
#X connect 13 1 11 1;
#X connect 14 0 10 0;
#X connect 15 0 6 0;
#X restore 1139 322 pd curvepot;
#X obj 1334 183 loadbang;
#X obj 996 344 loadbang;
#X floatatom 364 263 5 0 0 0 - - -;
#X msg 1334 206 0.9;
#X msg 586 -178 0.65;
#X msg 996 367 0.998;
#X obj 1052 400 r \$0-FromAFader;
#X obj 1035 457 r \$0-FromDFader;
#X obj 1139 302 r \$0-FromSFader;
#X obj 1046 508 r \$0-FromRFader;
#X obj 377 -51 s \$0-ToAFader;
#X obj 515 -74 s \$0-ToDFader;
#X obj 566 -148 s \$0-ToSFader;
#X obj 617 -100 s \$0-ToRFader;
#X obj 913 -185 r \$0-FromSFader;
#X obj 985 -144 s \$0-ToSFader;
#X obj 400 -633 hsl 102 15 0 1 0 0 \$0-FromAcurve \$0-ToAcurve A-Curve:79
3 8 0 10 -262144 -1 -1 9090 1;
#X obj 400 -618 hsl 102 15 0 1 0 0 \$0-FromDcurve \$0-ToDcurve D-Curve:-80
3 8 0 10 -262144 -1 -1 1010 1;
#X obj 400 -603 hsl 102 15 0 1 0 0 \$0-FromRcurve \$0-ToRcurve R-Curve:-80
3 8 0 10 -262144 -1 -1 1010 1;
#X obj 387 1316 r \$0-FromAcurve;
#X obj 426 36 s \$0-ToAcurve;
#X obj 546 36 s \$0-ToDcurve;
#X obj 666 36 s \$0-ToRcurve;
#X obj 657 1332 r \$0-FromRcurve;
#X obj 830 -212 r \$0-FromPeakFader;
#X obj 1135 255 r \$0-FromPeakFader;
#X obj 764 -185 s \$0-ToPeakFader;
#X obj 467 -102 s \$0-ToPeakFader;
#X text 1636 607 Atk range in ms;
#X text 1644 646 Dcy range in ms;
#X text 1669 684 Rls range in ms;
#X obj 1138 114 r \$0-FromAmountFader;
#X obj 765 123 s \$0-ToAmountFader;
#X text 1037 366 A D and R faders EXPness;
#X obj 400 -563 hsl 102 15 0 1 0 0 \$0-FromCompFader \$0-ToCompFader
Compress:20 3 8 0 10 -262144 -1 -1 6060 1;
#X obj 846 1453 r \$0-FromCompFader;
#X obj 400 -658 hsl 102 15 0 1 0 0 \$0-FromPeakFader \$0-ToPeakFader
Peak:100 3 8 0 10 -262144 -1 -1 10100 1;
#X obj 926 190 s \$0-ToCompFader;
#X obj 195 49 r \$0-FromLegato;
#X obj 208 12 s \$0-ToLegato;
#X obj 23 317 r \$0-FromTrigger;
#X obj 593 174 s \$0-ToTrigger;
#X obj 641 136 loadbang;
#X msg 596 155 0;
#X obj 438 1443 r \$0-FromVelocity;
#X text 387 -779 Gate;
#X text 569 -779 Velocity;
#X text 391 -537 Env.;
#X obj 1346 295 s \$0-ToPeakFader;
#X msg 1401 362 label Peak:\$1;
#X obj 1287 352 * 100;
#X obj 1288 375 int;
#X obj 401 1253 int;
#X msg 399 1273 label A-Curve:\$1;
#X obj 403 1207 - 0.5;
#X obj 400 1230 * 200;
#X obj 397 1294 s \$0-ToAcurve;
#X obj 531 1253 int;
#X obj 533 1207 - 0.5;
#X obj 530 1230 * 200;
#X obj 517 1316 r \$0-FromDcurve;
#X msg 529 1273 label D-Curve:\$1;
#X obj 527 1294 s \$0-ToDcurve;
#X obj 671 1263 int;
#X obj 673 1217 - 0.5;
#X obj 670 1240 * 200;
#X msg 669 1283 label R-Curve:\$1;
#X obj 667 1304 s \$0-ToRcurve;
#X obj 963 1524 int;
#X obj 965 1478 - 0.5;
#X obj 962 1501 * 200;
#X msg 961 1545 label Compress:\$1;
#X obj 959 1565 s \$0-ToCompFader;
#X msg 64 -36 color 1 1 1;
#X msg 85 -6 color 0 22 22;
#X obj 297 1667 *~;
#X obj 1138 179 moses 0;
#X obj 1138 136 - 0.5;
#X obj 1138 158 * 2;
#X obj 1280 156 * -1;
#X obj 1280 178 + 1;
#N canvas 0 50 450 300 curvepot 0;
#X obj 273 126 /;
#X obj 273 19 loadbang;
#X msg 273 62 1;
#X obj 295 85 -;
#X obj 273 147 - 1;
#X obj 334 175 - 1;
#X obj 305 62 t b f;
#X obj 273 41 bng 15 250 50 0 empty empty empty 17 7 0 10 -262144 -1
-1;
#X obj 295 106 t b f;
#X obj 273 190 pow;
#X obj 269 167 t b f;
#X obj 284 237 /;
#X obj 273 212 - 1;
#X obj 309 209 t b f;
#X obj 201 129 inlet pot;
#X obj 345 27 inlet k;
#X obj 284 264 outlet;
#X connect 0 0 4 0;
#X connect 1 0 7 0;
#X connect 2 0 0 0;
#X connect 2 0 3 0;
#X connect 3 0 8 0;
#X connect 4 0 5 0;
#X connect 4 0 9 0;
#X connect 5 0 13 0;
#X connect 6 0 3 0;
#X connect 6 1 3 1;
#X connect 7 0 2 0;
#X connect 8 0 0 0;
#X connect 8 1 0 1;
#X connect 9 0 12 0;
#X connect 10 0 9 0;
#X connect 10 1 9 1;
#X connect 11 0 16 0;
#X connect 12 0 11 0;
#X connect 13 0 11 0;
#X connect 13 1 11 1;
#X connect 14 0 10 0;
#X connect 15 0 6 0;
#X restore 1164 230 pd curvepot;
#X obj 597 -548 bng 15 250 50 0 \$0-FromReset \$0-ToReset empty 17
7 0 10 -262144 -1 -1;
#X obj 1288 37 r \$0-FromReset;
#X msg 1288 75 0.5;
#X obj 1288 114 s \$0-ToAmountFader;
#X text 581 -653 0;
#X text 582 -744 1;
#X text 575 -562 -1;
#X msg 204 -46 0;
#X msg 391 -81 0.1;
#X msg 545 -129 0.3;
#X msg 605 -129 0.4;
#X text 681 489 rsamstart \, rsampend \, rtime;
#X obj 770 726 t b b;
#X obj 67 1086 t b b f f b;
#X obj 688 1180 spigot;
#X msg 741 1157 1;
#X obj 630 1137 f;
#X obj 617 1054 bang~;
#X msg 761 1193 0;
#N canvas 0 50 450 300 schedulebangbetweentwoaudioblocks 0;
#X obj 142 155 spigot;
#X obj 142 126 bang~;
#X msg 200 109 1;
#X msg 212 142 0;
#X obj 229 68 inlet;
#X obj 142 177 t b b;
#X obj 196 77 bng 15 250 50 0 empty empty empty 17 7 0 10 -262144 -1
-1;
#X obj 142 204 outlet;
#X connect 0 0 5 0;
#X connect 1 0 0 0;
#X connect 2 0 0 1;
#X connect 3 0 0 1;
#X connect 4 0 2 0;
#X connect 5 0 7 0;
#X connect 5 1 3 0;
#X connect 6 0 2 0;
#X restore 77 726 pd schedulebangbetweentwoaudioblocks;
#N canvas 0 50 450 300 schedulebangbetweentwoaudioblocks 0;
#X obj 142 155 spigot;
#X obj 142 126 bang~;
#X msg 200 109 1;
#X msg 212 142 0;
#X obj 229 68 inlet;
#X obj 142 177 t b b;
#X obj 196 77 bng 15 250 50 0 empty empty empty 17 7 0 10 -262144 -1
-1;
#X obj 142 204 outlet;
#X connect 0 0 5 0;
#X connect 1 0 0 0;
#X connect 2 0 0 1;
#X connect 3 0 0 1;
#X connect 4 0 2 0;
#X connect 5 0 7 0;
#X connect 5 1 3 0;
#X connect 6 0 2 0;
#X restore 640 924 pd schedulebangbetweentwoaudioblocks;
#X obj 952 794 - 1;
#X obj 969 849 + 1;
#X obj 606 997 t b f b;
#X obj -77 714 snapshot~;
#X obj -120 926 t b b f f b;
#N canvas 0 50 450 300 schedulebangbetweentwoaudioblocks 0;
#X obj 142 155 spigot;
#X obj 142 126 bang~;
#X msg 200 109 1;
#X msg 212 142 0;
#X obj 229 68 inlet;
#X obj 142 177 t b b;
#X obj 196 77 bng 15 250 50 0 empty empty empty 17 7 0 10 -262144 -1
-1;
#X obj 142 204 outlet;
#X connect 0 0 5 0;
#X connect 1 0 0 0;
#X connect 2 0 0 1;
#X connect 3 0 0 1;
#X connect 4 0 2 0;
#X connect 5 0 7 0;
#X connect 5 1 3 0;
#X connect 6 0 2 0;
#X restore -140 846 pd schedulebangbetweentwoaudioblocks;
#X obj -111 791 t b f;
#X obj -123 875 f;
#X text 692 -526 Same for gate 0 \, before going to 0;
#X text 692 -578 When gate 1 is received \, it waits for the end of
the block to start the Attack phase (64 samples max by default 1 \,
5ms(ish));
#X text 692 -634 The transition between Attack and Decay is sample
accurate \, as well as the transition between Decay and Release in
Trigger-Mode;
#X text 695 -933 Legato mode ignores a gate 1 in if the last gate 1
in hasn't received a gate 0 to finish it yet.;
#X text 697 -822 Trigger-Mode ignores all gate 0 A gate 1 makes it
go through the cycle Attack+Decay+Release;
#X text 701 -1060 Gate inlet recieves 1 for note on and 0 for note
off;
#X text 701 -965 Enveloppe outlet is audio signal type;
#X text 1361 205 peak and sustain faders EXPness;
#X obj 1089 233 * -1;
#X obj 1087 202 * -1;
#X text 691 -489 A-Curve D-Curve R-Curve and Compress faders set how
exponential (negative) or logarythmic (positive) the curves are. The
center position (0 \, linear) is ignored \, set it on +1 or -1 if you
want (quasi) linear;
#X text 699 -701 if a gate 0 occures before the attack and decay are
finished \, it will go to 0 choosing the fastest time between Decay
and Release with the according curve;
#X text 700 -885 I should program a Staccato mode that would start
every attack from 0 (regardless of the enveloppe value when it recieves
the gate 1);
#X text 700 -1032 Velocity inlet recieves a float between 0 and 127
\, it can act as an internal amount parameter. the Compress fader is
here to set the response curve;
#X text 690 -364 The bang button sets the Amount to 0;
#X text 696 -778 Setting the Peak value wont affect the sustain \,
unless the peak value goes below the sustain value \, then the sustain
fader drops down accordingly. It also works the other way around!;
#X text 691 -416 You can set the A D and R fader range in ms in the
patch \, as well as some faders exponential behaviour;
#X text 696 -319 Oh and it's Vanilla compatible! :);
#X obj 423 1501 t f f f;
#X obj 299 1718 *~;
#X obj 377 1436 loadbang;
#X connect 4 0 7 1;
#X connect 4 0 8 1;
#X connect 4 0 9 1;
#X connect 5 0 6 0;
#X connect 6 0 15 0;
#X connect 7 0 48 0;
#X connect 7 0 10 0;
#X connect 7 0 85 0;
#X connect 8 0 45 0;
#X connect 8 0 11 0;
#X connect 8 0 84 0;
#X connect 9 0 19 0;
#X connect 9 0 47 1;
#X connect 9 0 11 1;
#X connect 9 0 34 1;
#X connect 9 0 83 0;
#X connect 10 0 14 0;
#X connect 10 0 26 1;
#X connect 10 0 61 0;
#X connect 10 0 107 0;
#X connect 11 0 10 1;
#X connect 11 0 50 1;
#X connect 11 0 35 1;
#X connect 12 0 13 0;
#X connect 13 0 55 0;
#X connect 13 0 56 0;
#X connect 13 0 57 0;
#X connect 13 0 58 0;
#X connect 14 0 12 0;
#X connect 14 1 13 1;
#X connect 15 5 31 0;
#X connect 15 6 264 0;
#X connect 15 7 263 0;
#X connect 15 8 262 0;
#X connect 15 9 4 0;
#X connect 19 0 20 1;
#X connect 20 0 43 0;
#X connect 21 0 22 0;
#X connect 21 0 33 0;
#X connect 22 0 21 1;
#X connect 23 0 21 1;
#X connect 25 0 21 0;
#X connect 26 0 25 0;
#X connect 27 0 24 0;
#X connect 28 0 29 0;
#X connect 28 0 30 0;
#X connect 31 0 32 0;
#X connect 32 0 26 0;
#X connect 33 2 34 0;
#X connect 33 3 60 0;
#X connect 33 4 24 1;
#X connect 33 4 29 1;
#X connect 33 4 30 1;
#X connect 33 4 43 1;
#X connect 33 4 62 0;
#X connect 34 0 36 0;
#X connect 34 0 64 0;
#X connect 34 1 35 0;
#X connect 34 1 63 0;
#X connect 35 0 39 0;
#X connect 35 1 42 0;
#X connect 36 0 27 0;
#X connect 36 0 28 0;
#X connect 36 1 20 0;
#X connect 37 0 29 0;
#X connect 38 0 24 0;
#X connect 38 0 30 0;
#X connect 39 0 37 0;
#X connect 39 0 38 0;
#X connect 39 1 47 0;
#X connect 40 0 30 0;
#X connect 41 0 29 0;
#X connect 41 0 24 0;
#X connect 42 0 40 0;
#X connect 42 0 41 0;
#X connect 42 1 50 0;
#X connect 45 0 46 1;
#X connect 46 0 51 0;
#X connect 47 0 46 0;
#X connect 48 0 49 1;
#X connect 49 0 53 0;
#X connect 50 0 49 0;
#X connect 51 0 52 0;
#X connect 52 0 43 0;
#X connect 53 0 54 0;
#X connect 54 0 43 0;
#X connect 60 0 23 0;
#X connect 61 0 60 1;
#X connect 65 0 68 0;
#X connect 65 0 70 0;
#X connect 65 0 69 0;
#X connect 65 0 71 0;
#X connect 66 0 175 0;
#X connect 68 0 195 0;
#X connect 68 0 197 0;
#X connect 68 0 254 0;
#X connect 69 0 111 0;
#X connect 69 0 113 0;
#X connect 70 0 104 0;
#X connect 70 0 108 0;
#X connect 71 0 117 0;
#X connect 72 0 78 0;
#X connect 73 0 9 0;
#X connect 74 0 8 0;
#X connect 75 0 7 0;
#X connect 76 0 183 0;
#X connect 76 1 389 0;
#X connect 77 0 78 1;
#X connect 78 0 131 0;
#X connect 79 0 82 0;
#X connect 80 0 79 0;
#X connect 81 0 80 0;
#X connect 81 1 79 1;
#X connect 82 0 382 0;
#X connect 82 1 65 0;
#X connect 86 0 92 0;
#X connect 87 0 91 0;
#X connect 87 0 181 0;
#X connect 88 0 121 0;
#X connect 89 0 142 0;
#X connect 90 0 119 1;
#X connect 90 0 120 0;
#X connect 90 0 142 2;
#X connect 91 0 90 0;
#X connect 91 1 90 1;
#X connect 92 0 89 1;
#X connect 92 0 90 0;
#X connect 92 0 179 1;
#X connect 92 0 180 0;
#X connect 96 0 118 2;
#X connect 96 0 155 0;
#X connect 96 0 192 4;
#X connect 97 0 96 1;
#X connect 98 0 100 1;
#X connect 99 0 101 1;
#X connect 100 0 141 1;
#X connect 100 0 142 3;
#X connect 100 0 149 0;
#X connect 100 0 182 0;
#X connect 100 0 192 3;
#X connect 101 0 142 1;
#X connect 101 0 140 1;
#X connect 101 0 191 0;
#X connect 101 0 192 1;
#X connect 101 0 290 0;
#X connect 102 0 105 0;
#X connect 103 0 104 1;
#X connect 104 0 102 1;
#X connect 105 0 145 0;
#X connect 106 0 103 0;
#X connect 106 1 103 1;
#X connect 106 2 108 1;
#X connect 106 2 143 0;
#X connect 108 0 105 1;
#X connect 109 0 112 0;
#X connect 110 0 111 1;
#X connect 110 0 114 0;
#X connect 111 0 109 1;
#X connect 112 0 145 0;
#X connect 113 0 112 1;
#X connect 115 0 65 0;
#X connect 116 0 145 0;
#X connect 117 0 116 1;
#X connect 118 0 165 0;
#X connect 119 0 118 0;
#X connect 120 0 118 1;
#X connect 120 0 192 6;
#X connect 121 0 120 0;
#X connect 121 1 120 1;
#X connect 123 0 103 0;
#X connect 124 0 123 1;
#X connect 125 0 123 1;
#X connect 126 0 117 1;
#X connect 126 0 270 0;
#X connect 127 0 126 1;
#X connect 128 0 126 1;
#X connect 129 0 393 0;
#X connect 131 0 80 1;
#X connect 131 1 130 0;
#X connect 132 0 89 0;
#X connect 132 1 72 0;
#X connect 132 2 133 0;
#X connect 132 2 138 0;
#X connect 132 3 125 0;
#X connect 132 3 128 0;
#X connect 132 3 136 0;
#X connect 132 3 140 0;
#X connect 132 3 141 0;
#X connect 132 3 185 0;
#X connect 133 0 126 0;
#X connect 134 0 106 0;
#X connect 135 0 134 1;
#X connect 136 0 134 1;
#X connect 137 0 123 0;
#X connect 138 0 137 0;
#X connect 138 1 139 0;
#X connect 139 0 134 0;
#X connect 140 0 77 0;
#X connect 141 0 156 0;
#X connect 142 0 115 0;
#X connect 144 0 383 0;
#X connect 145 0 144 0;
#X connect 145 0 129 0;
#X connect 145 0 363 0;
#X connect 145 0 394 0;
#X connect 146 0 390 0;
#X connect 146 2 135 0;
#X connect 146 2 124 0;
#X connect 146 2 127 0;
#X connect 147 0 108 1;
#X connect 148 0 152 0;
#X connect 148 1 153 0;
#X connect 149 0 148 0;
#X connect 150 0 157 1;
#X connect 151 0 157 1;
#X connect 152 0 150 0;
#X connect 152 1 159 1;
#X connect 153 0 151 0;
#X connect 153 1 154 0;
#X connect 154 0 159 1;
#X connect 155 0 149 0;
#X connect 155 1 148 1;
#X connect 155 2 154 1;
#X connect 156 0 77 0;
#X connect 156 1 77 1;
#X connect 157 0 159 0;
#X connect 158 0 164 0;
#X connect 158 1 167 0;
#X connect 159 0 158 0;
#X connect 160 0 164 1;
#X connect 160 0 391 0;
#X connect 161 0 163 0;
#X connect 162 0 164 2;
#X connect 162 0 169 0;
#X connect 162 0 392 0;
#X connect 163 0 162 0;
#X connect 163 1 162 1;
#X connect 164 0 166 0;
#X connect 165 0 81 0;
#X connect 166 0 65 0;
#X connect 167 0 171 0;
#X connect 168 0 170 0;
#X connect 169 0 167 2;
#X connect 170 0 169 0;
#X connect 170 1 169 1;
#X connect 171 0 65 0;
#X connect 172 0 66 0;
#X connect 173 0 66 0;
#X connect 175 0 176 0;
#X connect 176 0 177 0;
#X connect 177 0 219 0;
#X connect 177 1 190 0;
#X connect 178 0 179 0;
#X connect 178 2 138 0;
#X connect 178 2 133 0;
#X connect 178 3 128 0;
#X connect 178 3 136 0;
#X connect 178 3 125 0;
#X connect 179 0 192 0;
#X connect 180 0 192 2;
#X connect 181 0 180 0;
#X connect 181 1 180 1;
#X connect 182 0 191 0;
#X connect 182 1 191 1;
#X connect 183 0 186 0;
#X connect 184 0 183 1;
#X connect 185 0 183 1;
#X connect 186 0 119 0;
#X connect 186 1 72 1;
#X connect 186 2 184 0;
#X connect 187 0 188 0;
#X connect 187 0 362 0;
#X connect 187 1 189 0;
#X connect 187 1 361 0;
#X connect 188 0 175 1;
#X connect 189 0 175 1;
#X connect 190 1 394 0;
#X connect 191 0 192 5;
#X connect 192 0 193 0;
#X connect 193 0 65 0;
#X connect 194 0 268 0;
#X connect 195 0 102 0;
#X connect 196 0 267 0;
#X connect 197 0 116 0;
#X connect 198 0 266 0;
#X connect 202 0 203 0;
#X connect 202 0 292 0;
#X connect 202 0 378 0;
#X connect 202 0 379 0;
#X connect 202 0 380 0;
#X connect 203 0 315 0;
#X connect 204 0 209 0;
#X connect 205 0 210 0;
#X connect 206 0 211 0;
#X connect 206 1 205 1;
#X connect 207 0 204 0;
#X connect 207 0 205 0;
#X connect 208 0 211 0;
#X connect 208 1 211 1;
#X connect 208 2 204 1;
#X connect 209 0 314 0;
#X connect 210 0 303 0;
#X connect 211 0 207 0;
#X connect 212 0 66 0;
#X connect 214 0 227 0;
#X connect 216 0 217 0;
#X connect 216 1 224 0;
#X connect 217 0 219 1;
#X connect 218 0 219 1;
#X connect 219 0 220 0;
#X connect 220 0 221 0;
#X connect 221 0 76 0;
#X connect 221 0 223 1;
#X connect 221 0 225 0;
#X connect 221 1 222 0;
#X connect 222 0 76 0;
#X connect 223 0 222 0;
#X connect 224 0 218 0;
#X connect 224 1 223 0;
#X connect 226 0 198 0;
#X connect 226 0 196 0;
#X connect 226 0 194 0;
#X connect 227 0 230 0;
#X connect 228 0 363 1;
#X connect 229 0 228 0;
#X connect 230 0 247 0;
#X connect 232 0 233 0;
#X connect 234 0 235 0;
#X connect 234 1 236 0;
#X connect 235 0 229 0;
#X connect 236 0 229 0;
#X connect 237 0 241 0;
#X connect 238 0 244 0;
#X connect 239 0 237 0;
#X connect 239 0 240 0;
#X connect 240 0 245 0;
#X connect 241 0 242 0;
#X connect 241 0 246 0;
#X connect 242 0 251 0;
#X connect 243 0 240 0;
#X connect 243 1 240 1;
#X connect 244 0 239 0;
#X connect 245 0 237 0;
#X connect 245 1 237 1;
#X connect 246 0 249 0;
#X connect 247 0 246 0;
#X connect 247 1 246 1;
#X connect 248 0 229 0;
#X connect 249 0 248 0;
#X connect 250 0 269 0;
#X connect 251 0 248 0;
#X connect 251 1 248 1;
#X connect 252 0 253 0;
#X connect 253 0 281 0;
#X connect 254 0 109 0;
#X connect 257 0 418 1;
#X connect 258 0 257 0;
#X connect 259 0 260 0;
#X connect 260 0 320 0;
#X connect 261 0 250 0;
#X connect 262 0 73 0;
#X connect 262 0 93 0;
#X connect 263 0 74 0;
#X connect 263 0 94 0;
#X connect 264 0 75 0;
#X connect 264 0 95 0;
#X connect 265 0 377 0;
#X connect 266 0 310 0;
#X connect 267 0 309 0;
#X connect 268 0 308 0;
#X connect 269 0 325 0;
#X connect 271 1 274 0;
#X connect 272 0 277 0;
#X connect 273 0 276 0;
#X connect 273 1 280 0;
#X connect 274 0 275 0;
#X connect 275 0 273 0;
#X connect 276 0 272 0;
#X connect 277 0 278 0;
#X connect 278 0 279 0;
#X connect 279 0 243 0;
#X connect 280 0 278 0;
#X connect 281 0 271 0;
#X connect 282 0 407 0;
#X connect 283 0 101 0;
#X connect 284 0 100 0;
#X connect 285 0 96 0;
#X connect 286 0 110 0;
#X connect 286 0 137 0;
#X connect 286 0 338 0;
#X connect 287 0 139 0;
#X connect 287 0 133 0;
#X connect 288 0 291 0;
#X connect 289 0 293 0;
#X connect 291 0 286 1;
#X connect 291 0 287 1;
#X connect 291 0 367 0;
#X connect 291 0 369 1;
#X connect 292 0 300 0;
#X connect 293 0 283 1;
#X connect 293 0 284 1;
#X connect 293 0 285 1;
#X connect 294 0 283 0;
#X connect 295 0 284 0;
#X connect 296 0 287 0;
#X connect 297 0 285 0;
#X connect 302 0 206 0;
#X connect 307 0 254 1;
#X connect 307 0 342 0;
#X connect 311 0 197 1;
#X connect 311 0 352 0;
#X connect 312 0 208 0;
#X connect 313 0 286 0;
#X connect 319 0 365 0;
#X connect 323 0 252 0;
#X connect 323 0 357 0;
#X connect 326 0 216 0;
#X connect 328 0 187 0;
#X connect 330 0 331 0;
#X connect 331 0 329 0;
#X connect 332 0 417 0;
#X connect 337 0 336 0;
#X connect 338 0 339 0;
#X connect 339 0 337 0;
#X connect 340 0 341 0;
#X connect 341 0 344 0;
#X connect 342 0 343 0;
#X connect 343 0 340 0;
#X connect 345 0 349 0;
#X connect 346 0 347 0;
#X connect 347 0 345 0;
#X connect 348 0 346 0;
#X connect 348 0 195 1;
#X connect 349 0 350 0;
#X connect 351 0 354 0;
#X connect 352 0 353 0;
#X connect 353 0 351 0;
#X connect 354 0 355 0;
#X connect 356 0 359 0;
#X connect 357 0 358 0;
#X connect 358 0 356 0;
#X connect 359 0 360 0;
#X connect 361 0 327 0;
#X connect 362 0 327 0;
#X connect 363 0 418 0;
#X connect 364 0 408 0;
#X connect 364 1 369 0;
#X connect 365 0 366 0;
#X connect 366 0 364 0;
#X connect 366 0 258 0;
#X connect 367 0 368 0;
#X connect 368 0 282 1;
#X connect 371 0 372 0;
#X connect 372 0 373 0;
#X connect 377 0 327 0;
#X connect 378 0 298 0;
#X connect 379 0 299 0;
#X connect 380 0 301 0;
#X connect 382 1 146 0;
#X connect 383 0 132 0;
#X connect 383 1 110 0;
#X connect 383 2 110 1;
#X connect 383 3 113 1;
#X connect 385 0 384 1;
#X connect 386 0 384 0;
#X connect 387 0 386 0;
#X connect 388 0 384 1;
#X connect 389 0 144 0;
#X connect 390 0 129 0;
#X connect 391 0 162 0;
#X connect 392 0 167 1;
#X connect 393 0 157 0;
#X connect 393 1 104 1;
#X connect 393 1 117 1;
#X connect 393 2 147 0;
#X connect 394 0 397 0;
#X connect 395 0 178 0;
#X connect 395 1 110 0;
#X connect 395 2 110 1;
#X connect 395 3 113 1;
#X connect 396 0 398 0;
#X connect 397 0 396 0;
#X connect 397 1 398 1;
#X connect 398 0 395 0;
#X connect 408 0 282 0;
#X connect 417 0 230 1;
#X connect 417 1 234 0;
#X connect 418 0 213 0;
#X connect 419 0 235 0;
#X restore 568 246 pd envelope01;
#X floatatom 344 356 5 0 0 0 - - -;
#X obj 343 380 osc~;
#X obj 344 417 *~;
#X obj 344 478 dac~;
#X obj 385 392 vline~;
#X msg 448 312 1 250 \, 0 750 250;
#X text 463 337 ramp to 1 in 250ms \,, f 24;
#X text 448 354 ramp to 0 in 750ms (initiate after 250ms), f 24;
#X floatatom 385 623 5 0 0 0 - - -;
#X floatatom 458 622 5 0 0 0 - - -;
#X floatatom 346 714 5 0 0 0 - - -;
#X obj 346 734 osc~;
#X obj 346 780 *~;
#X obj 334 893 dac~;
#X obj 367 650 f;
#X obj 391 756 vline~;
#X msg 391 729 1 \$1 \, 0 \$2 \$1;
#X obj 353 604 bng 15 250 50 0 empty empty empty 17 7 0 10 -262144
-1 -1;
#X obj 391 699 pack \$1 \$2;
#X text 367 569 6b;
#X text 345 545 make the envelope's parameters variable;
#X text 383 524 introduce [pack];
#X obj 383 296 bng 15 250 50 0 empty empty empty 17 7 0 10 -262144
-1 -1;
#X text 383 605 ATTACK RELEASE;
#X connect 6 0 7 0;
#X connect 7 0 8 0;
#X connect 8 0 9 0;
#X connect 8 0 9 1;
#X connect 10 0 8 1;
#X connect 11 0 10 0;
#X connect 14 0 20 1;
#X connect 15 0 24 1;
#X connect 16 0 17 0;
#X connect 17 0 18 0;
#X connect 18 0 19 0;
#X connect 18 0 19 1;
#X connect 20 0 24 0;
#X connect 21 0 18 1;
#X connect 22 0 21 0;
#X connect 23 0 20 0;
#X connect 24 0 22 0;
#X connect 28 0 11 0;
