#N canvas -7 0 958 988 12;
#X obj 92 484 phasor~;
#X obj 167 487 phasor~;
#X obj 246 484 phasor~;
#X floatatom 591 207 5 0 0 0 - - -;
#X obj 591 227 osc~;
#X obj 591 268 *~;
#X obj 591 329 dac~;
#X obj 632 243 vline~;
#X msg 632 222 1 250 \, 0 750 250;
#X text 631 264 ramp to 1 in 250ms \,, f 24;
#X text 631 284 ramp to 0 in 750ms (initiate after 250ms), f 24;
#X floatatom 653 472 5 0 0 0 - - -;
#X floatatom 695 523 5 0 0 0 - - -;
#X floatatom 593 565 5 0 0 0 - - -;
#X obj 593 585 osc~;
#X obj 593 631 *~;
#X obj 593 692 dac~;
#X obj 638 496 f;
#X obj 638 607 vline~;
#X msg 638 580 1 \$1 \, 0 \$2 \$1;
#X obj 638 450 bng 15 250 50 0 empty empty empty 17 7 0 10 -262144
-1 -1;
#X obj 638 550 pack \$1 \$2;
#X text 614 420 6b;
#X text 592 396 make the envelope's parameters variable;
#X text 630 375 introduce [pack];
#X obj 325 589 *~;
#X connect 0 0 25 0;
#X connect 1 0 25 1;
#X connect 3 0 4 0;
#X connect 4 0 5 0;
#X connect 5 0 6 0;
#X connect 5 0 6 1;
#X connect 7 0 5 1;
#X connect 8 0 7 0;
#X connect 11 0 17 1;
#X connect 12 0 21 1;
#X connect 13 0 14 0;
#X connect 14 0 15 0;
#X connect 15 0 16 0;
#X connect 15 0 16 1;
#X connect 17 0 21 0;
#X connect 18 0 15 1;
#X connect 19 0 18 0;
#X connect 20 0 17 0;
#X connect 21 0 19 0;
