#N canvas 145 23 1766 703 10;
#X obj 137 43 r voice-note-\$1;
#X obj 137 65 unpack 0 0;
#X obj 137 131 mtof;
#X obj 149 594 *~;
#X obj 300 515 / 127;
#X obj 149 648 throw~ output;
#X obj 300 567 line~;
#X obj 300 541 pack 0 0;
#X obj 164 284 phasor~;
#X obj 46 284 phasor~;
#X obj 149 352 +~;
#X obj 345 515 r attack;
#X obj 46 218 sig~;
#X obj 46 263 +~;
#X obj 164 306 *~ 2;
#X obj 164 328 -~ 1;
#X obj 46 306 *~ 2;
#X obj 46 328 -~ 1;
#X obj 196 476 r octVol;
#X obj 164 475 osc~;
#X obj 164 497 *~;
#X obj 149 519 +~;
#X obj 149 623 *~ 0.5;
#X obj 164 452 mtof;
#X obj 164 429 - 12;
#X obj 61 241 r~ detune;
#X obj 137 153 t f f;
#X obj 137 87 t f f;
#X obj 164 407 r \$0-midinote;
#X obj 164 109 s \$0-midinote;
#X obj 852 495 notein;
#X obj 761 594 pack f f f;
#X obj 761 615 s \$0-poly;
#X obj 561 -14 r \$0-poly;
#X obj 561 7 route 1;
#X obj 561 63 unpack f f;
#N canvas 193 160 809 686 voice 0;
#X obj 12 42 inlet;
#X obj 12 126 mtof;
#X msg 12 147 1000 \$1;
#X obj 12 168 /;
#X obj 127 12 inlet;
#X obj 12 63 list prepend;
#X obj 127 33 > 0;
#X obj 12 84 route 1;
#X msg 169 270 1 \, 0 \$1;
#X obj 169 291 vline~;
#X obj 12 635 outlet~;
#X obj 12 439 +~;
#X obj 365 623 delwrite~ \$0-del 100;
#X obj 204 425 delread4~ \$0-del;
#X obj 315 47 sel 1;
#X msg 345 486 clear;
#X obj 315 27 block~ 1 1 1;
#N canvas 498 82 752 157 sinesum 0;
#X obj 62 54 +~ 0.25;
#X obj 62 75 cos~;
#X obj 62 33 *~;
#X obj 62 117 *~;
#X obj 142 54 +~ 0.25;
#X obj 142 75 cos~;
#X obj 142 33 *~;
#X obj 142 117 *~;
#X obj 222 54 +~ 0.25;
#X obj 222 75 cos~;
#X obj 222 33 *~;
#X obj 222 117 *~;
#X obj 302 54 +~ 0.25;
#X obj 302 75 cos~;
#X obj 302 33 *~;
#X obj 302 117 *~;
#X obj 382 54 +~ 0.25;
#X obj 382 75 cos~;
#X obj 382 33 *~;
#X obj 382 117 *~;
#X obj 462 54 +~ 0.25;
#X obj 462 75 cos~;
#X obj 462 33 *~;
#X obj 462 117 *~;
#X obj 552 54 +~ 0.25;
#X obj 552 75 cos~;
#X obj 552 33 *~;
#X obj 552 117 *~;
#X obj 642 54 +~ 0.25;
#X obj 642 75 cos~;
#X obj 642 33 *~;
#X obj 642 117 *~;
#X obj 12 19 inlet~;
#X obj 77 96 r \$0-sin-0;
#X obj 62 131 outlet~;
#X obj 157 96 r \$0-sin-1;
#X obj 237 96 r \$0-sin-2;
#X obj 317 96 r \$0-sin-3;
#X obj 397 96 r \$0-sin-4;
#X obj 477 96 r \$0-sin-5;
#X obj 567 96 r \$0-sin-6;
#X obj 657 96 r \$0-sin-7;
#X obj 77 12 r \$0-hrm-0;
#X obj 157 12 r \$0-hrm-1;
#X obj 237 12 r \$0-hrm-2;
#X obj 317 12 r \$0-hrm-3;
#X obj 397 12 r \$0-hrm-4;
#X obj 477 12 r \$0-hrm-5;
#X obj 567 12 r \$0-hrm-6;
#X obj 657 12 r \$0-hrm-7;
#X connect 0 0 1 0;
#X connect 1 0 3 0;
#X connect 2 0 0 0;
#X connect 3 0 34 0;
#X connect 4 0 5 0;
#X connect 5 0 7 0;
#X connect 6 0 4 0;
#X connect 7 0 34 0;
#X connect 8 0 9 0;
#X connect 9 0 11 0;
#X connect 10 0 8 0;
#X connect 11 0 34 0;
#X connect 12 0 13 0;
#X connect 13 0 15 0;
#X connect 14 0 12 0;
#X connect 15 0 34 0;
#X connect 16 0 17 0;
#X connect 17 0 19 0;
#X connect 18 0 16 0;
#X connect 19 0 34 0;
#X connect 20 0 21 0;
#X connect 21 0 23 0;
#X connect 22 0 20 0;
#X connect 23 0 34 0;
#X connect 24 0 25 0;
#X connect 25 0 27 0;
#X connect 26 0 24 0;
#X connect 27 0 34 0;
#X connect 28 0 29 0;
#X connect 29 0 31 0;
#X connect 30 0 28 0;
#X connect 31 0 34 0;
#X connect 32 0 2 0;
#X connect 32 0 30 0;
#X connect 32 0 26 0;
#X connect 32 0 22 0;
#X connect 32 0 18 0;
#X connect 32 0 14 0;
#X connect 32 0 10 0;
#X connect 32 0 6 0;
#X connect 33 0 3 1;
#X connect 35 0 7 1;
#X connect 36 0 11 1;
#X connect 37 0 15 1;
#X connect 38 0 19 1;
#X connect 39 0 23 1;
#X connect 40 0 27 1;
#X connect 41 0 31 1;
#X connect 42 0 2 1;
#X connect 43 0 6 1;
#X connect 44 0 10 1;
#X connect 45 0 14 1;
#X connect 46 0 18 1;
#X connect 47 0 22 1;
#X connect 48 0 26 1;
#X connect 49 0 30 1;
#X restore 169 312 pd sinesum;
#X msg 82 276 1 \, 0 0 \$1;
#X obj 82 297 vline~;
#X obj 12 290 noise~;
#X obj 12 311 *~;
#X obj 12 609 *~;
#X obj 238 314 r \$0-snd-nse;
#X msg 127 297 1 \$1;
#X obj 238 335 / 127;
#X obj 12 332 *~;
#X obj 169 349 *~;
#X obj 127 318 -;
#X obj 12 363 +~;
#X obj 127 532 max 1;
#X obj 154 469 r \$0-gte;
#X msg 154 490 1 \$1;
#X obj 154 511 -;
#X obj 12 105 pipe 2;
#X obj 345 73 del 2;
#X msg 315 529 0 1;
#X obj 315 550 line~;
#X msg 345 529 1;
#X obj 12 564 *~;
#X obj 127 553 sel 0;
#X obj 127 595 line~;
#X obj 12 500 lop~;
#X obj 420 199 / 127;
#X obj 420 262 + 16;
#X obj 420 283 mtof;
#X obj 405 366 f;
#X obj 12 189 bang;
#X obj 12 210 spigot;
#X msg 12 269 seed \$2;
#X obj 12 231 pack f f;
#X obj 89 173 r \$0-snd-lok;
#X obj 99 215 r \$0-snd-sed;
#X obj 420 220 sqrt;
#X obj 420 241 * 120;
#X obj 420 304 min 20000;
#X obj 162 578 pipe 2;
#X obj 12 384 *~;
#X obj 237 103 sel 0;
#X obj 237 124 - 1;
#X obj 237 145 / 126;
#X obj 237 166 pipe 2;
#X msg 237 187 1 \$1;
#X obj 237 208 -;
#X obj 269 208 r \$0-snd-vel;
#X obj 237 229 *;
#X obj 237 250 + 100;
#X obj 237 271 dbtorms;
#X obj 204 446 *~;
#X obj 314 327 r \$0-snd-fbk;
#X obj 314 369 + 100;
#X obj 314 390 dbtorms;
#X msg 314 411 \$1 5;
#X obj 314 432 line~;
#X obj 314 348 / 10;
#X obj 523 336 / 127;
#X obj 523 418 mtof;
#X obj 508 501 f;
#X obj 523 439 min 20000;
#X obj 420 325 s \$0-rcv-lop-nbx;
#X obj 420 178 r \$0-snd-lop;
#X obj 420 346 r \$0-snd-lop-nbx;
#X obj 523 315 r \$0-snd-hip;
#X obj 523 460 s \$0-rcv-hip-nbx;
#X obj 523 481 r \$0-snd-hip-nbx;
#X obj 12 521 hip~;
#X msg 127 574 0 1;
#X obj 204 467 *~;
#X obj 431 426 r \$0-snd-inv;
#X obj 431 447 * -2;
#X obj 431 468 + 1;
#X obj 598 221 -;
#X obj 689 207 t b f;
#X obj 555 249 *;
#X obj 555 270 +;
#X obj 12 405 lop~;
#X obj 523 397 * 136;
#X obj 571 391 sel 0;
#X obj 523 357 t f f;
#X msg 571 412 0;
#X obj 550 36 / 127;
#X obj 550 99 + 16;
#X obj 550 120 mtof;
#X obj 550 57 sqrt;
#X obj 550 78 * 120;
#X obj 550 141 min 20000;
#X obj 688 41 / 127;
#X obj 688 123 mtof;
#X obj 688 144 min 20000;
#X obj 688 102 * 136;
#X obj 736 96 sel 0;
#X obj 688 62 t f f;
#X msg 736 117 0;
#X obj 550 15 r \$0-snd-top;
#X obj 550 162 s \$0-rcv-top-nbx;
#X obj 550 183 r \$0-snd-top-nbx;
#X obj 689 186 r \$0-snd-bot-nbx;
#X obj 688 165 s \$0-rcv-bot-nbx;
#X obj 688 20 r \$0-snd-bot;
#X connect 0 0 5 0;
#X connect 1 0 2 0;
#X connect 2 0 3 0;
#X connect 3 0 8 0;
#X connect 3 0 13 0;
#X connect 3 0 18 0;
#X connect 3 0 47 0;
#X connect 4 0 6 0;
#X connect 4 0 58 0;
#X connect 5 0 7 0;
#X connect 6 0 5 1;
#X connect 6 0 14 0;
#X connect 6 0 30 0;
#X connect 7 0 34 0;
#X connect 8 0 9 0;
#X connect 9 0 17 0;
#X connect 11 0 42 0;
#X connect 13 0 68 0;
#X connect 14 0 35 0;
#X connect 14 0 36 0;
#X connect 14 0 46 0;
#X connect 14 0 77 0;
#X connect 15 0 12 0;
#X connect 15 0 42 0;
#X connect 15 0 85 0;
#X connect 15 0 95 0;
#X connect 17 0 27 0;
#X connect 18 0 19 0;
#X connect 19 0 21 1;
#X connect 20 0 21 0;
#X connect 21 0 26 0;
#X connect 22 0 12 0;
#X connect 22 0 10 0;
#X connect 23 0 25 0;
#X connect 24 0 28 0;
#X connect 25 0 24 0;
#X connect 25 0 27 1;
#X connect 26 0 29 0;
#X connect 27 0 29 1;
#X connect 28 0 26 1;
#X connect 29 0 57 0;
#X connect 30 0 40 0;
#X connect 31 0 32 0;
#X connect 32 0 33 0;
#X connect 33 0 30 1;
#X connect 34 0 1 0;
#X connect 35 0 15 0;
#X connect 35 0 38 0;
#X connect 36 0 37 0;
#X connect 37 0 39 1;
#X connect 38 0 37 0;
#X connect 39 0 22 0;
#X connect 40 0 86 0;
#X connect 40 1 56 0;
#X connect 41 0 22 1;
#X connect 42 0 85 0;
#X connect 43 0 53 0;
#X connect 44 0 45 0;
#X connect 45 0 55 0;
#X connect 46 0 42 1;
#X connect 47 0 48 0;
#X connect 48 0 50 0;
#X connect 49 0 20 0;
#X connect 50 0 49 0;
#X connect 51 0 48 1;
#X connect 52 0 50 1;
#X connect 53 0 54 0;
#X connect 54 0 44 0;
#X connect 55 0 79 0;
#X connect 56 0 41 0;
#X connect 57 0 95 0;
#X connect 58 1 59 0;
#X connect 59 0 60 0;
#X connect 60 0 61 0;
#X connect 61 0 62 0;
#X connect 61 0 93 0;
#X connect 62 0 63 0;
#X connect 63 0 65 0;
#X connect 64 0 65 1;
#X connect 65 0 66 0;
#X connect 66 0 67 0;
#X connect 67 0 57 1;
#X connect 68 0 87 0;
#X connect 69 0 74 0;
#X connect 70 0 71 0;
#X connect 71 0 72 0;
#X connect 72 0 73 0;
#X connect 73 0 68 1;
#X connect 74 0 70 0;
#X connect 75 0 98 0;
#X connect 76 0 78 0;
#X connect 77 0 85 1;
#X connect 78 0 83 0;
#X connect 80 0 43 0;
#X connect 81 0 46 1;
#X connect 82 0 75 0;
#X connect 84 0 77 1;
#X connect 85 0 39 0;
#X connect 86 0 41 0;
#X connect 87 0 11 1;
#X connect 88 0 89 0;
#X connect 89 0 90 0;
#X connect 90 0 87 1;
#X connect 91 0 93 1;
#X connect 92 0 91 0;
#X connect 92 1 91 1;
#X connect 92 1 94 1;
#X connect 93 0 94 0;
#X connect 94 0 95 1;
#X connect 95 0 11 0;
#X connect 96 0 76 0;
#X connect 97 0 99 0;
#X connect 98 0 97 0;
#X connect 98 1 96 0;
#X connect 99 0 78 0;
#X connect 100 0 103 0;
#X connect 101 0 102 0;
#X connect 102 0 105 0;
#X connect 103 0 104 0;
#X connect 104 0 101 0;
#X connect 105 0 114 0;
#X connect 106 0 111 0;
#X connect 107 0 108 0;
#X connect 108 0 117 0;
#X connect 109 0 107 0;
#X connect 110 0 112 0;
#X connect 111 0 110 0;
#X connect 111 1 109 0;
#X connect 112 0 108 0;
#X connect 113 0 100 0;
#X connect 115 0 91 0;
#X connect 116 0 92 0;
#X connect 118 0 106 0;
#X restore 561 84 pd voice;
#X obj 561 684 hip~ 3;
#X obj 864 600 > 0;
#X obj 864 621 sel 1;
#X obj 864 643 tabwrite~ \$0-scope;
#N canvas 0 22 450 278 (subpatch) 0;
#X array \$0-scope 882 float 0;
#X coords 0 1 881 -1 441 101 1 0 0;
#X restore 934 486 graph;
#X obj 934 177 vsl 32 128 0 127 0 1 empty empty empty 4 -10 0 14 -262144
-1 -1 12700 1;
#X obj 934 313 nbx 3 17 0 127 0 0 \$0-snd-sin-0 empty empty 0 -8 0
10 -262144 -1 -1 127 256;
#N canvas 348 23 1539 295 sinesum 0;
#X obj 54 33 / 127;
#X obj 81 201 pack f 0;
#X obj 81 222 tabwrite \$0-sinesum;
#X obj 12 138 array sum \$0-sinesum;
#X obj 12 159 max 1;
#X obj 54 75 t b f;
#X obj 54 96 s \$0-sin-bng;
#X obj 12 117 r \$0-sin-bng;
#X obj 12 180 list prepend;
#X obj 12 201 /;
#X obj 244 33 / 127;
#X obj 271 222 tabwrite \$0-sinesum;
#X obj 202 138 array sum \$0-sinesum;
#X obj 202 159 max 1;
#X obj 244 75 t b f;
#X obj 244 96 s \$0-sin-bng;
#X obj 202 117 r \$0-sin-bng;
#X obj 202 180 list prepend;
#X obj 202 201 /;
#X obj 202 222 s \$0-sin-1;
#X obj 434 33 / 127;
#X obj 461 222 tabwrite \$0-sinesum;
#X obj 392 138 array sum \$0-sinesum;
#X obj 392 159 max 1;
#X obj 434 75 t b f;
#X obj 434 96 s \$0-sin-bng;
#X obj 392 117 r \$0-sin-bng;
#X obj 392 180 list prepend;
#X obj 392 201 /;
#X obj 624 33 / 127;
#X obj 651 222 tabwrite \$0-sinesum;
#X obj 582 138 array sum \$0-sinesum;
#X obj 582 159 max 1;
#X obj 624 75 t b f;
#X obj 624 96 s \$0-sin-bng;
#X obj 582 117 r \$0-sin-bng;
#X obj 582 180 list prepend;
#X obj 582 201 /;
#X obj 814 33 / 127;
#X obj 841 222 tabwrite \$0-sinesum;
#X obj 772 138 array sum \$0-sinesum;
#X obj 772 159 max 1;
#X obj 814 75 t b f;
#X obj 814 96 s \$0-sin-bng;
#X obj 772 117 r \$0-sin-bng;
#X obj 772 180 list prepend;
#X obj 772 201 /;
#X obj 1004 33 / 127;
#X obj 1031 222 tabwrite \$0-sinesum;
#X obj 962 138 array sum \$0-sinesum;
#X obj 962 159 max 1;
#X obj 1004 75 t b f;
#X obj 1004 96 s \$0-sin-bng;
#X obj 962 117 r \$0-sin-bng;
#X obj 962 180 list prepend;
#X obj 962 201 /;
#X obj 1194 33 / 127;
#X obj 1221 222 tabwrite \$0-sinesum;
#X obj 1152 138 array sum \$0-sinesum;
#X obj 1152 159 max 1;
#X obj 1194 75 t b f;
#X obj 1194 96 s \$0-sin-bng;
#X obj 1152 117 r \$0-sin-bng;
#X obj 1152 180 list prepend;
#X obj 1152 201 /;
#X obj 1384 33 / 127;
#X obj 1411 222 tabwrite \$0-sinesum;
#X obj 1342 138 array sum \$0-sinesum;
#X obj 1342 159 max 1;
#X obj 1384 75 t b f;
#X obj 1384 96 s \$0-sin-bng;
#X obj 1342 117 r \$0-sin-bng;
#X obj 1342 180 list prepend;
#X obj 1342 201 /;
#X obj 12 222 s \$0-sin-0;
#X obj 54 12 r \$0-snd-sin-0;
#X obj 271 201 pack f 1;
#X obj 461 201 pack f 2;
#X obj 651 201 pack f 3;
#X obj 841 201 pack f 4;
#X obj 1031 201 pack f 5;
#X obj 1221 201 pack f 6;
#X obj 1411 201 pack f 7;
#X obj 244 12 r \$0-snd-sin-1;
#X obj 434 12 r \$0-snd-sin-2;
#X obj 624 12 r \$0-snd-sin-3;
#X obj 814 12 r \$0-snd-sin-4;
#X obj 1004 12 r \$0-snd-sin-5;
#X obj 1194 12 r \$0-snd-sin-6;
#X obj 1384 12 r \$0-snd-sin-7;
#X obj 12 243 table \$0-sinesum 8;
#X obj 392 222 s \$0-sin-2;
#X obj 582 222 s \$0-sin-3;
#X obj 772 222 s \$0-sin-4;
#X obj 962 222 s \$0-sin-5;
#X obj 1152 222 s \$0-sin-6;
#X obj 1342 222 s \$0-sin-7;
#X obj 54 54 pow 2;
#X obj 244 54 pow 2;
#X obj 434 54 pow 2;
#X obj 624 54 pow 2;
#X obj 814 54 pow 2;
#X obj 1004 54 pow 2;
#X obj 1194 54 pow 2;
#X obj 1384 54 pow 2;
#X connect 0 0 97 0;
#X connect 1 0 2 0;
#X connect 3 0 4 0;
#X connect 4 0 8 0;
#X connect 5 0 6 0;
#X connect 5 1 1 0;
#X connect 5 1 8 1;
#X connect 7 0 3 0;
#X connect 8 0 9 0;
#X connect 9 0 74 0;
#X connect 10 0 98 0;
#X connect 12 0 13 0;
#X connect 13 0 17 0;
#X connect 14 0 15 0;
#X connect 14 1 17 1;
#X connect 14 1 76 0;
#X connect 16 0 12 0;
#X connect 17 0 18 0;
#X connect 18 0 19 0;
#X connect 20 0 99 0;
#X connect 22 0 23 0;
#X connect 23 0 27 0;
#X connect 24 0 25 0;
#X connect 24 1 27 1;
#X connect 24 1 77 0;
#X connect 26 0 22 0;
#X connect 27 0 28 0;
#X connect 28 0 91 0;
#X connect 29 0 100 0;
#X connect 31 0 32 0;
#X connect 32 0 36 0;
#X connect 33 0 34 0;
#X connect 33 1 36 1;
#X connect 33 1 78 0;
#X connect 35 0 31 0;
#X connect 36 0 37 0;
#X connect 37 0 92 0;
#X connect 38 0 101 0;
#X connect 40 0 41 0;
#X connect 41 0 45 0;
#X connect 42 0 43 0;
#X connect 42 1 45 1;
#X connect 42 1 79 0;
#X connect 44 0 40 0;
#X connect 45 0 46 0;
#X connect 46 0 93 0;
#X connect 47 0 102 0;
#X connect 49 0 50 0;
#X connect 50 0 54 0;
#X connect 51 0 52 0;
#X connect 51 1 54 1;
#X connect 51 1 80 0;
#X connect 53 0 49 0;
#X connect 54 0 55 0;
#X connect 55 0 94 0;
#X connect 56 0 103 0;
#X connect 58 0 59 0;
#X connect 59 0 63 0;
#X connect 60 0 61 0;
#X connect 60 1 63 1;
#X connect 60 1 81 0;
#X connect 62 0 58 0;
#X connect 63 0 64 0;
#X connect 64 0 95 0;
#X connect 65 0 104 0;
#X connect 67 0 68 0;
#X connect 68 0 72 0;
#X connect 69 0 70 0;
#X connect 69 1 72 1;
#X connect 69 1 82 0;
#X connect 71 0 67 0;
#X connect 72 0 73 0;
#X connect 73 0 96 0;
#X connect 75 0 0 0;
#X connect 76 0 11 0;
#X connect 77 0 21 0;
#X connect 78 0 30 0;
#X connect 79 0 39 0;
#X connect 80 0 48 0;
#X connect 81 0 57 0;
#X connect 82 0 66 0;
#X connect 83 0 10 0;
#X connect 84 0 20 0;
#X connect 85 0 29 0;
#X connect 86 0 38 0;
#X connect 87 0 47 0;
#X connect 88 0 56 0;
#X connect 89 0 65 0;
#X connect 97 0 5 0;
#X connect 98 0 14 0;
#X connect 99 0 24 0;
#X connect 100 0 33 0;
#X connect 101 0 42 0;
#X connect 102 0 51 0;
#X connect 103 0 60 0;
#X connect 104 0 69 0;
#X restore 934 450 pd sinesum;
#X obj 974 177 vsl 32 128 0 127 0 1 empty empty empty 4 -10 0 16 -262144
-1 -1 12700 1;
#X obj 974 313 nbx 3 17 0 127 0 0 \$0-snd-sin-1 empty empty 0 -8 0
10 -262144 -1 -1 127 256;
#X obj 1014 177 vsl 32 128 0 127 0 1 empty empty empty 4 -10 0 16 -262144
-1 -1 0 1;
#X obj 1014 313 nbx 3 17 0 127 0 0 \$0-snd-sin-2 empty empty 0 -8 0
10 -262144 -1 -1 0 256;
#X obj 1054 177 vsl 32 128 0 127 0 1 empty empty empty 4 -10 0 16 -262144
-1 -1 11200 1;
#X obj 1054 313 nbx 3 17 0 127 0 0 \$0-snd-sin-3 empty empty 0 -8 0
10 -262144 -1 -1 112 256;
#X obj 1094 177 vsl 32 128 0 127 0 1 empty empty empty 4 -10 0 16 -262144
-1 -1 700 1;
#X obj 1094 313 nbx 3 17 0 127 0 0 \$0-snd-sin-4 empty empty 0 -8 0
10 -262144 -1 -1 7 256;
#X obj 1134 177 vsl 32 128 0 127 0 1 empty empty empty 4 -10 0 16 -262144
-1 -1 200 1;
#X obj 1134 313 nbx 3 17 0 127 0 0 \$0-snd-sin-5 empty empty 0 -8 0
10 -262144 -1 -1 2 256;
#X obj 1174 177 vsl 32 128 0 127 0 1 empty empty empty 4 -10 0 16 -262144
-1 -1 3400 1;
#X obj 1174 313 nbx 3 17 0 127 0 0 \$0-snd-sin-6 empty empty 0 -8 0
10 -262144 -1 -1 34 256;
#X obj 1214 177 vsl 32 128 0 127 0 1 empty empty empty 4 -10 0 16 -262144
-1 -1 7300 1;
#X obj 1214 313 nbx 3 17 0 127 0 0 \$0-snd-sin-7 empty empty 0 -8 0
10 -262144 -1 -1 73 256;
#X obj 934 153 nbx 3 17 0 127 0 1 \$0-hrm-0 empty empty 0 -8 0 10 -262144
-1 -1 1 256;
#X obj 974 153 nbx 3 17 0 127 0 1 \$0-hrm-1 empty empty 0 -8 0 10 -262144
-1 -1 2 256;
#X obj 1014 153 nbx 3 17 0 127 0 1 \$0-hrm-2 empty empty 0 -8 0 10
-262144 -1 -1 3 256;
#X obj 1054 153 nbx 3 17 0 127 0 1 \$0-hrm-3 empty empty 0 -8 0 10
-262144 -1 -1 4 256;
#X obj 1094 153 nbx 3 17 0 127 0 1 \$0-hrm-4 empty empty 0 -8 0 10
-262144 -1 -1 6 256;
#X obj 1134 153 nbx 3 17 0 127 0 1 \$0-hrm-5 empty empty 0 -8 0 10
-262144 -1 -1 8 256;
#X obj 1174 153 nbx 3 17 0 127 0 1 \$0-hrm-6 empty empty 0 -8 0 10
-262144 -1 -1 16 256;
#X obj 1214 153 nbx 3 17 0 127 0 1 \$0-hrm-7 empty empty 0 -8 0 10
-262144 -1 -1 20 256;
#X obj 937 33 hsl 128 17 0 127 0 1 \$0-snd-nse empty NOISE/SINE -2
-8 0 10 -262144 -1 -1 12700 1;
#X obj 1074 33 tgl 17 1 \$0-gte empty GATE 1 -8 0 10 -262144 -1 -1
1 1;
#X text 933 137 SINE HARMONICS;
#X obj 937 383 hsl 128 17 0 127 0 1 \$0-snd-lop empty LPF-CUTOFF -2
-8 0 10 -262144 -1 -1 11200 1;
#X obj 1067 383 nbx 5 17 20 20000 0 0 \$0-snd-lop-nbx \$0-rcv-lop-nbx
empty 0 -8 0 10 -262144 -1 -1 13830.7 256;
#X text 1125 384 Hz;
#X obj 1004 -2 nbx 5 17 0 1e+037 0 1 \$0-snd-sed empty NOISE-SEED 0
-8 0 10 -262144 -1 -1 275 256;
#X obj 934 -2 tgl 17 1 \$0-snd-lok empty NOISE-LOCK 1 -8 0 10 -262144
-1 -1 1 1;
#X obj 1104 33 nbx 3 17 -100 0 0 1 \$0-snd-vel empty VELOCITY-AMOUNT
0 -8 0 10 -262144 -1 -1 0 256;
#X text 1142 34 dB;
#X obj 934 348 nbx 5 17 -1000 0 0 1 \$0-snd-fbk empty FEEDBACK 0 -8
0 10 -262144 -1 -1 -10 256;
#X text 992 349 dB;
#X obj 937 418 hsl 128 17 0 127 0 1 \$0-snd-hip empty HPF-CUTOFF -2
-8 0 10 -262144 -1 -1 2300 1;
#X obj 1067 418 nbx 5 17 0 20000 0 0 \$0-snd-hip-nbx \$0-rcv-hip-nbx
empty 0 -8 0 10 -262144 -1 -1 33.915 256;
#X text 1125 419 Hz;
#X obj 1014 348 tgl 17 1 \$0-snd-inv empty INVERT 1 -8 0 10 -262144
-1 -1 0 1;
#X obj 937 73 hsl 128 17 0 127 0 1 \$0-snd-top empty TOP-CUTOFF -2
-8 0 10 -262144 -1 -1 11200 1;
#X obj 1067 73 nbx 5 17 20 20000 0 0 \$0-snd-top-nbx \$0-rcv-top-nbx
empty 0 -8 0 10 -262144 -1 -1 13830.7 256;
#X text 1125 74 Hz;
#X obj 937 108 hsl 128 17 0 127 0 1 \$0-snd-bot empty BOT-CUTOFF -2
-8 0 10 -262144 -1 -1 4000 1;
#X obj 1067 108 nbx 5 17 0 20000 0 0 \$0-snd-bot-nbx \$0-rcv-bot-nbx
empty 0 -8 0 10 -262144 -1 -1 97.0673 256;
#X text 1125 109 Hz;
#X obj 641 28 unpack f f;
#N canvas 193 160 809 686 voice 0;
#X obj 12 42 inlet;
#X obj 12 126 mtof;
#X msg 12 147 1000 \$1;
#X obj 12 168 /;
#X obj 127 12 inlet;
#X obj 12 63 list prepend;
#X obj 127 33 > 0;
#X obj 12 84 route 1;
#X msg 169 270 1 \, 0 \$1;
#X obj 169 291 vline~;
#X obj 12 635 outlet~;
#X obj 12 439 +~;
#X obj 315 47 sel 1;
#X msg 345 486 clear;
#X obj 315 27 block~ 1 1 1;
#N canvas 498 82 752 157 sinesum 0;
#X obj 62 54 +~ 0.25;
#X obj 62 75 cos~;
#X obj 62 33 *~;
#X obj 62 117 *~;
#X obj 142 54 +~ 0.25;
#X obj 142 75 cos~;
#X obj 142 33 *~;
#X obj 142 117 *~;
#X obj 222 54 +~ 0.25;
#X obj 222 75 cos~;
#X obj 222 33 *~;
#X obj 222 117 *~;
#X obj 302 54 +~ 0.25;
#X obj 302 75 cos~;
#X obj 302 33 *~;
#X obj 302 117 *~;
#X obj 382 54 +~ 0.25;
#X obj 382 75 cos~;
#X obj 382 33 *~;
#X obj 382 117 *~;
#X obj 462 54 +~ 0.25;
#X obj 462 75 cos~;
#X obj 462 33 *~;
#X obj 462 117 *~;
#X obj 552 54 +~ 0.25;
#X obj 552 75 cos~;
#X obj 552 33 *~;
#X obj 552 117 *~;
#X obj 642 54 +~ 0.25;
#X obj 642 75 cos~;
#X obj 642 33 *~;
#X obj 642 117 *~;
#X obj 12 19 inlet~;
#X obj 77 96 r \$0-sin-0;
#X obj 62 131 outlet~;
#X obj 157 96 r \$0-sin-1;
#X obj 237 96 r \$0-sin-2;
#X obj 317 96 r \$0-sin-3;
#X obj 397 96 r \$0-sin-4;
#X obj 477 96 r \$0-sin-5;
#X obj 567 96 r \$0-sin-6;
#X obj 657 96 r \$0-sin-7;
#X obj 77 12 r \$0-hrm-0;
#X obj 157 12 r \$0-hrm-1;
#X obj 237 12 r \$0-hrm-2;
#X obj 317 12 r \$0-hrm-3;
#X obj 397 12 r \$0-hrm-4;
#X obj 477 12 r \$0-hrm-5;
#X obj 567 12 r \$0-hrm-6;
#X obj 657 12 r \$0-hrm-7;
#X connect 0 0 1 0;
#X connect 1 0 3 0;
#X connect 2 0 0 0;
#X connect 3 0 34 0;
#X connect 4 0 5 0;
#X connect 5 0 7 0;
#X connect 6 0 4 0;
#X connect 7 0 34 0;
#X connect 8 0 9 0;
#X connect 9 0 11 0;
#X connect 10 0 8 0;
#X connect 11 0 34 0;
#X connect 12 0 13 0;
#X connect 13 0 15 0;
#X connect 14 0 12 0;
#X connect 15 0 34 0;
#X connect 16 0 17 0;
#X connect 17 0 19 0;
#X connect 18 0 16 0;
#X connect 19 0 34 0;
#X connect 20 0 21 0;
#X connect 21 0 23 0;
#X connect 22 0 20 0;
#X connect 23 0 34 0;
#X connect 24 0 25 0;
#X connect 25 0 27 0;
#X connect 26 0 24 0;
#X connect 27 0 34 0;
#X connect 28 0 29 0;
#X connect 29 0 31 0;
#X connect 30 0 28 0;
#X connect 31 0 34 0;
#X connect 32 0 2 0;
#X connect 32 0 30 0;
#X connect 32 0 26 0;
#X connect 32 0 22 0;
#X connect 32 0 18 0;
#X connect 32 0 14 0;
#X connect 32 0 10 0;
#X connect 32 0 6 0;
#X connect 33 0 3 1;
#X connect 35 0 7 1;
#X connect 36 0 11 1;
#X connect 37 0 15 1;
#X connect 38 0 19 1;
#X connect 39 0 23 1;
#X connect 40 0 27 1;
#X connect 41 0 31 1;
#X connect 42 0 2 1;
#X connect 43 0 6 1;
#X connect 44 0 10 1;
#X connect 45 0 14 1;
#X connect 46 0 18 1;
#X connect 47 0 22 1;
#X connect 48 0 26 1;
#X connect 49 0 30 1;
#X restore 169 312 pd sinesum;
#X msg 82 276 1 \, 0 0 \$1;
#X obj 82 297 vline~;
#X obj 12 290 noise~;
#X obj 12 311 *~;
#X obj 12 609 *~;
#X obj 238 314 r \$0-snd-nse;
#X msg 127 297 1 \$1;
#X obj 238 335 / 127;
#X obj 12 332 *~;
#X obj 169 349 *~;
#X obj 127 318 -;
#X obj 12 363 +~;
#X obj 127 532 max 1;
#X obj 154 469 r \$0-gte;
#X msg 154 490 1 \$1;
#X obj 154 511 -;
#X obj 12 105 pipe 2;
#X obj 345 73 del 2;
#X msg 315 529 0 1;
#X obj 315 550 line~;
#X msg 345 529 1;
#X obj 12 564 *~;
#X obj 127 553 sel 0;
#X obj 127 595 line~;
#X obj 12 500 lop~;
#X obj 420 199 / 127;
#X obj 420 262 + 16;
#X obj 420 283 mtof;
#X obj 405 366 f;
#X obj 12 189 bang;
#X obj 12 210 spigot;
#X msg 12 269 seed \$2;
#X obj 12 231 pack f f;
#X obj 89 173 r \$0-snd-lok;
#X obj 99 215 r \$0-snd-sed;
#X obj 420 220 sqrt;
#X obj 420 241 * 120;
#X obj 420 304 min 20000;
#X obj 162 578 pipe 2;
#X obj 12 384 *~;
#X obj 237 103 sel 0;
#X obj 237 124 - 1;
#X obj 237 145 / 126;
#X obj 237 166 pipe 2;
#X msg 237 187 1 \$1;
#X obj 237 208 -;
#X obj 269 208 r \$0-snd-vel;
#X obj 237 229 *;
#X obj 237 250 + 100;
#X obj 237 271 dbtorms;
#X obj 204 446 *~;
#X obj 314 327 r \$0-snd-fbk;
#X obj 314 369 + 100;
#X obj 314 390 dbtorms;
#X msg 314 411 \$1 5;
#X obj 314 432 line~;
#X obj 314 348 / 10;
#X obj 523 336 / 127;
#X obj 523 418 mtof;
#X obj 508 501 f;
#X obj 523 439 min 20000;
#X obj 420 325 s \$0-rcv-lop-nbx;
#X obj 420 178 r \$0-snd-lop;
#X obj 420 346 r \$0-snd-lop-nbx;
#X obj 523 315 r \$0-snd-hip;
#X obj 523 460 s \$0-rcv-hip-nbx;
#X obj 523 481 r \$0-snd-hip-nbx;
#X obj 12 521 hip~;
#X msg 127 574 0 1;
#X obj 204 467 *~;
#X obj 431 426 r \$0-snd-inv;
#X obj 431 447 * -2;
#X obj 431 468 + 1;
#X obj 598 221 -;
#X obj 689 207 t b f;
#X obj 555 249 *;
#X obj 555 270 +;
#X obj 12 405 lop~;
#X obj 523 397 * 136;
#X obj 571 391 sel 0;
#X obj 523 357 t f f;
#X msg 571 412 0;
#X obj 550 36 / 127;
#X obj 550 99 + 16;
#X obj 550 120 mtof;
#X obj 550 57 sqrt;
#X obj 550 78 * 120;
#X obj 550 141 min 20000;
#X obj 688 41 / 127;
#X obj 688 123 mtof;
#X obj 688 144 min 20000;
#X obj 688 102 * 136;
#X obj 736 96 sel 0;
#X obj 688 62 t f f;
#X msg 736 117 0;
#X obj 550 15 r \$0-snd-top;
#X obj 550 162 s \$0-rcv-top-nbx;
#X obj 550 183 r \$0-snd-top-nbx;
#X obj 689 186 r \$0-snd-bot-nbx;
#X obj 688 165 s \$0-rcv-bot-nbx;
#X obj 688 20 r \$0-snd-bot;
#X obj 365 623 delwrite~ \$0-del-2 100;
#X obj 204 425 delread4~ \$0-del-2;
#X connect 0 0 5 0;
#X connect 1 0 2 0;
#X connect 2 0 3 0;
#X connect 3 0 8 0;
#X connect 3 0 16 0;
#X connect 3 0 45 0;
#X connect 3 0 118 0;
#X connect 4 0 6 0;
#X connect 4 0 56 0;
#X connect 5 0 7 0;
#X connect 6 0 5 1;
#X connect 6 0 12 0;
#X connect 6 0 28 0;
#X connect 7 0 32 0;
#X connect 8 0 9 0;
#X connect 9 0 15 0;
#X connect 11 0 40 0;
#X connect 12 0 33 0;
#X connect 12 0 34 0;
#X connect 12 0 44 0;
#X connect 12 0 75 0;
#X connect 13 0 40 0;
#X connect 13 0 83 0;
#X connect 13 0 93 0;
#X connect 13 0 117 0;
#X connect 15 0 25 0;
#X connect 16 0 17 0;
#X connect 17 0 19 1;
#X connect 18 0 19 0;
#X connect 19 0 24 0;
#X connect 20 0 10 0;
#X connect 20 0 117 0;
#X connect 21 0 23 0;
#X connect 22 0 26 0;
#X connect 23 0 22 0;
#X connect 23 0 25 1;
#X connect 24 0 27 0;
#X connect 25 0 27 1;
#X connect 26 0 24 1;
#X connect 27 0 55 0;
#X connect 28 0 38 0;
#X connect 29 0 30 0;
#X connect 30 0 31 0;
#X connect 31 0 28 1;
#X connect 32 0 1 0;
#X connect 33 0 13 0;
#X connect 33 0 36 0;
#X connect 34 0 35 0;
#X connect 35 0 37 1;
#X connect 36 0 35 0;
#X connect 37 0 20 0;
#X connect 38 0 84 0;
#X connect 38 1 54 0;
#X connect 39 0 20 1;
#X connect 40 0 83 0;
#X connect 41 0 51 0;
#X connect 42 0 43 0;
#X connect 43 0 53 0;
#X connect 44 0 40 1;
#X connect 45 0 46 0;
#X connect 46 0 48 0;
#X connect 47 0 18 0;
#X connect 48 0 47 0;
#X connect 49 0 46 1;
#X connect 50 0 48 1;
#X connect 51 0 52 0;
#X connect 52 0 42 0;
#X connect 53 0 77 0;
#X connect 54 0 39 0;
#X connect 55 0 93 0;
#X connect 56 1 57 0;
#X connect 57 0 58 0;
#X connect 58 0 59 0;
#X connect 59 0 60 0;
#X connect 59 0 91 0;
#X connect 60 0 61 0;
#X connect 61 0 63 0;
#X connect 62 0 63 1;
#X connect 63 0 64 0;
#X connect 64 0 65 0;
#X connect 65 0 55 1;
#X connect 66 0 85 0;
#X connect 67 0 72 0;
#X connect 68 0 69 0;
#X connect 69 0 70 0;
#X connect 70 0 71 0;
#X connect 71 0 66 1;
#X connect 72 0 68 0;
#X connect 73 0 96 0;
#X connect 74 0 76 0;
#X connect 75 0 83 1;
#X connect 76 0 81 0;
#X connect 78 0 41 0;
#X connect 79 0 44 1;
#X connect 80 0 73 0;
#X connect 82 0 75 1;
#X connect 83 0 37 0;
#X connect 84 0 39 0;
#X connect 85 0 11 1;
#X connect 86 0 87 0;
#X connect 87 0 88 0;
#X connect 88 0 85 1;
#X connect 89 0 91 1;
#X connect 90 0 89 0;
#X connect 90 1 89 1;
#X connect 90 1 92 1;
#X connect 91 0 92 0;
#X connect 92 0 93 1;
#X connect 93 0 11 0;
#X connect 94 0 74 0;
#X connect 95 0 97 0;
#X connect 96 0 95 0;
#X connect 96 1 94 0;
#X connect 97 0 76 0;
#X connect 98 0 101 0;
#X connect 99 0 100 0;
#X connect 100 0 103 0;
#X connect 101 0 102 0;
#X connect 102 0 99 0;
#X connect 103 0 112 0;
#X connect 104 0 109 0;
#X connect 105 0 106 0;
#X connect 106 0 115 0;
#X connect 107 0 105 0;
#X connect 108 0 110 0;
#X connect 109 0 108 0;
#X connect 109 1 107 0;
#X connect 110 0 106 0;
#X connect 111 0 98 0;
#X connect 113 0 89 0;
#X connect 114 0 90 0;
#X connect 116 0 104 0;
#X connect 118 0 66 0;
#X restore 641 70 pd voice;
#X obj 1207 383 nbx 5 17 -1e+037 1e+037 0 1 \$0-tun empty SECOND-OPERATOR-TUNING
0 -8 0 10 -262144 -1 -1 0 256;
#X obj 715 35 r \$0-tun;
#X obj 641 49 +;
#X obj 1207 418 nbx 5 17 -100 0 0 1 \$0-vol empty SECOND-OPERATOR-VOLUME
0 -8 0 10 -262144 -1 -1 -15 256;
#X obj 641 91 *~;
#X obj 772 -7 r \$0-vol;
#X obj 772 14 + 100;
#X obj 772 35 dbtorms;
#X msg 772 56 \$1 5;
#X obj 772 77 line~;
#X obj 561 105 +~;
#X obj 561 136 r \$0-poly;
#X obj 561 213 unpack f f;
#N canvas 193 160 809 686 voice 0;
#X obj 12 42 inlet;
#X obj 12 126 mtof;
#X msg 12 147 1000 \$1;
#X obj 12 168 /;
#X obj 127 12 inlet;
#X obj 12 63 list prepend;
#X obj 127 33 > 0;
#X obj 12 84 route 1;
#X msg 169 270 1 \, 0 \$1;
#X obj 169 291 vline~;
#X obj 12 635 outlet~;
#X obj 12 439 +~;
#X obj 315 47 sel 1;
#X msg 345 486 clear;
#X obj 315 27 block~ 1 1 1;
#N canvas 498 82 752 157 sinesum 0;
#X obj 62 54 +~ 0.25;
#X obj 62 75 cos~;
#X obj 62 33 *~;
#X obj 62 117 *~;
#X obj 142 54 +~ 0.25;
#X obj 142 75 cos~;
#X obj 142 33 *~;
#X obj 142 117 *~;
#X obj 222 54 +~ 0.25;
#X obj 222 75 cos~;
#X obj 222 33 *~;
#X obj 222 117 *~;
#X obj 302 54 +~ 0.25;
#X obj 302 75 cos~;
#X obj 302 33 *~;
#X obj 302 117 *~;
#X obj 382 54 +~ 0.25;
#X obj 382 75 cos~;
#X obj 382 33 *~;
#X obj 382 117 *~;
#X obj 462 54 +~ 0.25;
#X obj 462 75 cos~;
#X obj 462 33 *~;
#X obj 462 117 *~;
#X obj 552 54 +~ 0.25;
#X obj 552 75 cos~;
#X obj 552 33 *~;
#X obj 552 117 *~;
#X obj 642 54 +~ 0.25;
#X obj 642 75 cos~;
#X obj 642 33 *~;
#X obj 642 117 *~;
#X obj 12 19 inlet~;
#X obj 77 96 r \$0-sin-0;
#X obj 62 131 outlet~;
#X obj 157 96 r \$0-sin-1;
#X obj 237 96 r \$0-sin-2;
#X obj 317 96 r \$0-sin-3;
#X obj 397 96 r \$0-sin-4;
#X obj 477 96 r \$0-sin-5;
#X obj 567 96 r \$0-sin-6;
#X obj 657 96 r \$0-sin-7;
#X obj 77 12 r \$0-hrm-0;
#X obj 157 12 r \$0-hrm-1;
#X obj 237 12 r \$0-hrm-2;
#X obj 317 12 r \$0-hrm-3;
#X obj 397 12 r \$0-hrm-4;
#X obj 477 12 r \$0-hrm-5;
#X obj 567 12 r \$0-hrm-6;
#X obj 657 12 r \$0-hrm-7;
#X connect 0 0 1 0;
#X connect 1 0 3 0;
#X connect 2 0 0 0;
#X connect 3 0 34 0;
#X connect 4 0 5 0;
#X connect 5 0 7 0;
#X connect 6 0 4 0;
#X connect 7 0 34 0;
#X connect 8 0 9 0;
#X connect 9 0 11 0;
#X connect 10 0 8 0;
#X connect 11 0 34 0;
#X connect 12 0 13 0;
#X connect 13 0 15 0;
#X connect 14 0 12 0;
#X connect 15 0 34 0;
#X connect 16 0 17 0;
#X connect 17 0 19 0;
#X connect 18 0 16 0;
#X connect 19 0 34 0;
#X connect 20 0 21 0;
#X connect 21 0 23 0;
#X connect 22 0 20 0;
#X connect 23 0 34 0;
#X connect 24 0 25 0;
#X connect 25 0 27 0;
#X connect 26 0 24 0;
#X connect 27 0 34 0;
#X connect 28 0 29 0;
#X connect 29 0 31 0;
#X connect 30 0 28 0;
#X connect 31 0 34 0;
#X connect 32 0 2 0;
#X connect 32 0 30 0;
#X connect 32 0 26 0;
#X connect 32 0 22 0;
#X connect 32 0 18 0;
#X connect 32 0 14 0;
#X connect 32 0 10 0;
#X connect 32 0 6 0;
#X connect 33 0 3 1;
#X connect 35 0 7 1;
#X connect 36 0 11 1;
#X connect 37 0 15 1;
#X connect 38 0 19 1;
#X connect 39 0 23 1;
#X connect 40 0 27 1;
#X connect 41 0 31 1;
#X connect 42 0 2 1;
#X connect 43 0 6 1;
#X connect 44 0 10 1;
#X connect 45 0 14 1;
#X connect 46 0 18 1;
#X connect 47 0 22 1;
#X connect 48 0 26 1;
#X connect 49 0 30 1;
#X restore 169 312 pd sinesum;
#X msg 82 276 1 \, 0 0 \$1;
#X obj 82 297 vline~;
#X obj 12 290 noise~;
#X obj 12 311 *~;
#X obj 12 609 *~;
#X obj 238 314 r \$0-snd-nse;
#X msg 127 297 1 \$1;
#X obj 238 335 / 127;
#X obj 12 332 *~;
#X obj 169 349 *~;
#X obj 127 318 -;
#X obj 12 363 +~;
#X obj 127 532 max 1;
#X obj 154 469 r \$0-gte;
#X msg 154 490 1 \$1;
#X obj 154 511 -;
#X obj 12 105 pipe 2;
#X obj 345 73 del 2;
#X msg 315 529 0 1;
#X obj 315 550 line~;
#X msg 345 529 1;
#X obj 12 564 *~;
#X obj 127 553 sel 0;
#X obj 127 595 line~;
#X obj 12 500 lop~;
#X obj 420 199 / 127;
#X obj 420 262 + 16;
#X obj 420 283 mtof;
#X obj 405 366 f;
#X obj 12 189 bang;
#X obj 12 210 spigot;
#X msg 12 269 seed \$2;
#X obj 12 231 pack f f;
#X obj 89 173 r \$0-snd-lok;
#X obj 99 215 r \$0-snd-sed;
#X obj 420 220 sqrt;
#X obj 420 241 * 120;
#X obj 420 304 min 20000;
#X obj 162 578 pipe 2;
#X obj 12 384 *~;
#X obj 237 103 sel 0;
#X obj 237 124 - 1;
#X obj 237 145 / 126;
#X obj 237 166 pipe 2;
#X msg 237 187 1 \$1;
#X obj 237 208 -;
#X obj 269 208 r \$0-snd-vel;
#X obj 237 229 *;
#X obj 237 250 + 100;
#X obj 237 271 dbtorms;
#X obj 204 446 *~;
#X obj 314 327 r \$0-snd-fbk;
#X obj 314 369 + 100;
#X obj 314 390 dbtorms;
#X msg 314 411 \$1 5;
#X obj 314 432 line~;
#X obj 314 348 / 10;
#X obj 523 336 / 127;
#X obj 523 418 mtof;
#X obj 508 501 f;
#X obj 523 439 min 20000;
#X obj 420 325 s \$0-rcv-lop-nbx;
#X obj 420 178 r \$0-snd-lop;
#X obj 420 346 r \$0-snd-lop-nbx;
#X obj 523 315 r \$0-snd-hip;
#X obj 523 460 s \$0-rcv-hip-nbx;
#X obj 523 481 r \$0-snd-hip-nbx;
#X obj 12 521 hip~;
#X msg 127 574 0 1;
#X obj 204 467 *~;
#X obj 431 426 r \$0-snd-inv;
#X obj 431 447 * -2;
#X obj 431 468 + 1;
#X obj 598 221 -;
#X obj 689 207 t b f;
#X obj 555 249 *;
#X obj 555 270 +;
#X obj 12 405 lop~;
#X obj 523 397 * 136;
#X obj 571 391 sel 0;
#X obj 523 357 t f f;
#X msg 571 412 0;
#X obj 550 36 / 127;
#X obj 550 99 + 16;
#X obj 550 120 mtof;
#X obj 550 57 sqrt;
#X obj 550 78 * 120;
#X obj 550 141 min 20000;
#X obj 688 41 / 127;
#X obj 688 123 mtof;
#X obj 688 144 min 20000;
#X obj 688 102 * 136;
#X obj 736 96 sel 0;
#X obj 688 62 t f f;
#X msg 736 117 0;
#X obj 550 15 r \$0-snd-top;
#X obj 550 162 s \$0-rcv-top-nbx;
#X obj 550 183 r \$0-snd-top-nbx;
#X obj 689 186 r \$0-snd-bot-nbx;
#X obj 688 165 s \$0-rcv-bot-nbx;
#X obj 688 20 r \$0-snd-bot;
#X obj 365 623 delwrite~ \$0-del-3 100;
#X obj 204 425 delread4~ \$0-del-3;
#X connect 0 0 5 0;
#X connect 1 0 2 0;
#X connect 2 0 3 0;
#X connect 3 0 8 0;
#X connect 3 0 16 0;
#X connect 3 0 45 0;
#X connect 3 0 118 0;
#X connect 4 0 6 0;
#X connect 4 0 56 0;
#X connect 5 0 7 0;
#X connect 6 0 5 1;
#X connect 6 0 12 0;
#X connect 6 0 28 0;
#X connect 7 0 32 0;
#X connect 8 0 9 0;
#X connect 9 0 15 0;
#X connect 11 0 40 0;
#X connect 12 0 33 0;
#X connect 12 0 34 0;
#X connect 12 0 44 0;
#X connect 12 0 75 0;
#X connect 13 0 40 0;
#X connect 13 0 83 0;
#X connect 13 0 93 0;
#X connect 13 0 117 0;
#X connect 15 0 25 0;
#X connect 16 0 17 0;
#X connect 17 0 19 1;
#X connect 18 0 19 0;
#X connect 19 0 24 0;
#X connect 20 0 10 0;
#X connect 20 0 117 0;
#X connect 21 0 23 0;
#X connect 22 0 26 0;
#X connect 23 0 22 0;
#X connect 23 0 25 1;
#X connect 24 0 27 0;
#X connect 25 0 27 1;
#X connect 26 0 24 1;
#X connect 27 0 55 0;
#X connect 28 0 38 0;
#X connect 29 0 30 0;
#X connect 30 0 31 0;
#X connect 31 0 28 1;
#X connect 32 0 1 0;
#X connect 33 0 13 0;
#X connect 33 0 36 0;
#X connect 34 0 35 0;
#X connect 35 0 37 1;
#X connect 36 0 35 0;
#X connect 37 0 20 0;
#X connect 38 0 84 0;
#X connect 38 1 54 0;
#X connect 39 0 20 1;
#X connect 40 0 83 0;
#X connect 41 0 51 0;
#X connect 42 0 43 0;
#X connect 43 0 53 0;
#X connect 44 0 40 1;
#X connect 45 0 46 0;
#X connect 46 0 48 0;
#X connect 47 0 18 0;
#X connect 48 0 47 0;
#X connect 49 0 46 1;
#X connect 50 0 48 1;
#X connect 51 0 52 0;
#X connect 52 0 42 0;
#X connect 53 0 77 0;
#X connect 54 0 39 0;
#X connect 55 0 93 0;
#X connect 56 1 57 0;
#X connect 57 0 58 0;
#X connect 58 0 59 0;
#X connect 59 0 60 0;
#X connect 59 0 91 0;
#X connect 60 0 61 0;
#X connect 61 0 63 0;
#X connect 62 0 63 1;
#X connect 63 0 64 0;
#X connect 64 0 65 0;
#X connect 65 0 55 1;
#X connect 66 0 85 0;
#X connect 67 0 72 0;
#X connect 68 0 69 0;
#X connect 69 0 70 0;
#X connect 70 0 71 0;
#X connect 71 0 66 1;
#X connect 72 0 68 0;
#X connect 73 0 96 0;
#X connect 74 0 76 0;
#X connect 75 0 83 1;
#X connect 76 0 81 0;
#X connect 78 0 41 0;
#X connect 79 0 44 1;
#X connect 80 0 73 0;
#X connect 82 0 75 1;
#X connect 83 0 37 0;
#X connect 84 0 39 0;
#X connect 85 0 11 1;
#X connect 86 0 87 0;
#X connect 87 0 88 0;
#X connect 88 0 85 1;
#X connect 89 0 91 1;
#X connect 90 0 89 0;
#X connect 90 1 89 1;
#X connect 90 1 92 1;
#X connect 91 0 92 0;
#X connect 92 0 93 1;
#X connect 93 0 11 0;
#X connect 94 0 74 0;
#X connect 95 0 97 0;
#X connect 96 0 95 0;
#X connect 96 1 94 0;
#X connect 97 0 76 0;
#X connect 98 0 101 0;
#X connect 99 0 100 0;
#X connect 100 0 103 0;
#X connect 101 0 102 0;
#X connect 102 0 99 0;
#X connect 103 0 112 0;
#X connect 104 0 109 0;
#X connect 105 0 106 0;
#X connect 106 0 115 0;
#X connect 107 0 105 0;
#X connect 108 0 110 0;
#X connect 109 0 108 0;
#X connect 109 1 107 0;
#X connect 110 0 106 0;
#X connect 111 0 98 0;
#X connect 113 0 89 0;
#X connect 114 0 90 0;
#X connect 116 0 104 0;
#X connect 118 0 66 0;
#X restore 561 234 pd voice;
#X obj 641 178 unpack f f;
#N canvas 193 160 809 686 voice 0;
#X obj 12 42 inlet;
#X obj 12 126 mtof;
#X msg 12 147 1000 \$1;
#X obj 12 168 /;
#X obj 127 12 inlet;
#X obj 12 63 list prepend;
#X obj 127 33 > 0;
#X obj 12 84 route 1;
#X msg 169 270 1 \, 0 \$1;
#X obj 169 291 vline~;
#X obj 12 635 outlet~;
#X obj 12 439 +~;
#X obj 315 47 sel 1;
#X msg 345 486 clear;
#X obj 315 27 block~ 1 1 1;
#N canvas 498 82 752 157 sinesum 0;
#X obj 62 54 +~ 0.25;
#X obj 62 75 cos~;
#X obj 62 33 *~;
#X obj 62 117 *~;
#X obj 142 54 +~ 0.25;
#X obj 142 75 cos~;
#X obj 142 33 *~;
#X obj 142 117 *~;
#X obj 222 54 +~ 0.25;
#X obj 222 75 cos~;
#X obj 222 33 *~;
#X obj 222 117 *~;
#X obj 302 54 +~ 0.25;
#X obj 302 75 cos~;
#X obj 302 33 *~;
#X obj 302 117 *~;
#X obj 382 54 +~ 0.25;
#X obj 382 75 cos~;
#X obj 382 33 *~;
#X obj 382 117 *~;
#X obj 462 54 +~ 0.25;
#X obj 462 75 cos~;
#X obj 462 33 *~;
#X obj 462 117 *~;
#X obj 552 54 +~ 0.25;
#X obj 552 75 cos~;
#X obj 552 33 *~;
#X obj 552 117 *~;
#X obj 642 54 +~ 0.25;
#X obj 642 75 cos~;
#X obj 642 33 *~;
#X obj 642 117 *~;
#X obj 12 19 inlet~;
#X obj 77 96 r \$0-sin-0;
#X obj 62 131 outlet~;
#X obj 157 96 r \$0-sin-1;
#X obj 237 96 r \$0-sin-2;
#X obj 317 96 r \$0-sin-3;
#X obj 397 96 r \$0-sin-4;
#X obj 477 96 r \$0-sin-5;
#X obj 567 96 r \$0-sin-6;
#X obj 657 96 r \$0-sin-7;
#X obj 77 12 r \$0-hrm-0;
#X obj 157 12 r \$0-hrm-1;
#X obj 237 12 r \$0-hrm-2;
#X obj 317 12 r \$0-hrm-3;
#X obj 397 12 r \$0-hrm-4;
#X obj 477 12 r \$0-hrm-5;
#X obj 567 12 r \$0-hrm-6;
#X obj 657 12 r \$0-hrm-7;
#X connect 0 0 1 0;
#X connect 1 0 3 0;
#X connect 2 0 0 0;
#X connect 3 0 34 0;
#X connect 4 0 5 0;
#X connect 5 0 7 0;
#X connect 6 0 4 0;
#X connect 7 0 34 0;
#X connect 8 0 9 0;
#X connect 9 0 11 0;
#X connect 10 0 8 0;
#X connect 11 0 34 0;
#X connect 12 0 13 0;
#X connect 13 0 15 0;
#X connect 14 0 12 0;
#X connect 15 0 34 0;
#X connect 16 0 17 0;
#X connect 17 0 19 0;
#X connect 18 0 16 0;
#X connect 19 0 34 0;
#X connect 20 0 21 0;
#X connect 21 0 23 0;
#X connect 22 0 20 0;
#X connect 23 0 34 0;
#X connect 24 0 25 0;
#X connect 25 0 27 0;
#X connect 26 0 24 0;
#X connect 27 0 34 0;
#X connect 28 0 29 0;
#X connect 29 0 31 0;
#X connect 30 0 28 0;
#X connect 31 0 34 0;
#X connect 32 0 2 0;
#X connect 32 0 30 0;
#X connect 32 0 26 0;
#X connect 32 0 22 0;
#X connect 32 0 18 0;
#X connect 32 0 14 0;
#X connect 32 0 10 0;
#X connect 32 0 6 0;
#X connect 33 0 3 1;
#X connect 35 0 7 1;
#X connect 36 0 11 1;
#X connect 37 0 15 1;
#X connect 38 0 19 1;
#X connect 39 0 23 1;
#X connect 40 0 27 1;
#X connect 41 0 31 1;
#X connect 42 0 2 1;
#X connect 43 0 6 1;
#X connect 44 0 10 1;
#X connect 45 0 14 1;
#X connect 46 0 18 1;
#X connect 47 0 22 1;
#X connect 48 0 26 1;
#X connect 49 0 30 1;
#X restore 169 312 pd sinesum;
#X msg 82 276 1 \, 0 0 \$1;
#X obj 82 297 vline~;
#X obj 12 290 noise~;
#X obj 12 311 *~;
#X obj 12 609 *~;
#X obj 238 314 r \$0-snd-nse;
#X msg 127 297 1 \$1;
#X obj 238 335 / 127;
#X obj 12 332 *~;
#X obj 169 349 *~;
#X obj 127 318 -;
#X obj 12 363 +~;
#X obj 127 532 max 1;
#X obj 154 469 r \$0-gte;
#X msg 154 490 1 \$1;
#X obj 154 511 -;
#X obj 12 105 pipe 2;
#X obj 345 73 del 2;
#X msg 315 529 0 1;
#X obj 315 550 line~;
#X msg 345 529 1;
#X obj 12 564 *~;
#X obj 127 553 sel 0;
#X obj 127 595 line~;
#X obj 12 500 lop~;
#X obj 420 199 / 127;
#X obj 420 262 + 16;
#X obj 420 283 mtof;
#X obj 405 366 f;
#X obj 12 189 bang;
#X obj 12 210 spigot;
#X msg 12 269 seed \$2;
#X obj 12 231 pack f f;
#X obj 89 173 r \$0-snd-lok;
#X obj 99 215 r \$0-snd-sed;
#X obj 420 220 sqrt;
#X obj 420 241 * 120;
#X obj 420 304 min 20000;
#X obj 162 578 pipe 2;
#X obj 12 384 *~;
#X obj 237 103 sel 0;
#X obj 237 124 - 1;
#X obj 237 145 / 126;
#X obj 237 166 pipe 2;
#X msg 237 187 1 \$1;
#X obj 237 208 -;
#X obj 269 208 r \$0-snd-vel;
#X obj 237 229 *;
#X obj 237 250 + 100;
#X obj 237 271 dbtorms;
#X obj 204 446 *~;
#X obj 314 327 r \$0-snd-fbk;
#X obj 314 369 + 100;
#X obj 314 390 dbtorms;
#X msg 314 411 \$1 5;
#X obj 314 432 line~;
#X obj 314 348 / 10;
#X obj 523 336 / 127;
#X obj 523 418 mtof;
#X obj 508 501 f;
#X obj 523 439 min 20000;
#X obj 420 325 s \$0-rcv-lop-nbx;
#X obj 420 178 r \$0-snd-lop;
#X obj 420 346 r \$0-snd-lop-nbx;
#X obj 523 315 r \$0-snd-hip;
#X obj 523 460 s \$0-rcv-hip-nbx;
#X obj 523 481 r \$0-snd-hip-nbx;
#X obj 12 521 hip~;
#X msg 127 574 0 1;
#X obj 204 467 *~;
#X obj 431 426 r \$0-snd-inv;
#X obj 431 447 * -2;
#X obj 431 468 + 1;
#X obj 598 221 -;
#X obj 689 207 t b f;
#X obj 555 249 *;
#X obj 555 270 +;
#X obj 12 405 lop~;
#X obj 523 397 * 136;
#X obj 571 391 sel 0;
#X obj 523 357 t f f;
#X msg 571 412 0;
#X obj 550 36 / 127;
#X obj 550 99 + 16;
#X obj 550 120 mtof;
#X obj 550 57 sqrt;
#X obj 550 78 * 120;
#X obj 550 141 min 20000;
#X obj 688 41 / 127;
#X obj 688 123 mtof;
#X obj 688 144 min 20000;
#X obj 688 102 * 136;
#X obj 736 96 sel 0;
#X obj 688 62 t f f;
#X msg 736 117 0;
#X obj 550 15 r \$0-snd-top;
#X obj 550 162 s \$0-rcv-top-nbx;
#X obj 550 183 r \$0-snd-top-nbx;
#X obj 689 186 r \$0-snd-bot-nbx;
#X obj 688 165 s \$0-rcv-bot-nbx;
#X obj 688 20 r \$0-snd-bot;
#X obj 365 623 delwrite~ \$0-del-4 100;
#X obj 204 425 delread4~ \$0-del-4;
#X connect 0 0 5 0;
#X connect 1 0 2 0;
#X connect 2 0 3 0;
#X connect 3 0 8 0;
#X connect 3 0 16 0;
#X connect 3 0 45 0;
#X connect 3 0 118 0;
#X connect 4 0 6 0;
#X connect 4 0 56 0;
#X connect 5 0 7 0;
#X connect 6 0 5 1;
#X connect 6 0 12 0;
#X connect 6 0 28 0;
#X connect 7 0 32 0;
#X connect 8 0 9 0;
#X connect 9 0 15 0;
#X connect 11 0 40 0;
#X connect 12 0 33 0;
#X connect 12 0 34 0;
#X connect 12 0 44 0;
#X connect 12 0 75 0;
#X connect 13 0 40 0;
#X connect 13 0 83 0;
#X connect 13 0 93 0;
#X connect 13 0 117 0;
#X connect 15 0 25 0;
#X connect 16 0 17 0;
#X connect 17 0 19 1;
#X connect 18 0 19 0;
#X connect 19 0 24 0;
#X connect 20 0 10 0;
#X connect 20 0 117 0;
#X connect 21 0 23 0;
#X connect 22 0 26 0;
#X connect 23 0 22 0;
#X connect 23 0 25 1;
#X connect 24 0 27 0;
#X connect 25 0 27 1;
#X connect 26 0 24 1;
#X connect 27 0 55 0;
#X connect 28 0 38 0;
#X connect 29 0 30 0;
#X connect 30 0 31 0;
#X connect 31 0 28 1;
#X connect 32 0 1 0;
#X connect 33 0 13 0;
#X connect 33 0 36 0;
#X connect 34 0 35 0;
#X connect 35 0 37 1;
#X connect 36 0 35 0;
#X connect 37 0 20 0;
#X connect 38 0 84 0;
#X connect 38 1 54 0;
#X connect 39 0 20 1;
#X connect 40 0 83 0;
#X connect 41 0 51 0;
#X connect 42 0 43 0;
#X connect 43 0 53 0;
#X connect 44 0 40 1;
#X connect 45 0 46 0;
#X connect 46 0 48 0;
#X connect 47 0 18 0;
#X connect 48 0 47 0;
#X connect 49 0 46 1;
#X connect 50 0 48 1;
#X connect 51 0 52 0;
#X connect 52 0 42 0;
#X connect 53 0 77 0;
#X connect 54 0 39 0;
#X connect 55 0 93 0;
#X connect 56 1 57 0;
#X connect 57 0 58 0;
#X connect 58 0 59 0;
#X connect 59 0 60 0;
#X connect 59 0 91 0;
#X connect 60 0 61 0;
#X connect 61 0 63 0;
#X connect 62 0 63 1;
#X connect 63 0 64 0;
#X connect 64 0 65 0;
#X connect 65 0 55 1;
#X connect 66 0 85 0;
#X connect 67 0 72 0;
#X connect 68 0 69 0;
#X connect 69 0 70 0;
#X connect 70 0 71 0;
#X connect 71 0 66 1;
#X connect 72 0 68 0;
#X connect 73 0 96 0;
#X connect 74 0 76 0;
#X connect 75 0 83 1;
#X connect 76 0 81 0;
#X connect 78 0 41 0;
#X connect 79 0 44 1;
#X connect 80 0 73 0;
#X connect 82 0 75 1;
#X connect 83 0 37 0;
#X connect 84 0 39 0;
#X connect 85 0 11 1;
#X connect 86 0 87 0;
#X connect 87 0 88 0;
#X connect 88 0 85 1;
#X connect 89 0 91 1;
#X connect 90 0 89 0;
#X connect 90 1 89 1;
#X connect 90 1 92 1;
#X connect 91 0 92 0;
#X connect 92 0 93 1;
#X connect 93 0 11 0;
#X connect 94 0 74 0;
#X connect 95 0 97 0;
#X connect 96 0 95 0;
#X connect 96 1 94 0;
#X connect 97 0 76 0;
#X connect 98 0 101 0;
#X connect 99 0 100 0;
#X connect 100 0 103 0;
#X connect 101 0 102 0;
#X connect 102 0 99 0;
#X connect 103 0 112 0;
#X connect 104 0 109 0;
#X connect 105 0 106 0;
#X connect 106 0 115 0;
#X connect 107 0 105 0;
#X connect 108 0 110 0;
#X connect 109 0 108 0;
#X connect 109 1 107 0;
#X connect 110 0 106 0;
#X connect 111 0 98 0;
#X connect 113 0 89 0;
#X connect 114 0 90 0;
#X connect 116 0 104 0;
#X connect 118 0 66 0;
#X restore 641 220 pd voice;
#X obj 715 185 r \$0-tun;
#X obj 641 199 +;
#X obj 641 241 *~;
#X obj 772 143 r \$0-vol;
#X obj 772 164 + 100;
#X obj 772 185 dbtorms;
#X msg 772 206 \$1 5;
#X obj 772 227 line~;
#X obj 561 255 +~;
#X obj 561 286 r \$0-poly;
#X obj 561 363 unpack f f;
#N canvas 193 160 809 686 voice 0;
#X obj 12 42 inlet;
#X obj 12 126 mtof;
#X msg 12 147 1000 \$1;
#X obj 12 168 /;
#X obj 127 12 inlet;
#X obj 12 63 list prepend;
#X obj 127 33 > 0;
#X obj 12 84 route 1;
#X msg 169 270 1 \, 0 \$1;
#X obj 169 291 vline~;
#X obj 12 635 outlet~;
#X obj 12 439 +~;
#X obj 315 47 sel 1;
#X msg 345 486 clear;
#X obj 315 27 block~ 1 1 1;
#N canvas 498 82 752 157 sinesum 0;
#X obj 62 54 +~ 0.25;
#X obj 62 75 cos~;
#X obj 62 33 *~;
#X obj 62 117 *~;
#X obj 142 54 +~ 0.25;
#X obj 142 75 cos~;
#X obj 142 33 *~;
#X obj 142 117 *~;
#X obj 222 54 +~ 0.25;
#X obj 222 75 cos~;
#X obj 222 33 *~;
#X obj 222 117 *~;
#X obj 302 54 +~ 0.25;
#X obj 302 75 cos~;
#X obj 302 33 *~;
#X obj 302 117 *~;
#X obj 382 54 +~ 0.25;
#X obj 382 75 cos~;
#X obj 382 33 *~;
#X obj 382 117 *~;
#X obj 462 54 +~ 0.25;
#X obj 462 75 cos~;
#X obj 462 33 *~;
#X obj 462 117 *~;
#X obj 552 54 +~ 0.25;
#X obj 552 75 cos~;
#X obj 552 33 *~;
#X obj 552 117 *~;
#X obj 642 54 +~ 0.25;
#X obj 642 75 cos~;
#X obj 642 33 *~;
#X obj 642 117 *~;
#X obj 12 19 inlet~;
#X obj 77 96 r \$0-sin-0;
#X obj 62 131 outlet~;
#X obj 157 96 r \$0-sin-1;
#X obj 237 96 r \$0-sin-2;
#X obj 317 96 r \$0-sin-3;
#X obj 397 96 r \$0-sin-4;
#X obj 477 96 r \$0-sin-5;
#X obj 567 96 r \$0-sin-6;
#X obj 657 96 r \$0-sin-7;
#X obj 77 12 r \$0-hrm-0;
#X obj 157 12 r \$0-hrm-1;
#X obj 237 12 r \$0-hrm-2;
#X obj 317 12 r \$0-hrm-3;
#X obj 397 12 r \$0-hrm-4;
#X obj 477 12 r \$0-hrm-5;
#X obj 567 12 r \$0-hrm-6;
#X obj 657 12 r \$0-hrm-7;
#X connect 0 0 1 0;
#X connect 1 0 3 0;
#X connect 2 0 0 0;
#X connect 3 0 34 0;
#X connect 4 0 5 0;
#X connect 5 0 7 0;
#X connect 6 0 4 0;
#X connect 7 0 34 0;
#X connect 8 0 9 0;
#X connect 9 0 11 0;
#X connect 10 0 8 0;
#X connect 11 0 34 0;
#X connect 12 0 13 0;
#X connect 13 0 15 0;
#X connect 14 0 12 0;
#X connect 15 0 34 0;
#X connect 16 0 17 0;
#X connect 17 0 19 0;
#X connect 18 0 16 0;
#X connect 19 0 34 0;
#X connect 20 0 21 0;
#X connect 21 0 23 0;
#X connect 22 0 20 0;
#X connect 23 0 34 0;
#X connect 24 0 25 0;
#X connect 25 0 27 0;
#X connect 26 0 24 0;
#X connect 27 0 34 0;
#X connect 28 0 29 0;
#X connect 29 0 31 0;
#X connect 30 0 28 0;
#X connect 31 0 34 0;
#X connect 32 0 2 0;
#X connect 32 0 30 0;
#X connect 32 0 26 0;
#X connect 32 0 22 0;
#X connect 32 0 18 0;
#X connect 32 0 14 0;
#X connect 32 0 10 0;
#X connect 32 0 6 0;
#X connect 33 0 3 1;
#X connect 35 0 7 1;
#X connect 36 0 11 1;
#X connect 37 0 15 1;
#X connect 38 0 19 1;
#X connect 39 0 23 1;
#X connect 40 0 27 1;
#X connect 41 0 31 1;
#X connect 42 0 2 1;
#X connect 43 0 6 1;
#X connect 44 0 10 1;
#X connect 45 0 14 1;
#X connect 46 0 18 1;
#X connect 47 0 22 1;
#X connect 48 0 26 1;
#X connect 49 0 30 1;
#X restore 169 312 pd sinesum;
#X msg 82 276 1 \, 0 0 \$1;
#X obj 82 297 vline~;
#X obj 12 290 noise~;
#X obj 12 311 *~;
#X obj 12 609 *~;
#X obj 238 314 r \$0-snd-nse;
#X msg 127 297 1 \$1;
#X obj 238 335 / 127;
#X obj 12 332 *~;
#X obj 169 349 *~;
#X obj 127 318 -;
#X obj 12 363 +~;
#X obj 127 532 max 1;
#X obj 154 469 r \$0-gte;
#X msg 154 490 1 \$1;
#X obj 154 511 -;
#X obj 12 105 pipe 2;
#X obj 345 73 del 2;
#X msg 315 529 0 1;
#X obj 315 550 line~;
#X msg 345 529 1;
#X obj 12 564 *~;
#X obj 127 553 sel 0;
#X obj 127 595 line~;
#X obj 12 500 lop~;
#X obj 420 199 / 127;
#X obj 420 262 + 16;
#X obj 420 283 mtof;
#X obj 405 366 f;
#X obj 12 189 bang;
#X obj 12 210 spigot;
#X msg 12 269 seed \$2;
#X obj 12 231 pack f f;
#X obj 89 173 r \$0-snd-lok;
#X obj 99 215 r \$0-snd-sed;
#X obj 420 220 sqrt;
#X obj 420 241 * 120;
#X obj 420 304 min 20000;
#X obj 162 578 pipe 2;
#X obj 12 384 *~;
#X obj 237 103 sel 0;
#X obj 237 124 - 1;
#X obj 237 145 / 126;
#X obj 237 166 pipe 2;
#X msg 237 187 1 \$1;
#X obj 237 208 -;
#X obj 269 208 r \$0-snd-vel;
#X obj 237 229 *;
#X obj 237 250 + 100;
#X obj 237 271 dbtorms;
#X obj 204 446 *~;
#X obj 314 327 r \$0-snd-fbk;
#X obj 314 369 + 100;
#X obj 314 390 dbtorms;
#X msg 314 411 \$1 5;
#X obj 314 432 line~;
#X obj 314 348 / 10;
#X obj 523 336 / 127;
#X obj 523 418 mtof;
#X obj 508 501 f;
#X obj 523 439 min 20000;
#X obj 420 325 s \$0-rcv-lop-nbx;
#X obj 420 178 r \$0-snd-lop;
#X obj 420 346 r \$0-snd-lop-nbx;
#X obj 523 315 r \$0-snd-hip;
#X obj 523 460 s \$0-rcv-hip-nbx;
#X obj 523 481 r \$0-snd-hip-nbx;
#X obj 12 521 hip~;
#X msg 127 574 0 1;
#X obj 204 467 *~;
#X obj 431 426 r \$0-snd-inv;
#X obj 431 447 * -2;
#X obj 431 468 + 1;
#X obj 598 221 -;
#X obj 689 207 t b f;
#X obj 555 249 *;
#X obj 555 270 +;
#X obj 12 405 lop~;
#X obj 523 397 * 136;
#X obj 571 391 sel 0;
#X obj 523 357 t f f;
#X msg 571 412 0;
#X obj 550 36 / 127;
#X obj 550 99 + 16;
#X obj 550 120 mtof;
#X obj 550 57 sqrt;
#X obj 550 78 * 120;
#X obj 550 141 min 20000;
#X obj 688 41 / 127;
#X obj 688 123 mtof;
#X obj 688 144 min 20000;
#X obj 688 102 * 136;
#X obj 736 96 sel 0;
#X obj 688 62 t f f;
#X msg 736 117 0;
#X obj 550 15 r \$0-snd-top;
#X obj 550 162 s \$0-rcv-top-nbx;
#X obj 550 183 r \$0-snd-top-nbx;
#X obj 689 186 r \$0-snd-bot-nbx;
#X obj 688 165 s \$0-rcv-bot-nbx;
#X obj 688 20 r \$0-snd-bot;
#X obj 204 425 delread4~ \$0-del-5;
#X obj 365 623 delwrite~ \$0-del-5 100;
#X connect 0 0 5 0;
#X connect 1 0 2 0;
#X connect 2 0 3 0;
#X connect 3 0 8 0;
#X connect 3 0 16 0;
#X connect 3 0 45 0;
#X connect 3 0 117 0;
#X connect 4 0 6 0;
#X connect 4 0 56 0;
#X connect 5 0 7 0;
#X connect 6 0 5 1;
#X connect 6 0 12 0;
#X connect 6 0 28 0;
#X connect 7 0 32 0;
#X connect 8 0 9 0;
#X connect 9 0 15 0;
#X connect 11 0 40 0;
#X connect 12 0 33 0;
#X connect 12 0 34 0;
#X connect 12 0 44 0;
#X connect 12 0 75 0;
#X connect 13 0 40 0;
#X connect 13 0 83 0;
#X connect 13 0 93 0;
#X connect 13 0 118 0;
#X connect 15 0 25 0;
#X connect 16 0 17 0;
#X connect 17 0 19 1;
#X connect 18 0 19 0;
#X connect 19 0 24 0;
#X connect 20 0 10 0;
#X connect 20 0 118 0;
#X connect 21 0 23 0;
#X connect 22 0 26 0;
#X connect 23 0 22 0;
#X connect 23 0 25 1;
#X connect 24 0 27 0;
#X connect 25 0 27 1;
#X connect 26 0 24 1;
#X connect 27 0 55 0;
#X connect 28 0 38 0;
#X connect 29 0 30 0;
#X connect 30 0 31 0;
#X connect 31 0 28 1;
#X connect 32 0 1 0;
#X connect 33 0 13 0;
#X connect 33 0 36 0;
#X connect 34 0 35 0;
#X connect 35 0 37 1;
#X connect 36 0 35 0;
#X connect 37 0 20 0;
#X connect 38 0 84 0;
#X connect 38 1 54 0;
#X connect 39 0 20 1;
#X connect 40 0 83 0;
#X connect 41 0 51 0;
#X connect 42 0 43 0;
#X connect 43 0 53 0;
#X connect 44 0 40 1;
#X connect 45 0 46 0;
#X connect 46 0 48 0;
#X connect 47 0 18 0;
#X connect 48 0 47 0;
#X connect 49 0 46 1;
#X connect 50 0 48 1;
#X connect 51 0 52 0;
#X connect 52 0 42 0;
#X connect 53 0 77 0;
#X connect 54 0 39 0;
#X connect 55 0 93 0;
#X connect 56 1 57 0;
#X connect 57 0 58 0;
#X connect 58 0 59 0;
#X connect 59 0 60 0;
#X connect 59 0 91 0;
#X connect 60 0 61 0;
#X connect 61 0 63 0;
#X connect 62 0 63 1;
#X connect 63 0 64 0;
#X connect 64 0 65 0;
#X connect 65 0 55 1;
#X connect 66 0 85 0;
#X connect 67 0 72 0;
#X connect 68 0 69 0;
#X connect 69 0 70 0;
#X connect 70 0 71 0;
#X connect 71 0 66 1;
#X connect 72 0 68 0;
#X connect 73 0 96 0;
#X connect 74 0 76 0;
#X connect 75 0 83 1;
#X connect 76 0 81 0;
#X connect 78 0 41 0;
#X connect 79 0 44 1;
#X connect 80 0 73 0;
#X connect 82 0 75 1;
#X connect 83 0 37 0;
#X connect 84 0 39 0;
#X connect 85 0 11 1;
#X connect 86 0 87 0;
#X connect 87 0 88 0;
#X connect 88 0 85 1;
#X connect 89 0 91 1;
#X connect 90 0 89 0;
#X connect 90 1 89 1;
#X connect 90 1 92 1;
#X connect 91 0 92 0;
#X connect 92 0 93 1;
#X connect 93 0 11 0;
#X connect 94 0 74 0;
#X connect 95 0 97 0;
#X connect 96 0 95 0;
#X connect 96 1 94 0;
#X connect 97 0 76 0;
#X connect 98 0 101 0;
#X connect 99 0 100 0;
#X connect 100 0 103 0;
#X connect 101 0 102 0;
#X connect 102 0 99 0;
#X connect 103 0 112 0;
#X connect 104 0 109 0;
#X connect 105 0 106 0;
#X connect 106 0 115 0;
#X connect 107 0 105 0;
#X connect 108 0 110 0;
#X connect 109 0 108 0;
#X connect 109 1 107 0;
#X connect 110 0 106 0;
#X connect 111 0 98 0;
#X connect 113 0 89 0;
#X connect 114 0 90 0;
#X connect 116 0 104 0;
#X connect 117 0 66 0;
#X restore 561 384 pd voice;
#X obj 641 328 unpack f f;
#N canvas 193 160 809 686 voice 0;
#X obj 12 42 inlet;
#X obj 12 126 mtof;
#X msg 12 147 1000 \$1;
#X obj 12 168 /;
#X obj 127 12 inlet;
#X obj 12 63 list prepend;
#X obj 127 33 > 0;
#X obj 12 84 route 1;
#X msg 169 270 1 \, 0 \$1;
#X obj 169 291 vline~;
#X obj 12 635 outlet~;
#X obj 12 439 +~;
#X obj 315 47 sel 1;
#X msg 345 486 clear;
#X obj 315 27 block~ 1 1 1;
#N canvas 498 82 752 157 sinesum 0;
#X obj 62 54 +~ 0.25;
#X obj 62 75 cos~;
#X obj 62 33 *~;
#X obj 62 117 *~;
#X obj 142 54 +~ 0.25;
#X obj 142 75 cos~;
#X obj 142 33 *~;
#X obj 142 117 *~;
#X obj 222 54 +~ 0.25;
#X obj 222 75 cos~;
#X obj 222 33 *~;
#X obj 222 117 *~;
#X obj 302 54 +~ 0.25;
#X obj 302 75 cos~;
#X obj 302 33 *~;
#X obj 302 117 *~;
#X obj 382 54 +~ 0.25;
#X obj 382 75 cos~;
#X obj 382 33 *~;
#X obj 382 117 *~;
#X obj 462 54 +~ 0.25;
#X obj 462 75 cos~;
#X obj 462 33 *~;
#X obj 462 117 *~;
#X obj 552 54 +~ 0.25;
#X obj 552 75 cos~;
#X obj 552 33 *~;
#X obj 552 117 *~;
#X obj 642 54 +~ 0.25;
#X obj 642 75 cos~;
#X obj 642 33 *~;
#X obj 642 117 *~;
#X obj 12 19 inlet~;
#X obj 77 96 r \$0-sin-0;
#X obj 62 131 outlet~;
#X obj 157 96 r \$0-sin-1;
#X obj 237 96 r \$0-sin-2;
#X obj 317 96 r \$0-sin-3;
#X obj 397 96 r \$0-sin-4;
#X obj 477 96 r \$0-sin-5;
#X obj 567 96 r \$0-sin-6;
#X obj 657 96 r \$0-sin-7;
#X obj 77 12 r \$0-hrm-0;
#X obj 157 12 r \$0-hrm-1;
#X obj 237 12 r \$0-hrm-2;
#X obj 317 12 r \$0-hrm-3;
#X obj 397 12 r \$0-hrm-4;
#X obj 477 12 r \$0-hrm-5;
#X obj 567 12 r \$0-hrm-6;
#X obj 657 12 r \$0-hrm-7;
#X connect 0 0 1 0;
#X connect 1 0 3 0;
#X connect 2 0 0 0;
#X connect 3 0 34 0;
#X connect 4 0 5 0;
#X connect 5 0 7 0;
#X connect 6 0 4 0;
#X connect 7 0 34 0;
#X connect 8 0 9 0;
#X connect 9 0 11 0;
#X connect 10 0 8 0;
#X connect 11 0 34 0;
#X connect 12 0 13 0;
#X connect 13 0 15 0;
#X connect 14 0 12 0;
#X connect 15 0 34 0;
#X connect 16 0 17 0;
#X connect 17 0 19 0;
#X connect 18 0 16 0;
#X connect 19 0 34 0;
#X connect 20 0 21 0;
#X connect 21 0 23 0;
#X connect 22 0 20 0;
#X connect 23 0 34 0;
#X connect 24 0 25 0;
#X connect 25 0 27 0;
#X connect 26 0 24 0;
#X connect 27 0 34 0;
#X connect 28 0 29 0;
#X connect 29 0 31 0;
#X connect 30 0 28 0;
#X connect 31 0 34 0;
#X connect 32 0 2 0;
#X connect 32 0 30 0;
#X connect 32 0 26 0;
#X connect 32 0 22 0;
#X connect 32 0 18 0;
#X connect 32 0 14 0;
#X connect 32 0 10 0;
#X connect 32 0 6 0;
#X connect 33 0 3 1;
#X connect 35 0 7 1;
#X connect 36 0 11 1;
#X connect 37 0 15 1;
#X connect 38 0 19 1;
#X connect 39 0 23 1;
#X connect 40 0 27 1;
#X connect 41 0 31 1;
#X connect 42 0 2 1;
#X connect 43 0 6 1;
#X connect 44 0 10 1;
#X connect 45 0 14 1;
#X connect 46 0 18 1;
#X connect 47 0 22 1;
#X connect 48 0 26 1;
#X connect 49 0 30 1;
#X restore 169 312 pd sinesum;
#X msg 82 276 1 \, 0 0 \$1;
#X obj 82 297 vline~;
#X obj 12 290 noise~;
#X obj 12 311 *~;
#X obj 12 609 *~;
#X obj 238 314 r \$0-snd-nse;
#X msg 127 297 1 \$1;
#X obj 238 335 / 127;
#X obj 12 332 *~;
#X obj 169 349 *~;
#X obj 127 318 -;
#X obj 12 363 +~;
#X obj 127 532 max 1;
#X obj 154 469 r \$0-gte;
#X msg 154 490 1 \$1;
#X obj 154 511 -;
#X obj 12 105 pipe 2;
#X obj 345 73 del 2;
#X msg 315 529 0 1;
#X obj 315 550 line~;
#X msg 345 529 1;
#X obj 12 564 *~;
#X obj 127 553 sel 0;
#X obj 127 595 line~;
#X obj 12 500 lop~;
#X obj 420 199 / 127;
#X obj 420 262 + 16;
#X obj 420 283 mtof;
#X obj 405 366 f;
#X obj 12 189 bang;
#X obj 12 210 spigot;
#X msg 12 269 seed \$2;
#X obj 12 231 pack f f;
#X obj 89 173 r \$0-snd-lok;
#X obj 99 215 r \$0-snd-sed;
#X obj 420 220 sqrt;
#X obj 420 241 * 120;
#X obj 420 304 min 20000;
#X obj 162 578 pipe 2;
#X obj 12 384 *~;
#X obj 237 103 sel 0;
#X obj 237 124 - 1;
#X obj 237 145 / 126;
#X obj 237 166 pipe 2;
#X msg 237 187 1 \$1;
#X obj 237 208 -;
#X obj 269 208 r \$0-snd-vel;
#X obj 237 229 *;
#X obj 237 250 + 100;
#X obj 237 271 dbtorms;
#X obj 204 446 *~;
#X obj 314 327 r \$0-snd-fbk;
#X obj 314 369 + 100;
#X obj 314 390 dbtorms;
#X msg 314 411 \$1 5;
#X obj 314 432 line~;
#X obj 314 348 / 10;
#X obj 523 336 / 127;
#X obj 523 418 mtof;
#X obj 508 501 f;
#X obj 523 439 min 20000;
#X obj 420 325 s \$0-rcv-lop-nbx;
#X obj 420 178 r \$0-snd-lop;
#X obj 420 346 r \$0-snd-lop-nbx;
#X obj 523 315 r \$0-snd-hip;
#X obj 523 460 s \$0-rcv-hip-nbx;
#X obj 523 481 r \$0-snd-hip-nbx;
#X obj 12 521 hip~;
#X msg 127 574 0 1;
#X obj 204 467 *~;
#X obj 431 426 r \$0-snd-inv;
#X obj 431 447 * -2;
#X obj 431 468 + 1;
#X obj 598 221 -;
#X obj 689 207 t b f;
#X obj 555 249 *;
#X obj 555 270 +;
#X obj 12 405 lop~;
#X obj 523 397 * 136;
#X obj 571 391 sel 0;
#X obj 523 357 t f f;
#X msg 571 412 0;
#X obj 550 36 / 127;
#X obj 550 99 + 16;
#X obj 550 120 mtof;
#X obj 550 57 sqrt;
#X obj 550 78 * 120;
#X obj 550 141 min 20000;
#X obj 688 41 / 127;
#X obj 688 123 mtof;
#X obj 688 144 min 20000;
#X obj 688 102 * 136;
#X obj 736 96 sel 0;
#X obj 688 62 t f f;
#X msg 736 117 0;
#X obj 550 15 r \$0-snd-top;
#X obj 550 162 s \$0-rcv-top-nbx;
#X obj 550 183 r \$0-snd-top-nbx;
#X obj 689 186 r \$0-snd-bot-nbx;
#X obj 688 165 s \$0-rcv-bot-nbx;
#X obj 688 20 r \$0-snd-bot;
#X obj 365 623 delwrite~ \$0-del-6 100;
#X obj 204 425 delread4~ \$0-del-6;
#X connect 0 0 5 0;
#X connect 1 0 2 0;
#X connect 2 0 3 0;
#X connect 3 0 8 0;
#X connect 3 0 16 0;
#X connect 3 0 45 0;
#X connect 3 0 118 0;
#X connect 4 0 6 0;
#X connect 4 0 56 0;
#X connect 5 0 7 0;
#X connect 6 0 5 1;
#X connect 6 0 12 0;
#X connect 6 0 28 0;
#X connect 7 0 32 0;
#X connect 8 0 9 0;
#X connect 9 0 15 0;
#X connect 11 0 40 0;
#X connect 12 0 33 0;
#X connect 12 0 34 0;
#X connect 12 0 44 0;
#X connect 12 0 75 0;
#X connect 13 0 40 0;
#X connect 13 0 83 0;
#X connect 13 0 93 0;
#X connect 13 0 117 0;
#X connect 15 0 25 0;
#X connect 16 0 17 0;
#X connect 17 0 19 1;
#X connect 18 0 19 0;
#X connect 19 0 24 0;
#X connect 20 0 10 0;
#X connect 20 0 117 0;
#X connect 21 0 23 0;
#X connect 22 0 26 0;
#X connect 23 0 22 0;
#X connect 23 0 25 1;
#X connect 24 0 27 0;
#X connect 25 0 27 1;
#X connect 26 0 24 1;
#X connect 27 0 55 0;
#X connect 28 0 38 0;
#X connect 29 0 30 0;
#X connect 30 0 31 0;
#X connect 31 0 28 1;
#X connect 32 0 1 0;
#X connect 33 0 13 0;
#X connect 33 0 36 0;
#X connect 34 0 35 0;
#X connect 35 0 37 1;
#X connect 36 0 35 0;
#X connect 37 0 20 0;
#X connect 38 0 84 0;
#X connect 38 1 54 0;
#X connect 39 0 20 1;
#X connect 40 0 83 0;
#X connect 41 0 51 0;
#X connect 42 0 43 0;
#X connect 43 0 53 0;
#X connect 44 0 40 1;
#X connect 45 0 46 0;
#X connect 46 0 48 0;
#X connect 47 0 18 0;
#X connect 48 0 47 0;
#X connect 49 0 46 1;
#X connect 50 0 48 1;
#X connect 51 0 52 0;
#X connect 52 0 42 0;
#X connect 53 0 77 0;
#X connect 54 0 39 0;
#X connect 55 0 93 0;
#X connect 56 1 57 0;
#X connect 57 0 58 0;
#X connect 58 0 59 0;
#X connect 59 0 60 0;
#X connect 59 0 91 0;
#X connect 60 0 61 0;
#X connect 61 0 63 0;
#X connect 62 0 63 1;
#X connect 63 0 64 0;
#X connect 64 0 65 0;
#X connect 65 0 55 1;
#X connect 66 0 85 0;
#X connect 67 0 72 0;
#X connect 68 0 69 0;
#X connect 69 0 70 0;
#X connect 70 0 71 0;
#X connect 71 0 66 1;
#X connect 72 0 68 0;
#X connect 73 0 96 0;
#X connect 74 0 76 0;
#X connect 75 0 83 1;
#X connect 76 0 81 0;
#X connect 78 0 41 0;
#X connect 79 0 44 1;
#X connect 80 0 73 0;
#X connect 82 0 75 1;
#X connect 83 0 37 0;
#X connect 84 0 39 0;
#X connect 85 0 11 1;
#X connect 86 0 87 0;
#X connect 87 0 88 0;
#X connect 88 0 85 1;
#X connect 89 0 91 1;
#X connect 90 0 89 0;
#X connect 90 1 89 1;
#X connect 90 1 92 1;
#X connect 91 0 92 0;
#X connect 92 0 93 1;
#X connect 93 0 11 0;
#X connect 94 0 74 0;
#X connect 95 0 97 0;
#X connect 96 0 95 0;
#X connect 96 1 94 0;
#X connect 97 0 76 0;
#X connect 98 0 101 0;
#X connect 99 0 100 0;
#X connect 100 0 103 0;
#X connect 101 0 102 0;
#X connect 102 0 99 0;
#X connect 103 0 112 0;
#X connect 104 0 109 0;
#X connect 105 0 106 0;
#X connect 106 0 115 0;
#X connect 107 0 105 0;
#X connect 108 0 110 0;
#X connect 109 0 108 0;
#X connect 109 1 107 0;
#X connect 110 0 106 0;
#X connect 111 0 98 0;
#X connect 113 0 89 0;
#X connect 114 0 90 0;
#X connect 116 0 104 0;
#X connect 118 0 66 0;
#X restore 641 370 pd voice;
#X obj 715 335 r \$0-tun;
#X obj 641 349 +;
#X obj 641 391 *~;
#X obj 772 293 r \$0-vol;
#X obj 772 314 + 100;
#X obj 772 335 dbtorms;
#X msg 772 356 \$1 5;
#X obj 772 377 line~;
#X obj 561 405 +~;
#X obj 561 426 r \$0-poly;
#X obj 561 503 unpack f f;
#N canvas 193 160 809 686 voice 0;
#X obj 12 42 inlet;
#X obj 12 126 mtof;
#X msg 12 147 1000 \$1;
#X obj 12 168 /;
#X obj 127 12 inlet;
#X obj 12 63 list prepend;
#X obj 127 33 > 0;
#X obj 12 84 route 1;
#X msg 169 270 1 \, 0 \$1;
#X obj 169 291 vline~;
#X obj 12 635 outlet~;
#X obj 12 439 +~;
#X obj 315 47 sel 1;
#X msg 345 486 clear;
#X obj 315 27 block~ 1 1 1;
#N canvas 498 82 752 157 sinesum 0;
#X obj 62 54 +~ 0.25;
#X obj 62 75 cos~;
#X obj 62 33 *~;
#X obj 62 117 *~;
#X obj 142 54 +~ 0.25;
#X obj 142 75 cos~;
#X obj 142 33 *~;
#X obj 142 117 *~;
#X obj 222 54 +~ 0.25;
#X obj 222 75 cos~;
#X obj 222 33 *~;
#X obj 222 117 *~;
#X obj 302 54 +~ 0.25;
#X obj 302 75 cos~;
#X obj 302 33 *~;
#X obj 302 117 *~;
#X obj 382 54 +~ 0.25;
#X obj 382 75 cos~;
#X obj 382 33 *~;
#X obj 382 117 *~;
#X obj 462 54 +~ 0.25;
#X obj 462 75 cos~;
#X obj 462 33 *~;
#X obj 462 117 *~;
#X obj 552 54 +~ 0.25;
#X obj 552 75 cos~;
#X obj 552 33 *~;
#X obj 552 117 *~;
#X obj 642 54 +~ 0.25;
#X obj 642 75 cos~;
#X obj 642 33 *~;
#X obj 642 117 *~;
#X obj 12 19 inlet~;
#X obj 77 96 r \$0-sin-0;
#X obj 62 131 outlet~;
#X obj 157 96 r \$0-sin-1;
#X obj 237 96 r \$0-sin-2;
#X obj 317 96 r \$0-sin-3;
#X obj 397 96 r \$0-sin-4;
#X obj 477 96 r \$0-sin-5;
#X obj 567 96 r \$0-sin-6;
#X obj 657 96 r \$0-sin-7;
#X obj 77 12 r \$0-hrm-0;
#X obj 157 12 r \$0-hrm-1;
#X obj 237 12 r \$0-hrm-2;
#X obj 317 12 r \$0-hrm-3;
#X obj 397 12 r \$0-hrm-4;
#X obj 477 12 r \$0-hrm-5;
#X obj 567 12 r \$0-hrm-6;
#X obj 657 12 r \$0-hrm-7;
#X connect 0 0 1 0;
#X connect 1 0 3 0;
#X connect 2 0 0 0;
#X connect 3 0 34 0;
#X connect 4 0 5 0;
#X connect 5 0 7 0;
#X connect 6 0 4 0;
#X connect 7 0 34 0;
#X connect 8 0 9 0;
#X connect 9 0 11 0;
#X connect 10 0 8 0;
#X connect 11 0 34 0;
#X connect 12 0 13 0;
#X connect 13 0 15 0;
#X connect 14 0 12 0;
#X connect 15 0 34 0;
#X connect 16 0 17 0;
#X connect 17 0 19 0;
#X connect 18 0 16 0;
#X connect 19 0 34 0;
#X connect 20 0 21 0;
#X connect 21 0 23 0;
#X connect 22 0 20 0;
#X connect 23 0 34 0;
#X connect 24 0 25 0;
#X connect 25 0 27 0;
#X connect 26 0 24 0;
#X connect 27 0 34 0;
#X connect 28 0 29 0;
#X connect 29 0 31 0;
#X connect 30 0 28 0;
#X connect 31 0 34 0;
#X connect 32 0 2 0;
#X connect 32 0 30 0;
#X connect 32 0 26 0;
#X connect 32 0 22 0;
#X connect 32 0 18 0;
#X connect 32 0 14 0;
#X connect 32 0 10 0;
#X connect 32 0 6 0;
#X connect 33 0 3 1;
#X connect 35 0 7 1;
#X connect 36 0 11 1;
#X connect 37 0 15 1;
#X connect 38 0 19 1;
#X connect 39 0 23 1;
#X connect 40 0 27 1;
#X connect 41 0 31 1;
#X connect 42 0 2 1;
#X connect 43 0 6 1;
#X connect 44 0 10 1;
#X connect 45 0 14 1;
#X connect 46 0 18 1;
#X connect 47 0 22 1;
#X connect 48 0 26 1;
#X connect 49 0 30 1;
#X restore 169 312 pd sinesum;
#X msg 82 276 1 \, 0 0 \$1;
#X obj 82 297 vline~;
#X obj 12 290 noise~;
#X obj 12 311 *~;
#X obj 12 609 *~;
#X obj 238 314 r \$0-snd-nse;
#X msg 127 297 1 \$1;
#X obj 238 335 / 127;
#X obj 12 332 *~;
#X obj 169 349 *~;
#X obj 127 318 -;
#X obj 12 363 +~;
#X obj 127 532 max 1;
#X obj 154 469 r \$0-gte;
#X msg 154 490 1 \$1;
#X obj 154 511 -;
#X obj 12 105 pipe 2;
#X obj 345 73 del 2;
#X msg 315 529 0 1;
#X obj 315 550 line~;
#X msg 345 529 1;
#X obj 12 564 *~;
#X obj 127 553 sel 0;
#X obj 127 595 line~;
#X obj 12 500 lop~;
#X obj 420 199 / 127;
#X obj 420 262 + 16;
#X obj 420 283 mtof;
#X obj 405 366 f;
#X obj 12 189 bang;
#X obj 12 210 spigot;
#X msg 12 269 seed \$2;
#X obj 12 231 pack f f;
#X obj 89 173 r \$0-snd-lok;
#X obj 99 215 r \$0-snd-sed;
#X obj 420 220 sqrt;
#X obj 420 241 * 120;
#X obj 420 304 min 20000;
#X obj 162 578 pipe 2;
#X obj 12 384 *~;
#X obj 237 103 sel 0;
#X obj 237 124 - 1;
#X obj 237 145 / 126;
#X obj 237 166 pipe 2;
#X msg 237 187 1 \$1;
#X obj 237 208 -;
#X obj 269 208 r \$0-snd-vel;
#X obj 237 229 *;
#X obj 237 250 + 100;
#X obj 237 271 dbtorms;
#X obj 204 446 *~;
#X obj 314 327 r \$0-snd-fbk;
#X obj 314 369 + 100;
#X obj 314 390 dbtorms;
#X msg 314 411 \$1 5;
#X obj 314 432 line~;
#X obj 314 348 / 10;
#X obj 523 336 / 127;
#X obj 523 418 mtof;
#X obj 508 501 f;
#X obj 523 439 min 20000;
#X obj 420 325 s \$0-rcv-lop-nbx;
#X obj 420 178 r \$0-snd-lop;
#X obj 420 346 r \$0-snd-lop-nbx;
#X obj 523 315 r \$0-snd-hip;
#X obj 523 460 s \$0-rcv-hip-nbx;
#X obj 523 481 r \$0-snd-hip-nbx;
#X obj 12 521 hip~;
#X msg 127 574 0 1;
#X obj 204 467 *~;
#X obj 431 426 r \$0-snd-inv;
#X obj 431 447 * -2;
#X obj 431 468 + 1;
#X obj 598 221 -;
#X obj 689 207 t b f;
#X obj 555 249 *;
#X obj 555 270 +;
#X obj 12 405 lop~;
#X obj 523 397 * 136;
#X obj 571 391 sel 0;
#X obj 523 357 t f f;
#X msg 571 412 0;
#X obj 550 36 / 127;
#X obj 550 99 + 16;
#X obj 550 120 mtof;
#X obj 550 57 sqrt;
#X obj 550 78 * 120;
#X obj 550 141 min 20000;
#X obj 688 41 / 127;
#X obj 688 123 mtof;
#X obj 688 144 min 20000;
#X obj 688 102 * 136;
#X obj 736 96 sel 0;
#X obj 688 62 t f f;
#X msg 736 117 0;
#X obj 550 15 r \$0-snd-top;
#X obj 550 162 s \$0-rcv-top-nbx;
#X obj 550 183 r \$0-snd-top-nbx;
#X obj 689 186 r \$0-snd-bot-nbx;
#X obj 688 165 s \$0-rcv-bot-nbx;
#X obj 688 20 r \$0-snd-bot;
#X obj 365 623 delwrite~ \$0-del-7 100;
#X obj 204 425 delread4~ \$0-del-7;
#X connect 0 0 5 0;
#X connect 1 0 2 0;
#X connect 2 0 3 0;
#X connect 3 0 8 0;
#X connect 3 0 16 0;
#X connect 3 0 45 0;
#X connect 3 0 118 0;
#X connect 4 0 6 0;
#X connect 4 0 56 0;
#X connect 5 0 7 0;
#X connect 6 0 5 1;
#X connect 6 0 12 0;
#X connect 6 0 28 0;
#X connect 7 0 32 0;
#X connect 8 0 9 0;
#X connect 9 0 15 0;
#X connect 11 0 40 0;
#X connect 12 0 33 0;
#X connect 12 0 34 0;
#X connect 12 0 44 0;
#X connect 12 0 75 0;
#X connect 13 0 40 0;
#X connect 13 0 83 0;
#X connect 13 0 93 0;
#X connect 13 0 117 0;
#X connect 15 0 25 0;
#X connect 16 0 17 0;
#X connect 17 0 19 1;
#X connect 18 0 19 0;
#X connect 19 0 24 0;
#X connect 20 0 10 0;
#X connect 20 0 117 0;
#X connect 21 0 23 0;
#X connect 22 0 26 0;
#X connect 23 0 22 0;
#X connect 23 0 25 1;
#X connect 24 0 27 0;
#X connect 25 0 27 1;
#X connect 26 0 24 1;
#X connect 27 0 55 0;
#X connect 28 0 38 0;
#X connect 29 0 30 0;
#X connect 30 0 31 0;
#X connect 31 0 28 1;
#X connect 32 0 1 0;
#X connect 33 0 13 0;
#X connect 33 0 36 0;
#X connect 34 0 35 0;
#X connect 35 0 37 1;
#X connect 36 0 35 0;
#X connect 37 0 20 0;
#X connect 38 0 84 0;
#X connect 38 1 54 0;
#X connect 39 0 20 1;
#X connect 40 0 83 0;
#X connect 41 0 51 0;
#X connect 42 0 43 0;
#X connect 43 0 53 0;
#X connect 44 0 40 1;
#X connect 45 0 46 0;
#X connect 46 0 48 0;
#X connect 47 0 18 0;
#X connect 48 0 47 0;
#X connect 49 0 46 1;
#X connect 50 0 48 1;
#X connect 51 0 52 0;
#X connect 52 0 42 0;
#X connect 53 0 77 0;
#X connect 54 0 39 0;
#X connect 55 0 93 0;
#X connect 56 1 57 0;
#X connect 57 0 58 0;
#X connect 58 0 59 0;
#X connect 59 0 60 0;
#X connect 59 0 91 0;
#X connect 60 0 61 0;
#X connect 61 0 63 0;
#X connect 62 0 63 1;
#X connect 63 0 64 0;
#X connect 64 0 65 0;
#X connect 65 0 55 1;
#X connect 66 0 85 0;
#X connect 67 0 72 0;
#X connect 68 0 69 0;
#X connect 69 0 70 0;
#X connect 70 0 71 0;
#X connect 71 0 66 1;
#X connect 72 0 68 0;
#X connect 73 0 96 0;
#X connect 74 0 76 0;
#X connect 75 0 83 1;
#X connect 76 0 81 0;
#X connect 78 0 41 0;
#X connect 79 0 44 1;
#X connect 80 0 73 0;
#X connect 82 0 75 1;
#X connect 83 0 37 0;
#X connect 84 0 39 0;
#X connect 85 0 11 1;
#X connect 86 0 87 0;
#X connect 87 0 88 0;
#X connect 88 0 85 1;
#X connect 89 0 91 1;
#X connect 90 0 89 0;
#X connect 90 1 89 1;
#X connect 90 1 92 1;
#X connect 91 0 92 0;
#X connect 92 0 93 1;
#X connect 93 0 11 0;
#X connect 94 0 74 0;
#X connect 95 0 97 0;
#X connect 96 0 95 0;
#X connect 96 1 94 0;
#X connect 97 0 76 0;
#X connect 98 0 101 0;
#X connect 99 0 100 0;
#X connect 100 0 103 0;
#X connect 101 0 102 0;
#X connect 102 0 99 0;
#X connect 103 0 112 0;
#X connect 104 0 109 0;
#X connect 105 0 106 0;
#X connect 106 0 115 0;
#X connect 107 0 105 0;
#X connect 108 0 110 0;
#X connect 109 0 108 0;
#X connect 109 1 107 0;
#X connect 110 0 106 0;
#X connect 111 0 98 0;
#X connect 113 0 89 0;
#X connect 114 0 90 0;
#X connect 116 0 104 0;
#X connect 118 0 66 0;
#X restore 561 524 pd voice;
#X obj 641 468 unpack f f;
#N canvas 193 160 809 686 voice 0;
#X obj 12 42 inlet;
#X obj 12 126 mtof;
#X msg 12 147 1000 \$1;
#X obj 12 168 /;
#X obj 127 12 inlet;
#X obj 12 63 list prepend;
#X obj 127 33 > 0;
#X obj 12 84 route 1;
#X msg 169 270 1 \, 0 \$1;
#X obj 169 291 vline~;
#X obj 12 635 outlet~;
#X obj 12 439 +~;
#X obj 315 47 sel 1;
#X msg 345 486 clear;
#X obj 315 27 block~ 1 1 1;
#N canvas 498 82 752 157 sinesum 0;
#X obj 62 54 +~ 0.25;
#X obj 62 75 cos~;
#X obj 62 33 *~;
#X obj 62 117 *~;
#X obj 142 54 +~ 0.25;
#X obj 142 75 cos~;
#X obj 142 33 *~;
#X obj 142 117 *~;
#X obj 222 54 +~ 0.25;
#X obj 222 75 cos~;
#X obj 222 33 *~;
#X obj 222 117 *~;
#X obj 302 54 +~ 0.25;
#X obj 302 75 cos~;
#X obj 302 33 *~;
#X obj 302 117 *~;
#X obj 382 54 +~ 0.25;
#X obj 382 75 cos~;
#X obj 382 33 *~;
#X obj 382 117 *~;
#X obj 462 54 +~ 0.25;
#X obj 462 75 cos~;
#X obj 462 33 *~;
#X obj 462 117 *~;
#X obj 552 54 +~ 0.25;
#X obj 552 75 cos~;
#X obj 552 33 *~;
#X obj 552 117 *~;
#X obj 642 54 +~ 0.25;
#X obj 642 75 cos~;
#X obj 642 33 *~;
#X obj 642 117 *~;
#X obj 12 19 inlet~;
#X obj 77 96 r \$0-sin-0;
#X obj 62 131 outlet~;
#X obj 157 96 r \$0-sin-1;
#X obj 237 96 r \$0-sin-2;
#X obj 317 96 r \$0-sin-3;
#X obj 397 96 r \$0-sin-4;
#X obj 477 96 r \$0-sin-5;
#X obj 567 96 r \$0-sin-6;
#X obj 657 96 r \$0-sin-7;
#X obj 77 12 r \$0-hrm-0;
#X obj 157 12 r \$0-hrm-1;
#X obj 237 12 r \$0-hrm-2;
#X obj 317 12 r \$0-hrm-3;
#X obj 397 12 r \$0-hrm-4;
#X obj 477 12 r \$0-hrm-5;
#X obj 567 12 r \$0-hrm-6;
#X obj 657 12 r \$0-hrm-7;
#X connect 0 0 1 0;
#X connect 1 0 3 0;
#X connect 2 0 0 0;
#X connect 3 0 34 0;
#X connect 4 0 5 0;
#X connect 5 0 7 0;
#X connect 6 0 4 0;
#X connect 7 0 34 0;
#X connect 8 0 9 0;
#X connect 9 0 11 0;
#X connect 10 0 8 0;
#X connect 11 0 34 0;
#X connect 12 0 13 0;
#X connect 13 0 15 0;
#X connect 14 0 12 0;
#X connect 15 0 34 0;
#X connect 16 0 17 0;
#X connect 17 0 19 0;
#X connect 18 0 16 0;
#X connect 19 0 34 0;
#X connect 20 0 21 0;
#X connect 21 0 23 0;
#X connect 22 0 20 0;
#X connect 23 0 34 0;
#X connect 24 0 25 0;
#X connect 25 0 27 0;
#X connect 26 0 24 0;
#X connect 27 0 34 0;
#X connect 28 0 29 0;
#X connect 29 0 31 0;
#X connect 30 0 28 0;
#X connect 31 0 34 0;
#X connect 32 0 2 0;
#X connect 32 0 30 0;
#X connect 32 0 26 0;
#X connect 32 0 22 0;
#X connect 32 0 18 0;
#X connect 32 0 14 0;
#X connect 32 0 10 0;
#X connect 32 0 6 0;
#X connect 33 0 3 1;
#X connect 35 0 7 1;
#X connect 36 0 11 1;
#X connect 37 0 15 1;
#X connect 38 0 19 1;
#X connect 39 0 23 1;
#X connect 40 0 27 1;
#X connect 41 0 31 1;
#X connect 42 0 2 1;
#X connect 43 0 6 1;
#X connect 44 0 10 1;
#X connect 45 0 14 1;
#X connect 46 0 18 1;
#X connect 47 0 22 1;
#X connect 48 0 26 1;
#X connect 49 0 30 1;
#X restore 169 312 pd sinesum;
#X msg 82 276 1 \, 0 0 \$1;
#X obj 82 297 vline~;
#X obj 12 290 noise~;
#X obj 12 311 *~;
#X obj 12 609 *~;
#X obj 238 314 r \$0-snd-nse;
#X msg 127 297 1 \$1;
#X obj 238 335 / 127;
#X obj 12 332 *~;
#X obj 169 349 *~;
#X obj 127 318 -;
#X obj 12 363 +~;
#X obj 127 532 max 1;
#X obj 154 469 r \$0-gte;
#X msg 154 490 1 \$1;
#X obj 154 511 -;
#X obj 12 105 pipe 2;
#X obj 345 73 del 2;
#X msg 315 529 0 1;
#X obj 315 550 line~;
#X msg 345 529 1;
#X obj 12 564 *~;
#X obj 127 553 sel 0;
#X obj 127 595 line~;
#X obj 12 500 lop~;
#X obj 420 199 / 127;
#X obj 420 262 + 16;
#X obj 420 283 mtof;
#X obj 405 366 f;
#X obj 12 189 bang;
#X obj 12 210 spigot;
#X msg 12 269 seed \$2;
#X obj 12 231 pack f f;
#X obj 89 173 r \$0-snd-lok;
#X obj 99 215 r \$0-snd-sed;
#X obj 420 220 sqrt;
#X obj 420 241 * 120;
#X obj 420 304 min 20000;
#X obj 162 578 pipe 2;
#X obj 12 384 *~;
#X obj 237 103 sel 0;
#X obj 237 124 - 1;
#X obj 237 145 / 126;
#X obj 237 166 pipe 2;
#X msg 237 187 1 \$1;
#X obj 237 208 -;
#X obj 269 208 r \$0-snd-vel;
#X obj 237 229 *;
#X obj 237 250 + 100;
#X obj 237 271 dbtorms;
#X obj 204 446 *~;
#X obj 314 327 r \$0-snd-fbk;
#X obj 314 369 + 100;
#X obj 314 390 dbtorms;
#X msg 314 411 \$1 5;
#X obj 314 432 line~;
#X obj 314 348 / 10;
#X obj 523 336 / 127;
#X obj 523 418 mtof;
#X obj 508 501 f;
#X obj 523 439 min 20000;
#X obj 420 325 s \$0-rcv-lop-nbx;
#X obj 420 178 r \$0-snd-lop;
#X obj 420 346 r \$0-snd-lop-nbx;
#X obj 523 315 r \$0-snd-hip;
#X obj 523 460 s \$0-rcv-hip-nbx;
#X obj 523 481 r \$0-snd-hip-nbx;
#X obj 12 521 hip~;
#X msg 127 574 0 1;
#X obj 204 467 *~;
#X obj 431 426 r \$0-snd-inv;
#X obj 431 447 * -2;
#X obj 431 468 + 1;
#X obj 598 221 -;
#X obj 689 207 t b f;
#X obj 555 249 *;
#X obj 555 270 +;
#X obj 12 405 lop~;
#X obj 523 397 * 136;
#X obj 571 391 sel 0;
#X obj 523 357 t f f;
#X msg 571 412 0;
#X obj 550 36 / 127;
#X obj 550 99 + 16;
#X obj 550 120 mtof;
#X obj 550 57 sqrt;
#X obj 550 78 * 120;
#X obj 550 141 min 20000;
#X obj 688 41 / 127;
#X obj 688 123 mtof;
#X obj 688 144 min 20000;
#X obj 688 102 * 136;
#X obj 736 96 sel 0;
#X obj 688 62 t f f;
#X msg 736 117 0;
#X obj 550 15 r \$0-snd-top;
#X obj 550 162 s \$0-rcv-top-nbx;
#X obj 550 183 r \$0-snd-top-nbx;
#X obj 689 186 r \$0-snd-bot-nbx;
#X obj 688 165 s \$0-rcv-bot-nbx;
#X obj 688 20 r \$0-snd-bot;
#X obj 365 623 delwrite~ \$0-del-8 100;
#X obj 204 425 delread4~ \$0-del-8;
#X connect 0 0 5 0;
#X connect 1 0 2 0;
#X connect 2 0 3 0;
#X connect 3 0 8 0;
#X connect 3 0 16 0;
#X connect 3 0 45 0;
#X connect 3 0 118 0;
#X connect 4 0 6 0;
#X connect 4 0 56 0;
#X connect 5 0 7 0;
#X connect 6 0 5 1;
#X connect 6 0 12 0;
#X connect 6 0 28 0;
#X connect 7 0 32 0;
#X connect 8 0 9 0;
#X connect 9 0 15 0;
#X connect 11 0 40 0;
#X connect 12 0 33 0;
#X connect 12 0 34 0;
#X connect 12 0 44 0;
#X connect 12 0 75 0;
#X connect 13 0 40 0;
#X connect 13 0 83 0;
#X connect 13 0 93 0;
#X connect 13 0 117 0;
#X connect 15 0 25 0;
#X connect 16 0 17 0;
#X connect 17 0 19 1;
#X connect 18 0 19 0;
#X connect 19 0 24 0;
#X connect 20 0 10 0;
#X connect 20 0 117 0;
#X connect 21 0 23 0;
#X connect 22 0 26 0;
#X connect 23 0 22 0;
#X connect 23 0 25 1;
#X connect 24 0 27 0;
#X connect 25 0 27 1;
#X connect 26 0 24 1;
#X connect 27 0 55 0;
#X connect 28 0 38 0;
#X connect 29 0 30 0;
#X connect 30 0 31 0;
#X connect 31 0 28 1;
#X connect 32 0 1 0;
#X connect 33 0 13 0;
#X connect 33 0 36 0;
#X connect 34 0 35 0;
#X connect 35 0 37 1;
#X connect 36 0 35 0;
#X connect 37 0 20 0;
#X connect 38 0 84 0;
#X connect 38 1 54 0;
#X connect 39 0 20 1;
#X connect 40 0 83 0;
#X connect 41 0 51 0;
#X connect 42 0 43 0;
#X connect 43 0 53 0;
#X connect 44 0 40 1;
#X connect 45 0 46 0;
#X connect 46 0 48 0;
#X connect 47 0 18 0;
#X connect 48 0 47 0;
#X connect 49 0 46 1;
#X connect 50 0 48 1;
#X connect 51 0 52 0;
#X connect 52 0 42 0;
#X connect 53 0 77 0;
#X connect 54 0 39 0;
#X connect 55 0 93 0;
#X connect 56 1 57 0;
#X connect 57 0 58 0;
#X connect 58 0 59 0;
#X connect 59 0 60 0;
#X connect 59 0 91 0;
#X connect 60 0 61 0;
#X connect 61 0 63 0;
#X connect 62 0 63 1;
#X connect 63 0 64 0;
#X connect 64 0 65 0;
#X connect 65 0 55 1;
#X connect 66 0 85 0;
#X connect 67 0 72 0;
#X connect 68 0 69 0;
#X connect 69 0 70 0;
#X connect 70 0 71 0;
#X connect 71 0 66 1;
#X connect 72 0 68 0;
#X connect 73 0 96 0;
#X connect 74 0 76 0;
#X connect 75 0 83 1;
#X connect 76 0 81 0;
#X connect 78 0 41 0;
#X connect 79 0 44 1;
#X connect 80 0 73 0;
#X connect 82 0 75 1;
#X connect 83 0 37 0;
#X connect 84 0 39 0;
#X connect 85 0 11 1;
#X connect 86 0 87 0;
#X connect 87 0 88 0;
#X connect 88 0 85 1;
#X connect 89 0 91 1;
#X connect 90 0 89 0;
#X connect 90 1 89 1;
#X connect 90 1 92 1;
#X connect 91 0 92 0;
#X connect 92 0 93 1;
#X connect 93 0 11 0;
#X connect 94 0 74 0;
#X connect 95 0 97 0;
#X connect 96 0 95 0;
#X connect 96 1 94 0;
#X connect 97 0 76 0;
#X connect 98 0 101 0;
#X connect 99 0 100 0;
#X connect 100 0 103 0;
#X connect 101 0 102 0;
#X connect 102 0 99 0;
#X connect 103 0 112 0;
#X connect 104 0 109 0;
#X connect 105 0 106 0;
#X connect 106 0 115 0;
#X connect 107 0 105 0;
#X connect 108 0 110 0;
#X connect 109 0 108 0;
#X connect 109 1 107 0;
#X connect 110 0 106 0;
#X connect 111 0 98 0;
#X connect 113 0 89 0;
#X connect 114 0 90 0;
#X connect 116 0 104 0;
#X connect 118 0 66 0;
#X restore 641 510 pd voice;
#X obj 715 475 r \$0-tun;
#X obj 641 489 +;
#X obj 641 531 *~;
#X obj 772 433 r \$0-vol;
#X obj 772 454 + 100;
#X obj 772 475 dbtorms;
#X msg 772 496 \$1 5;
#X obj 772 517 line~;
#X obj 561 545 +~;
#X obj 761 573 poly 4 1;
#X obj 561 447 route 4;
#X obj 561 307 route 3;
#X obj 561 157 route 2;
#X obj 561 642 *~ 0.5;
#X obj 561 663 clip~ -1 1;
#X obj 852 516 - 12;
#X msg 835 563 stop;
#X connect 0 0 1 0;
#X connect 1 0 27 0;
#X connect 1 1 4 0;
#X connect 2 0 26 0;
#X connect 3 0 22 0;
#X connect 4 0 7 0;
#X connect 6 0 3 1;
#X connect 7 0 6 0;
#X connect 8 0 14 0;
#X connect 9 0 16 0;
#X connect 10 0 21 0;
#X connect 11 0 7 1;
#X connect 12 0 13 0;
#X connect 13 0 9 0;
#X connect 14 0 15 0;
#X connect 15 0 10 1;
#X connect 16 0 17 0;
#X connect 17 0 10 0;
#X connect 18 0 20 1;
#X connect 19 0 20 0;
#X connect 20 0 21 1;
#X connect 21 0 3 0;
#X connect 22 0 5 0;
#X connect 23 0 19 0;
#X connect 24 0 23 0;
#X connect 25 0 13 1;
#X connect 26 0 12 0;
#X connect 26 1 8 0;
#X connect 27 0 2 0;
#X connect 27 1 29 0;
#X connect 28 0 24 0;
#X connect 30 0 150 0;
#X connect 30 1 38 0;
#X connect 30 1 144 1;
#X connect 31 0 32 0;
#X connect 33 0 34 0;
#X connect 34 0 35 0;
#X connect 34 0 89 0;
#X connect 35 0 36 0;
#X connect 35 1 36 1;
#X connect 36 0 101 0;
#X connect 38 0 39 0;
#X connect 39 0 40 0;
#X connect 42 0 43 0;
#X connect 45 0 46 0;
#X connect 47 0 48 0;
#X connect 49 0 50 0;
#X connect 51 0 52 0;
#X connect 53 0 54 0;
#X connect 55 0 56 0;
#X connect 57 0 58 0;
#X connect 89 0 93 0;
#X connect 89 1 90 1;
#X connect 90 0 95 0;
#X connect 92 0 93 1;
#X connect 93 0 90 0;
#X connect 95 0 101 1;
#X connect 96 0 97 0;
#X connect 97 0 98 0;
#X connect 98 0 99 0;
#X connect 99 0 100 0;
#X connect 100 0 95 1;
#X connect 101 0 148 0;
#X connect 102 0 147 0;
#X connect 103 0 104 0;
#X connect 103 1 104 1;
#X connect 104 0 115 0;
#X connect 105 0 108 0;
#X connect 105 1 106 1;
#X connect 106 0 109 0;
#X connect 107 0 108 1;
#X connect 108 0 106 0;
#X connect 109 0 115 1;
#X connect 110 0 111 0;
#X connect 111 0 112 0;
#X connect 112 0 113 0;
#X connect 113 0 114 0;
#X connect 114 0 109 1;
#X connect 115 0 148 0;
#X connect 116 0 146 0;
#X connect 117 0 118 0;
#X connect 117 1 118 1;
#X connect 118 0 129 0;
#X connect 119 0 122 0;
#X connect 119 1 120 1;
#X connect 120 0 123 0;
#X connect 121 0 122 1;
#X connect 122 0 120 0;
#X connect 123 0 129 1;
#X connect 124 0 125 0;
#X connect 125 0 126 0;
#X connect 126 0 127 0;
#X connect 127 0 128 0;
#X connect 128 0 123 1;
#X connect 129 0 148 0;
#X connect 130 0 145 0;
#X connect 131 0 132 0;
#X connect 131 1 132 1;
#X connect 132 0 143 0;
#X connect 133 0 136 0;
#X connect 133 1 134 1;
#X connect 134 0 137 0;
#X connect 135 0 136 1;
#X connect 136 0 134 0;
#X connect 137 0 143 1;
#X connect 138 0 139 0;
#X connect 139 0 140 0;
#X connect 140 0 141 0;
#X connect 141 0 142 0;
#X connect 142 0 137 1;
#X connect 143 0 148 0;
#X connect 144 0 31 0;
#X connect 144 1 31 1;
#X connect 144 2 31 2;
#X connect 145 0 131 0;
#X connect 145 0 133 0;
#X connect 146 0 117 0;
#X connect 146 0 119 0;
#X connect 147 0 103 0;
#X connect 147 0 105 0;
#X connect 148 0 149 0;
#X connect 148 0 40 0;
#X connect 149 0 37 0;
#X connect 150 0 144 0;
#X connect 151 0 144 0;
