#N canvas 0 23 1280 755 10;
#X obj 391 272 bng 15 250 50 0 empty empty empty 17 7 0 10 -262144
-1 -1;
#X obj 401 282 bng 15 250 50 0 empty empty empty 17 7 0 10 -262144
-1 -1;
#X obj 421 290 bng 15 250 50 0 empty empty empty 17 7 0 10 -262144
-1 -1;
#X obj 431 290 bng 15 250 50 0 empty empty empty 17 7 0 10 -262144
-1 -1;
#X obj 441 290 bng 15 250 50 0 empty empty empty 17 7 0 10 -262144
-1 -1;
#X obj 451 280 bng 15 250 50 0 empty empty empty 17 7 0 10 -262144
-1 -1;
#X obj 461 270 bng 15 250 50 0 empty empty empty 17 7 0 10 -262144
-1 -1;
#X obj 406 290 bng 15 250 50 0 empty empty empty 17 7 0 10 -262144
-1 -1;
#X obj 401 262 bng 15 250 50 0 empty empty empty 17 7 0 10 -262144
-1 -1;
#X obj 411 252 bng 15 250 50 0 empty empty empty 17 7 0 10 -262144
-1 -1;
#X obj 421 252 bng 15 250 50 0 empty empty empty 17 7 0 10 -262144
-1 -1;
#X obj 431 252 bng 15 250 50 0 empty empty empty 17 7 0 10 -262144
-1 -1;
#X obj 441 252 bng 15 250 50 0 empty empty empty 17 7 0 10 -262144
-1 -1;
#X obj 451 262 bng 15 250 50 0 empty empty empty 17 7 0 10 -262144
-1 -1;
#X obj 537 272 bng 15 250 50 0 empty empty empty 17 7 0 10 -262144
-1 -1;
#X obj 547 282 bng 15 250 50 0 empty empty empty 17 7 0 10 -262144
-1 -1;
#X obj 567 290 bng 15 250 50 0 empty empty empty 17 7 0 10 -262144
-1 -1;
#X obj 577 290 bng 15 250 50 0 empty empty empty 17 7 0 10 -262144
-1 -1;
#X obj 587 290 bng 15 250 50 0 empty empty empty 17 7 0 10 -262144
-1 -1;
#X obj 597 280 bng 15 250 50 0 empty empty empty 17 7 0 10 -262144
-1 -1;
#X obj 607 270 bng 15 250 50 0 empty empty empty 17 7 0 10 -262144
-1 -1;
#X obj 557 290 bng 15 250 50 0 empty empty empty 17 7 0 10 -262144
-1 -1;
#X obj 547 262 bng 15 250 50 0 empty empty empty 17 7 0 10 -262144
-1 -1;
#X obj 557 252 bng 15 250 50 0 empty empty empty 17 7 0 10 -262144
-1 -1;
#X obj 567 252 bng 15 250 50 0 empty empty empty 17 7 0 10 -262144
-1 -1;
#X obj 577 252 bng 15 250 50 0 empty empty empty 17 7 0 10 -262144
-1 -1;
#X obj 587 252 bng 15 250 50 0 empty empty empty 17 7 0 10 -262144
-1 -1;
#X obj 597 262 bng 15 250 50 0 empty empty empty 17 7 0 10 -262144
-1 -1;
#X obj 471 280 bng 15 250 50 0 empty empty empty 17 7 0 10 -262144
-1 -1;
#X obj 411 422 bng 15 250 50 0 empty empty empty 17 7 0 10 -262144
-1 -1;
#X obj 421 432 bng 15 250 50 0 empty empty empty 17 7 0 10 -262144
-1 -1;
#X obj 431 442 bng 15 250 50 0 empty empty empty 17 7 0 10 -262144
-1 -1;
#X obj 441 452 bng 15 250 50 0 empty empty empty 17 7 0 10 -262144
-1 -1;
#X obj 587 422 bng 15 250 50 0 empty empty empty 17 7 0 10 -262144
-1 -1;
#X obj 577 432 bng 15 250 50 0 empty empty empty 17 7 0 10 -262144
-1 -1;
#X obj 567 442 bng 15 250 50 0 empty empty empty 17 7 0 10 -262144
-1 -1;
#X obj 557 452 bng 15 250 50 0 empty empty empty 17 7 0 10 -262144
-1 -1;
#X obj 451 452 bng 15 250 50 0 empty empty empty 17 7 0 10 -262144
-1 -1;
#X obj 461 452 bng 15 250 50 0 empty empty empty 17 7 0 10 -262144
-1 -1;
#X obj 471 452 bng 15 250 50 0 empty empty empty 17 7 0 10 -262144
-1 -1;
#X obj 481 452 bng 15 250 50 0 empty empty empty 17 7 0 10 -262144
-1 -1;
#X obj 491 452 bng 15 250 50 0 empty empty empty 17 7 0 10 -262144
-1 -1;
#X obj 501 452 bng 15 250 50 0 empty empty empty 17 7 0 10 -262144
-1 -1;
#X obj 511 452 bng 15 250 50 0 empty empty empty 17 7 0 10 -262144
-1 -1;
#X obj 521 452 bng 15 250 50 0 empty empty empty 17 7 0 10 -262144
-1 -1;
#X obj 531 452 bng 15 250 50 0 empty empty empty 17 7 0 10 -262144
-1 -1;
#X obj 541 452 bng 15 250 50 0 empty empty empty 17 7 0 10 -262144
-1 -1;
#X obj 411 462 bng 15 250 50 0 empty empty empty 17 7 0 10 -262144
-1 -1;
#X obj 421 472 bng 15 250 50 0 empty empty empty 17 7 0 10 -262144
-1 -1;
#X obj 431 482 bng 15 250 50 0 empty empty empty 17 7 0 10 -262144
-1 -1;
#X obj 441 492 bng 15 250 50 0 empty empty empty 17 7 0 10 -262144
-1 -1;
#X obj 587 462 bng 15 250 50 0 empty empty empty 17 7 0 10 -262144
-1 -1;
#X obj 577 472 bng 15 250 50 0 empty empty empty 17 7 0 10 -262144
-1 -1;
#X obj 567 482 bng 15 250 50 0 empty empty empty 17 7 0 10 -262144
-1 -1;
#X obj 557 492 bng 15 250 50 0 empty empty empty 17 7 0 10 -262144
-1 -1;
#X obj 451 492 bng 15 250 50 0 empty empty empty 17 7 0 10 -262144
-1 -1;
#X obj 461 492 bng 15 250 50 0 empty empty empty 17 7 0 10 -262144
-1 -1;
#X obj 471 492 bng 15 250 50 0 empty empty empty 17 7 0 10 -262144
-1 -1;
#X obj 481 492 bng 15 250 50 0 empty empty empty 17 7 0 10 -262144
-1 -1;
#X obj 491 492 bng 15 250 50 0 empty empty empty 17 7 0 10 -262144
-1 -1;
#X obj 501 492 bng 15 250 50 0 empty empty empty 17 7 0 10 -262144
-1 -1;
#X obj 511 492 bng 15 250 50 0 empty empty empty 17 7 0 10 -262144
-1 -1;
#X obj 521 492 bng 15 250 50 0 empty empty empty 17 7 0 10 -262144
-1 -1;
#X obj 531 492 bng 15 250 50 0 empty empty empty 17 7 0 10 -262144
-1 -1;
#X obj 541 492 bng 15 250 50 0 empty empty empty 17 7 0 10 -262144
-1 -1;
#X obj 587 432 bng 15 250 50 0 empty empty empty 17 7 0 10 -262144
-1 -1;
#X obj 587 442 bng 15 250 50 0 empty empty empty 17 7 0 10 -262144
-1 -1;
#X obj 587 452 bng 15 250 50 0 empty empty empty 17 7 0 10 -262144
-1 -1;
#X obj 411 432 bng 15 250 50 0 empty empty empty 17 7 0 10 -262144
-1 -1;
#X obj 411 442 bng 15 250 50 0 empty empty empty 17 7 0 10 -262144
-1 -1;
#X obj 411 452 bng 15 250 50 0 empty empty empty 17 7 0 10 -262144
-1 -1;
#X obj 527 242 bng 15 250 50 0 empty empty empty 17 7 0 10 -262144
-1 -1;
#X obj 617 240 bng 15 250 50 0 empty empty empty 17 7 0 10 -262144
-1 -1;
#X obj 537 232 bng 15 250 50 0 empty empty empty 17 7 0 10 -262144
-1 -1;
#X obj 547 222 bng 15 250 50 0 empty empty empty 17 7 0 10 -262144
-1 -1;
#X obj 557 222 bng 15 250 50 0 empty empty empty 17 7 0 10 -262144
-1 -1;
#X obj 567 222 bng 15 250 50 0 empty empty empty 17 7 0 10 -262144
-1 -1;
#X obj 597 222 bng 15 250 50 0 empty empty empty 17 7 0 10 -262144
-1 -1;
#X obj 607 232 bng 15 250 50 0 empty empty empty 17 7 0 10 -262144
-1 -1;
#X obj 577 222 bng 15 250 50 0 empty empty empty 17 7 0 10 -262144
-1 -1;
#X obj 587 222 bng 15 250 50 0 empty empty empty 17 7 0 10 -262144
-1 -1;
#X obj 381 244 bng 15 250 50 0 empty empty empty 17 7 0 10 -262144
-1 -1;
#X obj 471 242 bng 15 250 50 0 empty empty empty 17 7 0 10 -262144
-1 -1;
#X obj 391 234 bng 15 250 50 0 empty empty empty 17 7 0 10 -262144
-1 -1;
#X obj 401 224 bng 15 250 50 0 empty empty empty 17 7 0 10 -262144
-1 -1;
#X obj 411 224 bng 15 250 50 0 empty empty empty 17 7 0 10 -262144
-1 -1;
#X obj 421 224 bng 15 250 50 0 empty empty empty 17 7 0 10 -262144
-1 -1;
#X obj 451 224 bng 15 250 50 0 empty empty empty 17 7 0 10 -262144
-1 -1;
#X obj 461 234 bng 15 250 50 0 empty empty empty 17 7 0 10 -262144
-1 -1;
#X obj 431 224 bng 15 250 50 0 empty empty empty 17 7 0 10 -262144
-1 -1;
#X obj 441 224 bng 15 250 50 0 empty empty empty 17 7 0 10 -262144
-1 -1;
#X obj 481 290 bng 15 250 50 0 empty empty empty 17 7 0 10 -262144
-1 -1;
#X obj 491 300 bng 15 250 50 0 empty empty empty 17 7 0 10 -262144
-1 -1;
#X obj 491 310 bng 15 250 50 0 empty empty empty 17 7 0 10 -262144
-1 -1;
#X obj 491 320 bng 15 250 50 0 empty empty empty 17 7 0 10 -262144
-1 -1;
#X obj 491 350 bng 15 250 50 0 empty empty empty 17 7 0 10 -262144
-1 -1;
#X obj 481 360 bng 15 250 50 0 empty empty empty 17 7 0 10 -262144
-1 -1;
#X obj 481 370 bng 15 250 50 0 empty empty empty 17 7 0 10 -262144
-1 -1;
#X obj 471 380 bng 15 250 50 0 empty empty empty 17 7 0 10 -262144
-1 -1;
#X obj 471 390 bng 15 250 50 0 empty empty empty 17 7 0 10 -262144
-1 -1;
#X obj 481 400 bng 15 250 50 0 empty empty empty 17 7 0 10 -262144
-1 -1;
#X obj 491 410 bng 15 250 50 0 empty empty empty 17 7 0 10 -262144
-1 -1;
#X obj 501 410 bng 15 250 50 0 empty empty empty 17 7 0 10 -262144
-1 -1;
#X obj 511 400 bng 15 250 50 0 empty empty empty 17 7 0 10 -262144
-1 -1;
#X obj 491 330 bng 15 250 50 0 empty empty empty 17 7 0 10 -262144
-1 -1;
#X obj 491 340 bng 15 250 50 0 empty empty empty 17 7 0 10 -262144
-1 -1;
#X obj 927 203 tgl 15 0 empty empty empty 17 7 0 10 -262144 -1 -1 1
1;
#X obj 927 313 tgl 15 0 empty empty empty 17 7 0 10 -262144 -1 -1 1
1;
#X obj 927 423 tgl 15 0 empty empty empty 17 7 0 10 -262144 -1 -1 1
1;
#N canvas 0 23 450 278 (subpatch) 0;
#X array beginning_april_28 100 float 5;
#A 0 0.399776 0.398857 0.39794 0.397023 0.396108 0.395193 0.39428 0.393367
0.392456 0.391545 0.390635 0.389727 0.388819 0.387912 0.387007 0.386102
0.385199 0.384296 0.383394 0.382494 0.381594 0.380695 0.379798 0.378901
0.378005 0.37711 0.376217 0.375324 0.374432 0.373542 0.372652 0.371763
0.370875 0.369988 0.369103 0.368218 0.367334 0.366451 0.365569 0.364689
0.363809 0.36293 0.362052 0.361175 0.360299 0.359424 0.358551 0.357678
0.356806 0.355935 0.355065 0.354196 0.353328 0.352461 0.351595 0.35073
0.349866 0.349003 0.348141 0.34728 0.34642 0.345561 0.344703 0.343846
0.34299 0.342135 0.341281 0.340428 0.339576 0.338725 0.337875 0.337026
0.336178 0.33533 0.334484 0.333639 0.332795 0.331952 0.33111 0.330269
0.329429 0.328589 0.327751 0.326914 0.326078 0.325243 0.324408 0.323575
0.322743 0.321912 0.321081 0.320252 0.319424 0.318597 0.31777 0.316945
0.316121 0.315297 0.314475 0.313654;
#X array every_tuesday 100 float 5;
#A 0 0.598598 0.598598 0.598598 0.598598 0.598598 0.598598 0.598598
0.598598 0.598598 0.598598 0.598598 0.598598 0.598598 0.598598 0.598598
0.598598 0.598598 0.598598 0.598598 0.598598 0.598598 0.598598 0.598598
0.598598 0.598598 0.598598 0.598598 0.598598 0.598598 0.598598 0.598598
0.598598 0.598598 0.598598 0.598598 0.598598 0.598598 0.598598 0.598598
0.598598 0.598598 0.598598 0.598598 0.598598 0.598598 0.598598 0.598598
0.598598 0.598598 0.598598 0.598598 0.598598 0.598598 0.598598 0.598598
0.598598 0.598598 0.598598 0.598598 0.598598 0.598598 0.598598 0.598598
0.598598 0.598598 0.598598 0.598598 0.598598 0.598598 0.598598 0.598598
0.598598 0.598598 0.598598 0.598598 0.598598 0.598598 0.598598 0.598598
0.598598 0.598598 0.598598 0.598598 0.598598 0.598598 0.598598 0.598598
0.598598 0.598598 0.598598 0.598598 0.598598 0.598598 0.598598 0.598598
0.598598 0.598598 0.598598 0.598598 0.598598;
#X array 6-8pm 100 float 5;
#A 0 0.267926 0.266792 0.265658 0.264525 0.263391 0.262257 0.261123
0.259989 0.258856 0.257722 0.256588 0.255454 0.25432 0.253187 0.252053
0.250919 0.249785 0.248652 0.247518 0.246384 0.24525 0.244116 0.242983
0.241849 0.240715 0.239581 0.238447 0.237314 0.23618 0.235046 0.233912
0.232779 0.231645 0.230511 0.229377 0.228243 0.22711 0.225976 0.224842
0.223708 0.222574 0.221441 0.220307 0.219173 0.218039 0.216905 0.215772
0.214638 0.213504 0.21237 0.211237 0.210103 0.208969 0.207835 0.206701
0.205568 0.204434 0.2033 0.202166 0.201032 0.199899 0.198765 0.197631
0.196497 0.195364 0.19423 0.193096 0.191962 0.190828 0.189695 0.188561
0.187427 0.186293 0.185159 0.184026 0.182892 0.181758 0.180624 0.179491
0.178357 0.177223 0.176089 0.174955 0.173822 0.172688 0.171554 0.17042
0.169286 0.168153 0.167019 0.165885 0.164751 0.163618 0.162484 0.16135
0.160216 0.159082 0.157949 0.156815 0.155681;
#X coords 0 1 99 0 400 400 1 0 0;
#X restore 308 166 graph;
#X obj 873 541 dac~;
#X obj 891 491 hsl 64 15 0 1 0 0 empty empty empty -2 -8 0 10 -262144
-1 -1 5100 1;
#X obj 873 514 *~;
#X obj 868 358 +~;
#X obj 864 426 *~;
#X obj 868 253 tgl 15 0 empty empty empty 17 7 0 10 -262144 -1 -1 1
1;
#X obj 565 263 tgl 15 0 empty empty empty 17 7 0 10 -262144 -1 -1 1
1;
#X obj 419 263 tgl 15 0 empty empty empty 17 7 0 10 -262144 -1 -1 1
1;
#X text 458 581 w/ tanner noykoa;
#X obj 1148 90 line;
#X obj 988 45 bng 15 250 50 0 empty empty empty 17 7 0 10 -262144 -1
-1;
#X obj 927 223 metro 55;
#X obj 927 333 metro 55;
#X obj 927 443 metro 55;
#X text 558 151 inquire for scholarships;
#X text 450 471 intro to pure data;
#X text 438 568 weekly workshop series;
#X obj 740 300 lop~;
#X text 606 140 \$10/week;
#X obj 988 65 delay 9999;
#X obj 1151 325 / 1.61;
#X obj 909 69 lop~;
#X obj 909 48 pink~;
#X obj 801 215 hsl 64 15 0 1 0 0 empty empty empty -2 -8 0 10 -262144
-1 -1 5200 1;
#X obj 783 238 *~;
#X obj 907 354 tabwrite~ 6-8pm;
#X obj 907 244 tabwrite~ every_tuesday;
#X obj 907 464 tabwrite~ beginning_april_28;
#X obj 907 182 phasor~;
#X obj 907 292 phasor~;
#X obj 907 402 phasor~;
#X obj 1151 298 / 1.61;
#X obj 1081 164 - 50;
#X msg 1105 51 666 \, 0 9999;
#X msg 1148 69 0 \, 666 9999;
#X obj 767 76 +~;
#X obj 767 97 *~;
#X obj 767 55 osc~ 111;
#X obj 791 96 osc~ 116;
#X obj 794 129 osc~ 121;
#X text 438 140 register @ whateverspace.org;
#X obj 969 137 * 5;
#X connect 106 0 121 0;
#X connect 107 0 122 0;
#X connect 108 0 123 0;
#X connect 111 0 112 1;
#X connect 112 0 110 1;
#X connect 112 0 110 0;
#X connect 113 0 114 0;
#X connect 114 0 112 0;
#X connect 114 0 137 0;
#X connect 115 0 106 0;
#X connect 115 0 107 0;
#X connect 115 0 108 0;
#X connect 119 0 138 0;
#X connect 119 0 142 0;
#X connect 119 0 151 0;
#X connect 120 0 129 0;
#X connect 120 0 144 0;
#X connect 121 0 136 0;
#X connect 122 0 135 0;
#X connect 123 0 137 0;
#X connect 127 0 114 1;
#X connect 127 0 114 0;
#X connect 127 0 113 1;
#X connect 127 0 113 0;
#X connect 127 0 135 0;
#X connect 127 0 136 0;
#X connect 127 0 137 0;
#X connect 129 0 143 0;
#X connect 130 0 140 0;
#X connect 131 0 127 0;
#X connect 132 0 131 0;
#X connect 133 0 134 1;
#X connect 134 0 112 0;
#X connect 138 0 113 0;
#X connect 138 0 136 0;
#X connect 139 0 113 1;
#X connect 139 0 135 0;
#X connect 140 0 114 1;
#X connect 141 0 130 0;
#X connect 142 0 139 0;
#X connect 142 0 141 0;
#X connect 143 0 119 0;
#X connect 144 0 119 0;
#X connect 145 0 146 0;
#X connect 146 0 134 0;
#X connect 147 0 145 0;
#X connect 148 0 145 1;
#X connect 149 0 146 1;
#X connect 151 0 127 1;
#X connect 151 0 131 1;
