#N canvas 0 23 1280 755 10;
#X obj 1134 255 hradio 15 1 0 8 empty empty empty 0 -8 0 10 -262144
-1 -1 2;
#X obj 1134 173 tgl 15 0 empty empty empty 17 7 0 10 -262144 -1 -1
1 1;
#X obj 1134 214 f;
#X obj 1164 214 + 1;
#X obj 1134 235 mod 8;
#X floatatom 1134 275 5 0 0 0 - - -;
#X obj 1134 302 sel 0 1 2 3 4 5 6 7, f 56;
#X text 269 132 1;
#X obj 463 427 bng 15 250 50 0 empty empty empty 17 7 0 10 -262144
-1 -1;
#X obj 463 447 f;
#X obj 493 447 + 1;
#X floatatom 463 468 5 0 0 0 - - -;
#X text -55 132 0;
#X floatatom 218 182 5 0 0 0 - - -;
#X obj 218 202 osc~;
#X obj 218 243 *~;
#X obj 218 304 dac~;
#X obj 464 223 f;
#X floatatom 464 244 5 0 0 0 - - -;
#X obj 464 159 bng 15 250 50 0 empty empty empty 17 7 0 10 -262144
-1 -1;
#X msg 504 197 5;
#X msg 479 179 3;
#X text 464 132 2;
#X floatatom 631 209 5 0 0 0 - - -;
#X floatatom 631 167 5 0 0 0 - - -;
#X obj 631 188 mod 10;
#X obj 633 417 bng 15 250 50 0 empty empty empty 17 7 0 10 -262144
-1 -1;
#X obj 633 437 f;
#X obj 663 437 + 1;
#X floatatom 633 479 5 0 0 0 - - -;
#X text 634 132 3;
#X obj 813 321 hradio 15 1 0 8 empty empty empty 0 -8 0 10 -262144
-1 -1 0;
#X floatatom 813 341 5 0 0 0 - - -;
#X obj 813 361 sel 0 1 2 3 4 5 6 7;
#X obj 813 161 hradio 15 1 0 8 empty empty empty 0 -8 0 10 -262144
-1 -1 7;
#X obj 813 591 hradio 15 1 0 8 empty empty empty 0 -8 0 10 -262144
-1 -1 0;
#X floatatom 813 611 5 0 0 0 - - -;
#X obj 813 527 bng 15 250 50 0 empty empty empty 17 7 0 10 -262144
-1 -1;
#X obj 813 547 f;
#X obj 843 547 + 1;
#X obj 633 458 mod 10;
#X obj 813 568 mod 8;
#X floatatom 813 181 5 0 0 0 - - -;
#X obj 813 391 bng 15 250 50 0 empty empty empty 17 7 0 10 -262144
-1 -1;
#X obj 833 391 bng 15 250 50 0 empty empty empty 17 7 0 10 -262144
-1 -1;
#X obj 853 391 bng 15 250 50 0 empty empty empty 17 7 0 10 -262144
-1 -1;
#X obj 873 391 bng 15 250 50 0 empty empty empty 17 7 0 10 -262144
-1 -1;
#X obj 893 391 bng 15 250 50 0 empty empty empty 17 7 0 10 -262144
-1 -1;
#X obj 913 391 bng 15 250 50 0 empty empty empty 17 7 0 10 -262144
-1 -1;
#X obj 933 391 bng 15 250 50 0 empty empty empty 17 7 0 10 -262144
-1 -1;
#X obj 953 391 bng 15 250 50 0 empty empty empty 17 7 0 10 -262144
-1 -1;
#X obj 973 391 bng 15 250 50 0 empty empty empty 17 7 0 10 -262144
-1 -1;
#X msg 913 341 999;
#X obj 813 631 sel 0 1 2 3 4 5 6 7;
#X obj 813 661 bng 15 250 50 0 empty empty empty 17 7 0 10 -262144
-1 -1;
#X obj 833 661 bng 15 250 50 0 empty empty empty 17 7 0 10 -262144
-1 -1;
#X obj 853 661 bng 15 250 50 0 empty empty empty 17 7 0 10 -262144
-1 -1;
#X obj 873 661 bng 15 250 50 0 empty empty empty 17 7 0 10 -262144
-1 -1;
#X obj 893 661 bng 15 250 50 0 empty empty empty 17 7 0 10 -262144
-1 -1;
#X obj 913 661 bng 15 250 50 0 empty empty empty 17 7 0 10 -262144
-1 -1;
#X obj 933 661 bng 15 250 50 0 empty empty empty 17 7 0 10 -262144
-1 -1;
#X obj 953 661 bng 15 250 50 0 empty empty empty 17 7 0 10 -262144
-1 -1;
#X obj 973 661 bng 15 250 50 0 empty empty empty 17 7 0 10 -262144
-1 -1;
#X text 874 132 4;
#X obj 1134 193 metro 750;
#X msg 259 197 1 \, 0 1000;
#X obj 259 218 line~;
#X floatatom -60 153 5 0 0 0 - - -;
#X obj -60 173 osc~;
#X obj -60 194 *~;
#X obj -60 215 dac~;
#X obj -4 178 hsl 128 15 0 127 0 0 empty empty empty -2 -8 0 10 -262144
-1 -1 0 1;
#X obj -7 198 / 127;
#X text 1144 132 5;
#X text 2138 150 6;
#X floatatom 1117 398 5 0 0 0 - - -;
#X obj 1117 418 osc~;
#X obj 1117 459 *~;
#X msg 1158 413 1 \, 0 1000;
#X obj 1158 434 line~;
#X floatatom 1227 398 5 0 0 0 - - -;
#X obj 1227 418 osc~;
#X obj 1227 459 *~;
#X msg 1268 413 1 \, 0 1000;
#X obj 1268 434 line~;
#X floatatom 1337 398 5 0 0 0 - - -;
#X obj 1337 418 osc~;
#X obj 1337 459 *~;
#X msg 1378 413 1 \, 0 1000;
#X obj 1378 434 line~;
#X floatatom 1447 398 5 0 0 0 - - -;
#X obj 1447 418 osc~;
#X obj 1447 459 *~;
#X msg 1488 413 1 \, 0 1000;
#X obj 1488 434 line~;
#X floatatom 1557 398 5 0 0 0 - - -;
#X obj 1557 418 osc~;
#X obj 1557 459 *~;
#X msg 1598 413 1 \, 0 1000;
#X obj 1598 434 line~;
#X floatatom 1667 398 5 0 0 0 - - -;
#X obj 1667 418 osc~;
#X obj 1667 459 *~;
#X msg 1708 413 1 \, 0 1000;
#X obj 1708 434 line~;
#X floatatom 1777 398 5 0 0 0 - - -;
#X obj 1777 418 osc~;
#X obj 1777 459 *~;
#X msg 1818 413 1 \, 0 1000;
#X obj 1818 434 line~;
#X floatatom 1887 398 5 0 0 0 - - -;
#X obj 1887 418 osc~;
#X obj 1887 459 *~;
#X msg 1928 413 1 \, 0 1000;
#X obj 1928 434 line~;
#X obj 1517 595 dac~;
#X floatatom 2117 204 5 0 0 0 - - -;
#X obj 2117 224 osc~;
#X obj 2117 265 *~;
#X obj 2117 326 dac~;
#X text 2438 150 7;
#X obj 2158 240 vline~;
#X msg 2158 219 1 250 \, 0 750 250;
#X text 2157 261 ramp to 1 in 250ms \,, f 24;
#X text 2157 281 ramp to 0 in 750ms (initiate after 250ms), f 24;
#X floatatom 2179 469 5 0 0 0 - - -;
#X floatatom 2221 520 5 0 0 0 - - -;
#X floatatom 2119 562 5 0 0 0 - - -;
#X obj 2119 582 osc~;
#X obj 2119 628 *~;
#X obj 2119 689 dac~;
#X obj 2164 493 f;
#X obj 2164 604 vline~;
#X msg 2164 577 1 \$1 \, 0 \$2 \$1;
#X text 2173 626 make envelope variable;
#X obj 2164 447 bng 15 250 50 0 empty empty empty 17 7 0 10 -262144
-1 -1;
#X obj 2164 547 pack \$1 \$2;
#N canvas 377 212 450 300 example 0;
#X floatatom 187 105 5 0 0 0 - - -;
#X obj 187 125 osc~;
#X obj 187 156 *~;
#X obj 187 177 outlet~;
#X obj 236 107 /~ 127;
#X obj 236 78 inlet;
#X obj 187 78 inlet;
#X connect 0 0 1 0;
#X connect 1 0 2 0;
#X connect 2 0 3 0;
#X connect 4 0 2 1;
#X connect 5 0 4 0;
#X connect 6 0 0 0;
#X restore 2447 219 pd example;
#X obj 2447 240 dac~;
#X obj 2495 198 hsl 128 15 0 127 0 0 empty empty empty -2 -8 0 10 -262144
-1 -1 0 1;
#X floatatom 2447 182 5 0 0 0 - - -;
#X obj 2448 436 hradio 15 1 0 8 empty empty empty 0 -8 0 10 -262144
-1 -1 3;
#X obj 2448 354 tgl 15 0 empty empty empty 17 7 0 10 -262144 -1 -1
0 1;
#X obj 2448 395 f;
#X obj 2478 395 + 1;
#X obj 2448 416 mod 8;
#X floatatom 2448 456 5 0 0 0 - - -;
#X obj 2448 374 metro 750;
#N canvas 0 23 1280 614 osc-bank 0;
#X floatatom 120 272 5 0 0 0 - - -;
#X floatatom 162 323 5 0 0 0 - - -;
#X floatatom 60 365 5 0 0 0 - - -;
#X obj 60 385 osc~;
#X obj 60 431 *~;
#X obj 105 296 f;
#X obj 105 407 vline~;
#X msg 105 380 1 \$1 \, 0 \$2 \$1;
#X obj 105 250 bng 15 250 50 0 empty empty empty 17 7 0 10 -262144
-1 -1;
#X obj 105 350 pack \$1 \$2;
#X floatatom 260 272 5 0 0 0 - - -;
#X floatatom 302 323 5 0 0 0 - - -;
#X floatatom 200 365 5 0 0 0 - - -;
#X obj 200 385 osc~;
#X obj 200 431 *~;
#X obj 245 296 f;
#X obj 245 407 vline~;
#X msg 245 380 1 \$1 \, 0 \$2 \$1;
#X obj 245 250 bng 15 250 50 0 empty empty empty 17 7 0 10 -262144
-1 -1;
#X obj 245 350 pack \$1 \$2;
#X floatatom 400 272 5 0 0 0 - - -;
#X floatatom 442 323 5 0 0 0 - - -;
#X floatatom 340 365 5 0 0 0 - - -;
#X obj 340 385 osc~;
#X obj 340 431 *~;
#X obj 385 296 f;
#X obj 385 407 vline~;
#X msg 385 380 1 \$1 \, 0 \$2 \$1;
#X obj 385 250 bng 15 250 50 0 empty empty empty 17 7 0 10 -262144
-1 -1;
#X obj 385 350 pack \$1 \$2;
#X floatatom 540 272 5 0 0 0 - - -;
#X floatatom 582 323 5 0 0 0 - - -;
#X floatatom 480 365 5 0 0 0 - - -;
#X obj 480 385 osc~;
#X obj 480 431 *~;
#X obj 525 296 f;
#X obj 525 407 vline~;
#X msg 525 380 1 \$1 \, 0 \$2 \$1;
#X obj 525 250 bng 15 250 50 0 empty empty empty 17 7 0 10 -262144
-1 -1;
#X obj 525 350 pack \$1 \$2;
#X floatatom 680 272 5 0 0 0 - - -;
#X floatatom 722 323 5 0 0 0 - - -;
#X floatatom 620 365 5 0 0 0 - - -;
#X obj 620 385 osc~;
#X obj 620 431 *~;
#X obj 665 296 f;
#X obj 665 407 vline~;
#X msg 665 380 1 \$1 \, 0 \$2 \$1;
#X obj 665 250 bng 15 250 50 0 empty empty empty 17 7 0 10 -262144
-1 -1;
#X obj 665 350 pack \$1 \$2;
#X floatatom 820 272 5 0 0 0 - - -;
#X floatatom 862 323 5 0 0 0 - - -;
#X floatatom 760 365 5 0 0 0 - - -;
#X obj 760 385 osc~;
#X obj 760 431 *~;
#X obj 805 296 f;
#X obj 805 407 vline~;
#X msg 805 380 1 \$1 \, 0 \$2 \$1;
#X obj 805 250 bng 15 250 50 0 empty empty empty 17 7 0 10 -262144
-1 -1;
#X obj 805 350 pack \$1 \$2;
#X floatatom 960 272 5 0 0 0 - - -;
#X floatatom 1002 323 5 0 0 0 - - -;
#X floatatom 900 365 5 0 0 0 - - -;
#X obj 900 385 osc~;
#X obj 900 431 *~;
#X obj 945 296 f;
#X obj 945 407 vline~;
#X msg 945 380 1 \$1 \, 0 \$2 \$1;
#X obj 945 250 bng 15 250 50 0 empty empty empty 17 7 0 10 -262144
-1 -1;
#X obj 945 350 pack \$1 \$2;
#X floatatom 1100 272 5 0 0 0 - - -;
#X floatatom 1142 323 5 0 0 0 - - -;
#X floatatom 1040 365 5 0 0 0 - - -;
#X obj 1040 385 osc~;
#X obj 1040 431 *~;
#X obj 1085 296 f;
#X obj 1085 407 vline~;
#X msg 1085 380 1 \$1 \, 0 \$2 \$1;
#X obj 1085 250 bng 15 250 50 0 empty empty empty 17 7 0 10 -262144
-1 -1;
#X obj 1085 350 pack \$1 \$2;
#X obj 232 210 sel 0 1 2 3 4 5 6 7, f 139;
#X obj 606 556 outlet~;
#X obj 229 164 inlet;
#X obj 430 126 inlet;
#X obj 530 146 inlet;
#X text 466 127 attack;
#X text 570 147 decay;
#X connect 0 0 5 1;
#X connect 1 0 9 1;
#X connect 2 0 3 0;
#X connect 3 0 4 0;
#X connect 4 0 81 0;
#X connect 5 0 9 0;
#X connect 6 0 4 1;
#X connect 7 0 6 0;
#X connect 8 0 5 0;
#X connect 9 0 7 0;
#X connect 10 0 15 1;
#X connect 11 0 19 1;
#X connect 12 0 13 0;
#X connect 13 0 14 0;
#X connect 14 0 81 0;
#X connect 15 0 19 0;
#X connect 16 0 14 1;
#X connect 17 0 16 0;
#X connect 18 0 15 0;
#X connect 19 0 17 0;
#X connect 20 0 25 1;
#X connect 21 0 29 1;
#X connect 22 0 23 0;
#X connect 23 0 24 0;
#X connect 24 0 81 0;
#X connect 25 0 29 0;
#X connect 26 0 24 1;
#X connect 27 0 26 0;
#X connect 28 0 25 0;
#X connect 29 0 27 0;
#X connect 30 0 35 1;
#X connect 31 0 39 1;
#X connect 32 0 33 0;
#X connect 33 0 34 0;
#X connect 34 0 81 0;
#X connect 35 0 39 0;
#X connect 36 0 34 1;
#X connect 37 0 36 0;
#X connect 38 0 35 0;
#X connect 39 0 37 0;
#X connect 40 0 45 1;
#X connect 41 0 49 1;
#X connect 42 0 43 0;
#X connect 43 0 44 0;
#X connect 44 0 81 0;
#X connect 45 0 49 0;
#X connect 46 0 44 1;
#X connect 47 0 46 0;
#X connect 48 0 45 0;
#X connect 49 0 47 0;
#X connect 50 0 55 1;
#X connect 51 0 59 1;
#X connect 52 0 53 0;
#X connect 53 0 54 0;
#X connect 54 0 81 0;
#X connect 55 0 59 0;
#X connect 56 0 54 1;
#X connect 57 0 56 0;
#X connect 58 0 55 0;
#X connect 59 0 57 0;
#X connect 60 0 65 1;
#X connect 61 0 69 1;
#X connect 62 0 63 0;
#X connect 63 0 64 0;
#X connect 64 0 81 0;
#X connect 65 0 69 0;
#X connect 66 0 64 1;
#X connect 67 0 66 0;
#X connect 68 0 65 0;
#X connect 69 0 67 0;
#X connect 70 0 75 1;
#X connect 71 0 79 1;
#X connect 72 0 73 0;
#X connect 73 0 74 0;
#X connect 74 0 81 0;
#X connect 75 0 79 0;
#X connect 76 0 74 1;
#X connect 77 0 76 0;
#X connect 78 0 75 0;
#X connect 79 0 77 0;
#X connect 80 0 8 0;
#X connect 80 1 18 0;
#X connect 80 2 28 0;
#X connect 80 3 38 0;
#X connect 80 4 48 0;
#X connect 80 5 58 0;
#X connect 80 6 68 0;
#X connect 80 7 78 0;
#X connect 82 0 80 0;
#X connect 83 0 10 0;
#X connect 83 0 70 0;
#X connect 83 0 60 0;
#X connect 83 0 50 0;
#X connect 83 0 40 0;
#X connect 83 0 30 0;
#X connect 83 0 20 0;
#X connect 83 0 0 0;
#X connect 84 0 31 0;
#X connect 84 0 71 0;
#X connect 84 0 61 0;
#X connect 84 0 51 0;
#X connect 84 0 41 0;
#X connect 84 0 21 0;
#X connect 84 0 11 0;
#X connect 84 0 1 0;
#X restore 2448 519 pd osc-bank;
#X obj 2448 644 *~;
#X obj 2448 665 dac~;
#X floatatom 2479 477 5 0 0 0 - - -;
#X floatatom 2511 497 5 0 0 0 - - -;
#X msg 212 511 \$1 100;
#X obj 212 532 line~;
#X obj 215 469 hsl 128 15 0 127 0 0 empty empty empty -2 -8 0 10 -262144
-1 -1 0 1;
#X obj 212 489 / 127;
#X obj 2466 595 hsl 128 15 0 127 0 0 empty empty empty -2 -8 0 10 -262144
-1 -1 0 1;
#X obj 2463 615 / 127;
#X obj 197 562 *~;
#X obj 197 583 dac~;
#X obj 197 439 osc~ 396;
#X text 230 389 1b;
#X text 469 392 2b;
#X text 636 385 3b;
#X text 871 291 4b;
#X text 874 496 4c;
#X text 2140 417 6b;
#X text 2449 323 7b;
#X obj 147 27 bng 15 250 50 0 empty empty empty 17 7 0 10 -262144 -1
-1;
#X obj 149 697 bng 15 250 50 0 empty empty empty 17 7 0 10 -262144
-1 -1;
#X obj 395 27 bng 15 250 50 0 empty empty empty 17 7 0 10 -262144 -1
-1;
#X obj 397 697 bng 15 250 50 0 empty empty empty 17 7 0 10 -262144
-1 -1;
#X obj 567 27 bng 15 250 50 0 empty empty empty 17 7 0 10 -262144 -1
-1;
#X obj 569 697 bng 15 250 50 0 empty empty empty 17 7 0 10 -262144
-1 -1;
#X obj 747 27 bng 15 250 50 0 empty empty empty 17 7 0 10 -262144 -1
-1;
#X obj 749 697 bng 15 250 50 0 empty empty empty 17 7 0 10 -262144
-1 -1;
#X obj 1057 27 bng 15 250 50 0 empty empty empty 17 7 0 10 -262144
-1 -1;
#X obj 1059 697 bng 15 250 50 0 empty empty empty 17 7 0 10 -262144
-1 -1;
#X obj 2047 27 bng 15 250 50 0 empty empty empty 17 7 0 10 -262144
-1 -1;
#X obj 2049 697 bng 15 250 50 0 empty empty empty 17 7 0 10 -262144
-1 -1;
#X obj 2387 27 bng 15 250 50 0 empty empty empty 17 7 0 10 -262144
-1 -1;
#X obj 2389 697 bng 15 250 50 0 empty empty empty 17 7 0 10 -262144
-1 -1;
#X obj 2727 699;
#X obj -148 7;
#X text -67 81 rebuild last week's basic patch \, but focus on good
form and best practices, f 26;
#X text 210 50 introduce [line~];
#X text 196 99 not ideal envelope \, but perfect for..., f 29;
#X text 190 367 ...main volume slider control;
#X text 441 49 introduce [float];
#X text 426 85 hot/cold inlet review;
#X text 445 348 f+1;
#X text 413 367 our first line of poetry;
#X text 615 48 introduce [mod];
#X text 603 77 explain modulo \, but don't get hung up on it mathematically
, f 21;
#X text 618 345 combine with f+1;
#X text 835 49 introduce [hradio];
#X text 840 249 introduce [select] or [sel];
#X text 867 459 combine... we now have a step sequencer!!, f 26;
#X text 1208 57 integrate sequencer with osc/line~ patch from "1" \,
but notice the intrusive pops/clicks from [line~] jumping to 1;
#X text 2130 47 introduce [vline~];
#X text 2134 82 solve the problem of the pops/clicks;
#X text 2118 393 make the envelope's parameters variable;
#X text 2156 372 introduce [pack];
#X text 2467 92 introduce subpatches;
#X text 2473 286 make a practical subpatch;
#X connect 0 0 5 0;
#X connect 1 0 64 0;
#X connect 2 0 3 0;
#X connect 2 0 4 0;
#X connect 3 0 2 1;
#X connect 4 0 0 0;
#X connect 5 0 6 0;
#X connect 6 0 78 0;
#X connect 6 1 83 0;
#X connect 6 2 88 0;
#X connect 6 3 93 0;
#X connect 6 4 98 0;
#X connect 6 5 103 0;
#X connect 6 6 108 0;
#X connect 6 7 113 0;
#X connect 8 0 9 0;
#X connect 9 0 10 0;
#X connect 9 0 11 0;
#X connect 10 0 9 1;
#X connect 13 0 14 0;
#X connect 14 0 15 0;
#X connect 15 0 16 0;
#X connect 15 0 16 1;
#X connect 17 0 18 0;
#X connect 19 0 17 0;
#X connect 20 0 17 1;
#X connect 21 0 17 1;
#X connect 24 0 25 0;
#X connect 25 0 23 0;
#X connect 26 0 27 0;
#X connect 27 0 28 0;
#X connect 27 0 40 0;
#X connect 28 0 27 1;
#X connect 31 0 32 0;
#X connect 32 0 33 0;
#X connect 33 0 43 0;
#X connect 33 1 44 0;
#X connect 33 2 45 0;
#X connect 33 3 46 0;
#X connect 33 4 47 0;
#X connect 33 5 48 0;
#X connect 33 6 49 0;
#X connect 33 7 50 0;
#X connect 33 8 51 0;
#X connect 34 0 42 0;
#X connect 35 0 36 0;
#X connect 36 0 53 0;
#X connect 37 0 38 0;
#X connect 38 0 39 0;
#X connect 38 0 41 0;
#X connect 39 0 38 1;
#X connect 40 0 29 0;
#X connect 41 0 35 0;
#X connect 52 0 32 0;
#X connect 53 0 54 0;
#X connect 53 1 55 0;
#X connect 53 2 56 0;
#X connect 53 3 57 0;
#X connect 53 4 58 0;
#X connect 53 5 59 0;
#X connect 53 6 60 0;
#X connect 53 7 61 0;
#X connect 53 8 62 0;
#X connect 64 0 2 0;
#X connect 65 0 66 0;
#X connect 66 0 15 1;
#X connect 67 0 68 0;
#X connect 68 0 69 0;
#X connect 69 0 70 0;
#X connect 69 0 70 1;
#X connect 71 0 72 0;
#X connect 72 0 69 1;
#X connect 75 0 76 0;
#X connect 76 0 77 0;
#X connect 77 0 115 1;
#X connect 77 0 115 0;
#X connect 78 0 79 0;
#X connect 79 0 77 1;
#X connect 80 0 81 0;
#X connect 81 0 82 0;
#X connect 82 0 115 1;
#X connect 82 0 115 0;
#X connect 83 0 84 0;
#X connect 84 0 82 1;
#X connect 85 0 86 0;
#X connect 86 0 87 0;
#X connect 87 0 115 1;
#X connect 87 0 115 0;
#X connect 88 0 89 0;
#X connect 89 0 87 1;
#X connect 90 0 91 0;
#X connect 91 0 92 0;
#X connect 92 0 115 1;
#X connect 92 0 115 0;
#X connect 93 0 94 0;
#X connect 94 0 92 1;
#X connect 95 0 96 0;
#X connect 96 0 97 0;
#X connect 97 0 115 1;
#X connect 97 0 115 0;
#X connect 98 0 99 0;
#X connect 99 0 97 1;
#X connect 100 0 101 0;
#X connect 101 0 102 0;
#X connect 102 0 115 1;
#X connect 102 0 115 0;
#X connect 103 0 104 0;
#X connect 104 0 102 1;
#X connect 105 0 106 0;
#X connect 106 0 107 0;
#X connect 107 0 115 1;
#X connect 107 0 115 0;
#X connect 108 0 109 0;
#X connect 109 0 107 1;
#X connect 110 0 111 0;
#X connect 111 0 112 0;
#X connect 112 0 115 1;
#X connect 112 0 115 0;
#X connect 113 0 114 0;
#X connect 114 0 112 1;
#X connect 116 0 117 0;
#X connect 117 0 118 0;
#X connect 118 0 119 0;
#X connect 118 0 119 1;
#X connect 121 0 118 1;
#X connect 122 0 121 0;
#X connect 125 0 131 1;
#X connect 126 0 136 1;
#X connect 127 0 128 0;
#X connect 128 0 129 0;
#X connect 129 0 130 0;
#X connect 129 0 130 1;
#X connect 131 0 136 0;
#X connect 132 0 129 1;
#X connect 133 0 132 0;
#X connect 135 0 131 0;
#X connect 136 0 133 0;
#X connect 137 0 138 0;
#X connect 137 0 138 1;
#X connect 139 0 137 1;
#X connect 140 0 137 0;
#X connect 141 0 146 0;
#X connect 142 0 147 0;
#X connect 143 0 144 0;
#X connect 143 0 145 0;
#X connect 144 0 143 1;
#X connect 145 0 141 0;
#X connect 146 0 148 0;
#X connect 147 0 143 0;
#X connect 148 0 149 0;
#X connect 149 0 150 0;
#X connect 149 0 150 1;
#X connect 151 0 148 1;
#X connect 152 0 148 2;
#X connect 153 0 154 0;
#X connect 154 0 159 1;
#X connect 155 0 156 0;
#X connect 156 0 153 0;
#X connect 157 0 158 0;
#X connect 158 0 149 1;
#X connect 159 0 160 0;
#X connect 159 0 160 1;
#X connect 161 0 159 0;
#X connect 169 0 170 0;
#X connect 171 0 172 0;
#X connect 173 0 174 0;
#X connect 175 0 176 0;
#X connect 177 0 178 0;
#X connect 179 0 180 0;
#X connect 181 0 182 0;
