#N canvas 16 31 450 700 10;
#X obj 77 197 dac~;
#X obj 135 122 hsl 128 15 0 1 0 0 empty empty empty -2 -8 0 10 -258113
-1 -1 0 1;
#X floatatom 171 178 5 0 0 0 - - -;
#X obj 77 155 *~;
#X floatatom 123 48 5 0 0 0 - - -;
#X obj 234 40 random 1000;
#X floatatom 256 69 5 0 0 0 - - -;
#X obj 223 12 bng 15 250 50 0 empty empty empty 17 7 0 10 -4034 -1
-1;
#X floatatom 368 51 8 250 5000 1 - - -;
#X obj 344 35 tgl 15 0 empty empty empty 17 7 0 10 -262144 -1 -1 0
1;
#X obj 353 116 bng 15 250 50 0 empty empty empty 17 7 0 10 -262144
-1 -1;
#X obj 337 73 metro;
#X obj 77 81 osc~;
#X text 365 37 250-5000;
#X floatatom 212 146 5 0 0 0 - - -;
#X obj 197 80 + 50;
#X floatatom 231 99 5 0 0 0 - - -;
#X obj 44 507 dac~;
#X obj 102 432 hsl 128 15 0 1 0 0 empty empty empty -2 -8 0 10 -258113
-1 -1 0 1;
#X floatatom 138 488 5 0 0 0 - - -;
#X obj 44 465 *~;
#X floatatom 90 358 5 0 0 0 - - -;
#X obj 201 350 random 1000;
#X floatatom 223 379 5 0 0 0 - - -;
#X obj 190 322 bng 15 250 50 0 empty empty empty 17 7 0 10 -4034 -1
-1;
#X floatatom 335 361 8 250 5000 1 - - -;
#X obj 311 345 tgl 15 0 empty empty empty 17 7 0 10 -262144 -1 -1 0
1;
#X obj 320 426 bng 15 250 50 0 empty empty empty 17 7 0 10 -262144
-1 -1;
#X obj 304 383 metro;
#X obj 44 391 osc~;
#X text 332 347 250-5000;
#X floatatom 179 456 5 0 0 0 - - -;
#X obj 164 390 + 50;
#X floatatom 198 409 5 0 0 0 - - -;
#X msg 327 236;
#X connect 1 0 14 0;
#X connect 1 0 3 1;
#X connect 3 0 0 0;
#X connect 3 0 0 1;
#X connect 4 0 12 0;
#X connect 5 0 6 0;
#X connect 5 0 15 0;
#X connect 7 0 5 0;
#X connect 8 0 11 1;
#X connect 9 0 11 0;
#X connect 11 0 5 0;
#X connect 11 0 10 0;
#X connect 12 0 3 0;
#X connect 15 0 12 0;
#X connect 15 0 16 0;
#X connect 18 0 31 0;
#X connect 18 0 20 1;
#X connect 20 0 17 0;
#X connect 20 0 17 1;
#X connect 21 0 29 0;
#X connect 22 0 23 0;
#X connect 22 0 32 0;
#X connect 24 0 22 0;
#X connect 25 0 28 1;
#X connect 26 0 28 0;
#X connect 28 0 22 0;
#X connect 28 0 27 0;
#X connect 29 0 20 0;
#X connect 32 0 29 0;
#X connect 32 0 33 0;
