#N canvas 3 58 669 539 10;
#X floatatom 9 437 5 0 0 0 - - -, f 5;
#X obj 234 8 cnv 15 200 150 empty empty amp_ADSR 3 5 0 8 -241335 -66577
0;
#X obj 16 108 cnv 15 200 60 empty empty vol 3 5 0 8 -216764 -66577
0;
#X obj 22 119 ctlin 7;
#X obj 22 146 send cc_vol;
#X obj 122 119 ctlin 10;
#X obj 122 146 send cc_pan;
#X obj 16 44 cnv 15 200 60 empty empty filter 3 5 0 8 -216764 -66577
0;
#X obj 239 22 ctlin 73;
#X obj 239 42 send cc_ampA;
#X obj 336 42 send cc_ampD;
#X obj 239 83 send cc_ampS;
#X obj 336 83 send cc_ampR;
#X obj 336 22 ctlin 9;
#X obj 239 62 ctlin 12;
#X obj 16 82 send cc_cutoff;
#X obj 16 55 ctlin 74;
#X obj 124 55 ctlin 71;
#X obj 124 82 send cc_reso;
#X obj 450 9 cnv 15 200 150 empty empty filt_ADSR 3 5 0 8 -212733 -66577
0;
#X obj 455 44 send cc_filtA;
#X obj 552 44 send cc_filtD;
#X obj 455 85 send cc_filtS;
#X obj 552 85 send cc_filtR;
#X obj 455 23 ctlin 14;
#X obj 552 23 ctlin 15;
#X obj 455 64 ctlin 16;
#X obj 552 64 ctlin 17;
#X obj 20 179 cnv 15 250 150 empty empty LFO 3 5 0 8 -216947 -66577
0;
#X obj 25 198 ctlin 26;
#X obj 25 219 send cc_lforate;
#X obj 141 219 send cc_lfoamt;
#X obj 23 262 send cc_lfowave;
#X obj 141 262 send cc_lfodest;
#X obj 25 302 send cc_lfosynconoff;
#X obj 141 198 ctlin 27;
#X obj 23 241 ctlin 28;
#X obj 141 241 ctlin 29;
#X obj 25 282 ctlin 30;
#X obj 553 103 ctlin 17;
#X obj 455 139 send cc_filtenvamt;
#X obj 519 122 send cc_filtenvrev;
#X obj 28 15 hsl 128 15 0 127 0 0 empty empty test -2 -8 0 10 -191407
-258113 -1 0 1;
#X obj 9 415 receive cc_lforate;
#X obj 280 179 cnv 15 170 150 empty empty Osc1 3 5 0 8 -253174 -66577
0;
#X obj 285 254 send cc_osc1oct;
#X obj 285 300 send cc_osc1finetune;
#X obj 285 193 ctlin 20;
#X obj 285 234 ctlin 21;
#X obj 285 279 ctlin 24;
#X obj 460 179 cnv 15 170 150 empty empty Osc2 3 5 0 8 -253174 -66577
0;
#X obj 465 193 ctlin 20;
#X obj 465 234 ctlin 21;
#X obj 465 279 ctlin 24;
#X obj 285 213 send cc_osc1wave;
#X obj 465 213 send cc_osc2wave;
#X obj 465 254 send cc_osc2oct;
#X obj 465 300 send cc_osc2finetune;
#X obj 460 339 cnv 15 170 185 empty empty NoiseGen 3 5 0 8 -253174
-66577 0;
#X obj 465 353 ctlin 81;
#X obj 465 373 send cc_noiseonoff;
#X obj 465 394 ctlin 82;
#X obj 465 414 send cc_noiselevel;
#X obj 465 439 ctlin 83;
#X obj 465 460 send cc_noise;
#X obj 465 479 ctlin 84;
#X obj 465 500 send cc_noisecolor;
#X obj 336 62 ctlin 72;
#X obj 455 108 ctlin 18;
#X connect 3 0 4 0;
#X connect 5 0 6 0;
#X connect 8 0 9 0;
#X connect 13 0 10 0;
#X connect 14 0 11 0;
#X connect 16 0 15 0;
#X connect 17 0 18 0;
#X connect 24 0 20 0;
#X connect 25 0 21 0;
#X connect 26 0 22 0;
#X connect 27 0 23 0;
#X connect 29 0 30 0;
#X connect 35 0 31 0;
#X connect 36 0 32 0;
#X connect 37 0 33 0;
#X connect 38 0 34 0;
#X connect 39 0 41 0;
#X connect 42 0 9 0;
#X connect 43 0 0 0;
#X connect 47 0 54 0;
#X connect 48 0 45 0;
#X connect 49 0 46 0;
#X connect 51 0 55 0;
#X connect 52 0 56 0;
#X connect 53 0 57 0;
#X connect 59 0 60 0;
#X connect 61 0 62 0;
#X connect 63 0 64 0;
#X connect 65 0 66 0;
#X connect 67 0 12 0;
#X connect 68 0 40 0;
